<?xml version="1.0" standalone="no"?>
<!DOCTYPE svg PUBLIC "-//W3C//DTD SVG 1.1//EN" "http://www.w3.org/Graphics/SVG/1.1/DTD/svg11.dtd" >
<svg>
<metadata>
Created by FontForge 20110222 at Sun Feb  9 15:54:11 2014
 By Orthosie Webhosting
http://typodermicfonts.com/pages/license
</metadata>
<defs>
<font id="CoolveticaRg-Regular" horiz-adv-x="498" >
  <font-face 
    font-family="Coolvetica Rg"
    font-weight="400"
    font-stretch="normal"
    units-per-em="1000"
    panose-1="2 11 6 3 3 6 2 2 0 4"
    ascent="767"
    descent="-233"
    x-height="492"
    cap-height="664"
    bbox="-235 -233 1103 921"
    underline-thickness="20"
    underline-position="-123"
    stemh="115"
    stemv="130"
    unicode-range="U+0017-FB02"
  />
<missing-glyph horiz-adv-x="452" 
d="M322 0h-193c-63 0 -97 28 -97 84v488c0 56 34 85 97 85h193c64 0 98 -29 98 -85v-488c0 -56 -34 -84 -98 -84zM368 84v488c0 26 -15 39 -46 39h-193c-30 0 -46 -13 -46 -39v-488c0 -25 16 -39 46 -39h193c31 0 46 14 46 39z" />
    <glyph glyph-name="copyright" unicode="&#x28;C&#x29;" horiz-adv-x="666" 
d="M333 -9c-175 0 -318 154 -318 342s143 341 318 341c176 0 318 -153 318 -341s-142 -342 -318 -342zM335 44c147 0 269 128 269 288c0 158 -122 289 -269 289c-149 0 -268 -131 -268 -289c0 -160 119 -288 268 -288zM461 369h-71c-5 25 -25 40 -48 40
c-33 0 -55 -31 -55 -73c0 -54 17 -82 53 -82c24 0 46 16 48 44h72c-7 -59 -58 -101 -123 -101c-79 0 -123 51 -123 131c0 88 44 139 126 139c69 0 117 -39 121 -98z" />
    <glyph glyph-name="registered" unicode="&#x28;R&#x29;" horiz-adv-x="447" 
d="M425 494c0 -106 -86 -191 -192 -191s-191 85 -191 191s85 192 191 192s192 -86 192 -192zM394 494c0 89 -72 161 -161 161s-161 -72 -161 -161s72 -161 161 -161s161 72 161 161zM251 560h-47v-47h46c19 0 27 10 27 23c0 14 -8 24 -26 24zM306 415h-36v45
c0 17 -6 24 -27 24h-39v-69h-36v175h89c33 0 54 -22 54 -51c0 -18 -9 -34 -26 -40c16 -5 21 -14 21 -34v-50z" />
    <glyph glyph-name="uni2117" unicode="&#x28;P&#x29;" horiz-adv-x="666" 
d="M333 -9c-175 0 -318 154 -318 342s143 341 318 341c176 0 318 -153 318 -341s-142 -342 -318 -342zM335 44c147 0 269 128 269 288c0 158 -122 289 -269 289c-149 0 -268 -131 -268 -289c0 -160 119 -288 268 -288zM291 342h64c38 0 54 21 54 49c0 26 -16 45 -54 45h-64
v-94zM291 172h-67v320h141c62 0 103 -46 103 -104s-41 -100 -103 -100h-74v-116z" />
    <glyph glyph-name="uniE004" unicode="GT" horiz-adv-x="1108" 
d="M902 0h-139v548h-140v116h480v-116h-201v-548zM773 -14h121c0 -146 -85 -219 -195 -219c-117 0 -196 81 -196 200v81c-39 -50 -96 -71 -187 -71c-181 0 -301 155 -301 356c0 196 112 353 327 353c158 0 280 -94 290 -227h-140c-7 62 -74 112 -150 112
c-111 0 -185 -86 -185 -244c0 -145 75 -233 184 -233c91 0 162 69 162 152h-147v111h277v-384c0 -68 33 -91 70 -91c43 0 70 33 70 104z" />
    <glyph glyph-name=".notdef" horiz-adv-x="452" 
d="M322 0h-193c-63 0 -97 28 -97 84v488c0 56 34 85 97 85h193c64 0 98 -29 98 -85v-488c0 -56 -34 -84 -98 -84zM368 84v488c0 26 -15 39 -46 39h-193c-30 0 -46 -13 -46 -39v-488c0 -25 16 -39 46 -39h193c31 0 46 14 46 39z" />
    <glyph glyph-name="uni0017" horiz-adv-x="247" 
 />
    <glyph glyph-name="exclam" unicode="!" horiz-adv-x="241" 
d="M187 0h-135v131h135v-131zM155 184h-69c-26 159 -39 297 -39 409c0 27 0 51 5 71h138c2 -22 4 -47 4 -74c0 -110 -13 -247 -39 -406z" />
    <glyph glyph-name="quotedbl" unicode="&#x22;" horiz-adv-x="264" 
d="M112 414h-89v250h89v-250zM244 414h-89v250h89v-250z" />
    <glyph glyph-name="numbersign" unicode="#" horiz-adv-x="496" 
d="M280 274l15 116h-88l-16 -116h89zM329 0h-87l27 189h-88l-24 -189h-85l24 189h-87l9 85h89l15 116h-87l10 85h88l26 189h83l-25 -189h89l24 189h86l-25 -189h88l-12 -85h-87l-15 -116h88l-10 -85h-89z" />
    <glyph glyph-name="dollar" unicode="$" horiz-adv-x="477" 
d="M265 260v-177c51 3 83 41 83 84c0 46 -32 80 -83 93zM224 400v159c-49 -3 -79 -36 -79 -75c0 -40 28 -77 79 -84zM265 -55h-41v39c-148 13 -210 73 -210 215h120c11 -86 32 -108 90 -116v193c-132 35 -198 83 -198 191c0 104 84 189 198 191v44h41v-44
c122 -4 188 -70 194 -194h-118c-6 72 -31 92 -76 95v-172c179 -59 205 -106 205 -204c0 -116 -81 -193 -205 -199v-39z" />
    <glyph glyph-name="percent" unicode="%" horiz-adv-x="660" 
d="M132 384c32 0 47 34 47 124c0 92 -15 126 -47 126c-31 0 -47 -33 -47 -125s16 -125 47 -125zM130 331c-71 0 -113 54 -113 179s42 176 113 176c72 0 115 -51 115 -175c0 -123 -43 -180 -115 -180zM134 -20h-67l461 704h68zM535 31c32 0 47 34 47 124
c0 92 -15 126 -47 126c-31 0 -47 -33 -47 -125s16 -125 47 -125zM533 -22c-71 0 -113 54 -113 179s42 176 113 176c72 0 115 -51 115 -175c0 -123 -43 -180 -115 -180z" />
    <glyph glyph-name="ampersand" unicode="&#x26;" 
d="M355 202v179h125v-179c0 -135 -91 -225 -224 -225c-151 0 -238 90 -238 208c0 62 34 134 80 154c-52 27 -77 74 -77 139c0 111 102 186 250 186v-109c-90 0 -122 -27 -122 -92c0 -56 35 -82 122 -82v-94c-79 0 -126 -33 -126 -100c0 -55 34 -103 110 -103
c67 0 100 41 100 118z" />
    <glyph glyph-name="quotesingle" unicode="'" horiz-adv-x="132" 
d="M112 414h-89v250h89v-250z" />
    <glyph glyph-name="parenleft" unicode="(" horiz-adv-x="322" 
d="M322 -143h-95c-104 125 -160 285 -160 444c0 152 51 304 160 427h95c-81 -135 -122 -281 -122 -429c0 -149 41 -300 122 -442z" />
    <glyph glyph-name="parenright" unicode=")" horiz-adv-x="322" 
d="M103 -143h-95c81 142 122 293 122 442c0 148 -41 294 -122 429h95c109 -123 160 -275 160 -427c0 -159 -56 -319 -160 -444z" />
    <glyph glyph-name="asterisk" unicode="*" horiz-adv-x="534" 
d="M453 260l-88 -63l-98 129l-95 -129l-90 63l96 136l-146 46l33 101l143 -46v167h118v-167l143 46l36 -101l-148 -46z" />
    <glyph glyph-name="plus" unicode="+" horiz-adv-x="518" 
d="M305 107h-94v189h-188v94h188v188h94v-188h189v-94h-189v-189z" />
    <glyph glyph-name="comma" unicode="," horiz-adv-x="184" 
d="M23 -156v50c51 13 76 43 77 106h-77v135h138v-102c0 -113 -34 -167 -138 -189z" />
    <glyph glyph-name="hyphen" unicode="-" horiz-adv-x="274" 
d="M261 257h-248v101h248v-101z" />
    <glyph glyph-name="period" unicode="." horiz-adv-x="184" 
d="M162 0h-139v135h139v-135z" />
    <glyph glyph-name="slash" unicode="/" horiz-adv-x="294" 
d="M102 0h-107l190 664h109z" />
    <glyph glyph-name="zero" unicode="0" horiz-adv-x="485" 
d="M247 82c63 0 94 68 94 249c0 184 -31 251 -94 251s-95 -66 -95 -249c0 -185 32 -251 95 -251zM243 -23c-143 0 -226 108 -226 358c0 249 83 351 226 351s230 -102 230 -349s-87 -360 -230 -360z" />
    <glyph glyph-name="one" unicode="1" horiz-adv-x="293" 
d="M270 0h-130v459h-136v90c114 0 152 38 160 115h106v-664z" />
    <glyph glyph-name="two" unicode="2" horiz-adv-x="460" 
d="M456 0h-452c1 123 30 208 200 330c95 68 123 102 123 158c0 67 -41 87 -92 87c-59 0 -97 -29 -97 -118h-125c0 143 80 229 216 229c134 0 225 -63 225 -194c0 -101 -50 -159 -192 -260c-51 -37 -89 -85 -92 -119h286v-113z" />
    <glyph glyph-name="three" unicode="3" horiz-adv-x="474" 
d="M184 298v91c112 0 135 42 135 91c0 66 -26 102 -86 102c-50 0 -88 -40 -88 -109h-121c0 127 88 213 214 213c115 0 206 -74 206 -181c0 -60 -26 -119 -78 -149c63 -26 99 -80 99 -164c0 -133 -95 -215 -234 -215c-138 0 -218 83 -218 218h125c0 -77 34 -111 99 -111
c54 0 95 40 95 110c0 78 -40 104 -148 104z" />
    <glyph glyph-name="four" unicode="4" horiz-adv-x="471" 
d="M265 246v234l-136 -234h136zM392 0h-130v145h-258v113l242 406h146v-418h75v-101h-75v-145z" />
    <glyph glyph-name="five" unicode="5" horiz-adv-x="485" 
d="M162 261h-134l14 403h409v-110h-293l-6 -178c35 37 83 47 132 47c108 0 192 -76 192 -209c0 -143 -94 -237 -229 -237c-121 0 -216 80 -221 194h130c5 -55 39 -88 91 -88c72 0 99 50 99 125c0 69 -30 110 -91 110c-47 0 -75 -20 -93 -57z" />
    <glyph glyph-name="six" unicode="6" horiz-adv-x="482" 
d="M246 82c60 0 93 55 93 126c0 76 -38 124 -95 124c-58 0 -99 -49 -99 -122c0 -76 37 -128 101 -128zM455 520h-129c-3 41 -27 62 -70 62c-71 0 -105 -68 -113 -210c31 36 70 62 136 62c105 0 188 -82 188 -220c0 -136 -88 -237 -219 -237c-156 0 -233 114 -233 333
c0 266 82 376 247 376c107 0 179 -59 193 -166z" />
    <glyph glyph-name="seven" unicode="7" horiz-adv-x="473" 
d="M229 0h-134c15 191 93 388 233 549h-324v115h465v-100c-149 -165 -230 -365 -240 -564z" />
    <glyph glyph-name="eight" unicode="8" horiz-adv-x="490" 
d="M245 84c67 0 96 41 96 110c0 61 -30 104 -96 104s-94 -41 -94 -104c0 -69 27 -110 94 -110zM245 401c54 0 81 37 81 89c0 54 -27 90 -81 90s-81 -36 -81 -90c0 -52 27 -89 81 -89zM376 363c60 -27 99 -95 99 -169c0 -126 -75 -217 -229 -217c-153 0 -231 94 -231 211
c0 77 35 136 104 169c-55 28 -75 90 -75 146c0 105 86 183 202 183c131 0 199 -78 199 -179c0 -58 -18 -118 -69 -144z" />
    <glyph glyph-name="nine" unicode="9" horiz-adv-x="482" 
d="M238 331c58 0 99 49 99 122c0 76 -37 128 -101 128c-60 0 -93 -55 -93 -126c0 -76 38 -124 95 -124zM27 143h129c3 -41 27 -62 70 -62c71 0 105 68 113 210c-31 -36 -70 -62 -136 -62c-105 0 -188 82 -188 220c0 136 88 237 219 237c156 0 233 -114 233 -333
c0 -266 -82 -376 -247 -376c-107 0 -179 59 -193 166z" />
    <glyph glyph-name="colon" unicode=":" horiz-adv-x="168" 
d="M152 0h-138v135h138v-135zM152 339h-138v134h138v-134z" />
    <glyph glyph-name="semicolon" unicode=";" horiz-adv-x="154" 
d="M10 -156v50c51 13 76 43 77 106h-77v135h138v-102c0 -113 -34 -167 -138 -189zM148 339h-138v134h138v-134z" />
    <glyph glyph-name="less" unicode="&#x3c;" horiz-adv-x="518" 
d="M494 96l-471 200v94l471 200v-104l-365 -143l365 -143v-104z" />
    <glyph glyph-name="equal" unicode="=" horiz-adv-x="518" 
d="M494 396h-471v94h471v-94zM494 196h-471v94h471v-94z" />
    <glyph glyph-name="greater" unicode="&#x3e;" horiz-adv-x="518" 
d="M494 296l-471 -200v104l365 143l-365 143v104l471 -200v-94z" />
    <glyph glyph-name="question" unicode="?" horiz-adv-x="486" 
d="M314 0h-135v131h135v-131zM305 193h-122c0 79 10 121 44 161c41 48 107 62 107 138c0 65 -42 88 -91 88c-71 0 -91 -42 -98 -109h-129c0 132 90 215 224 215c144 0 233 -55 233 -187c0 -86 -36 -122 -101 -171c-59 -44 -67 -76 -67 -135z" />
    <glyph glyph-name="at" unicode="@" horiz-adv-x="708" 
d="M336 154c60 0 99 64 99 153c0 54 -24 85 -69 85c-59 0 -105 -45 -105 -152c0 -56 19 -86 75 -86zM615 43l31 -58c-39 -33 -128 -68 -282 -68c-228 0 -349 143 -349 344c0 211 132 365 353 365c176 0 325 -83 325 -289c0 -174 -93 -265 -175 -265c-56 0 -85 24 -91 53
c-21 -36 -59 -50 -106 -50c-103 0 -145 81 -145 165c0 128 73 226 187 226c47 0 84 -21 98 -63l13 53h78l-52 -247c-4 -18 -6 -30 -6 -36c0 -13 12 -19 23 -19c46 0 102 58 102 173c0 165 -97 231 -252 231c-179 0 -275 -148 -275 -292c0 -177 103 -274 278 -274
c116 0 204 20 245 51z" />
    <glyph glyph-name="A" unicode="A" horiz-adv-x="638" 
d="M402 251l-83 264h-1l-85 -264h169zM635 0h-151l-42 137h-245l-47 -137h-147l237 664h161z" />
    <glyph glyph-name="B" unicode="B" horiz-adv-x="570" 
d="M157 113h176c64 0 102 41 102 95c0 58 -38 84 -100 84h-178v-179zM324 549h-167v-144h175c55 0 84 25 84 72c0 51 -27 72 -92 72zM322 0h-299v664h327c130 0 200 -70 200 -181c0 -57 -35 -105 -81 -124c56 -21 101 -66 101 -161c0 -121 -81 -198 -248 -198z" />
    <glyph glyph-name="C" unicode="C" horiz-adv-x="608" 
d="M469 228h139c-28 -151 -132 -251 -286 -251c-174 0 -307 119 -307 347c0 225 119 362 309 362c166 0 271 -106 284 -240h-139c-19 75 -78 120 -144 120c-115 0 -169 -89 -169 -234c0 -147 54 -234 162 -234c82 0 132 47 151 130z" />
    <glyph glyph-name="D" unicode="D" horiz-adv-x="602" 
d="M158 113h115c121 0 173 76 173 226s-52 210 -185 210h-103v-436zM301 0h-278v664h257c180 0 308 -123 308 -325s-115 -339 -287 -339z" />
    <glyph glyph-name="E" unicode="E" horiz-adv-x="527" 
d="M527 0h-504v664h488v-116h-353v-142h325v-117h-325v-171h369v-118z" />
    <glyph glyph-name="F" unicode="F" horiz-adv-x="500" 
d="M454 280h-292v-280h-139v664h473v-116h-334v-151h292v-117z" />
    <glyph glyph-name="G" unicode="G" horiz-adv-x="659" 
d="M633 0h-115l-3 66c-32 -56 -108 -89 -199 -89c-184 0 -301 171 -301 356c0 196 112 353 327 353c158 0 280 -94 290 -227h-140c-7 62 -74 112 -150 112c-111 0 -185 -86 -185 -244c0 -109 55 -233 184 -233c91 0 162 69 162 152h-147v111h277v-357z" />
    <glyph glyph-name="H" unicode="H" horiz-adv-x="582" 
d="M561 0h-140v298h-259v-298h-139v664h139v-250h259v250h140v-664z" />
    <glyph glyph-name="I" unicode="I" horiz-adv-x="184" 
d="M162 0h-139v664h139v-664z" />
    <glyph glyph-name="J" unicode="J" horiz-adv-x="449" 
d="M288 192v472h139v-485c0 -121 -75 -202 -218 -202c-128 0 -205 70 -205 206v68h126v-61c0 -67 22 -100 79 -100c64 0 79 29 79 102z" />
    <glyph glyph-name="K" unicode="K" horiz-adv-x="600" 
d="M600 0h-169l-197 299l-74 -73v-226h-137v664h137v-270l254 270h180l-262 -262z" />
    <glyph glyph-name="L" unicode="L" horiz-adv-x="496" 
d="M491 0h-468v664h139v-543h329v-121z" />
    <glyph glyph-name="M" unicode="M" horiz-adv-x="690" 
d="M667 0h-130v455l-124 -455h-138l-123 453v-453h-129v664h204l120 -487l120 487h200v-664z" />
    <glyph glyph-name="N" unicode="N" horiz-adv-x="586" 
d="M564 0h-128l-284 446v-446h-129v664h147l264 -427v427h130v-664z" />
    <glyph glyph-name="O" unicode="O" horiz-adv-x="666" 
d="M334 96c100 0 180 70 180 227s-64 240 -180 240c-117 0 -182 -83 -182 -240s67 -227 182 -227zM334 -23c-204 0 -319 125 -319 349c0 225 115 360 319 360s317 -135 317 -363s-113 -346 -317 -346z" />
    <glyph glyph-name="P" unicode="P" horiz-adv-x="529" 
d="M162 354h132c80 0 113 41 113 99c0 55 -33 96 -113 96h-132v-195zM162 0h-139v664h293c130 0 213 -95 213 -215c0 -121 -83 -208 -213 -208h-154v-241z" />
    <glyph glyph-name="Q" unicode="Q" horiz-adv-x="666" 
d="M542 -14h122c0 -127 -85 -219 -202 -219c-110 0 -189 82 -189 200v21c-166 23 -258 136 -258 338c0 225 115 360 319 360s317 -135 317 -363c0 -160 -88 -302 -249 -327c0 -75 30 -108 72 -108c38 0 68 33 68 98zM334 96c100 0 180 70 180 227s-64 240 -180 240
c-117 0 -182 -83 -182 -240s67 -227 182 -227z" />
    <glyph glyph-name="R" unicode="R" horiz-adv-x="573" 
d="M337 549h-179v-177h174c74 0 102 37 102 88c0 52 -28 89 -97 89zM546 0h-136v171c0 64 -24 89 -104 89h-148v-260h-135v664h337c123 0 204 -82 204 -192c0 -71 -35 -131 -99 -154c59 -19 81 -52 81 -130v-188z" />
    <glyph glyph-name="S" unicode="S" horiz-adv-x="558" 
d="M531 468h-132c-7 68 -48 101 -133 101c-77 0 -118 -27 -118 -81c0 -38 31 -64 103 -81c85 -20 145 -36 197 -58c60 -25 104 -66 104 -172c0 -127 -114 -200 -251 -200c-192 0 -290 76 -295 222h134c1 -67 62 -110 143 -110c87 0 134 35 134 89c0 44 -18 71 -103 89
c-203 43 -293 79 -293 222c0 110 81 197 245 197c160 0 260 -87 265 -218z" />
    <glyph glyph-name="T" unicode="T" horiz-adv-x="549" 
d="M343 0h-139v548h-200v116h540v-116h-201v-548z" />
    <glyph glyph-name="U" unicode="U" horiz-adv-x="581" 
d="M416 221v443h142v-443c0 -161 -99 -244 -273 -244c-161 0 -262 76 -262 236v451h141v-438c0 -82 44 -134 119 -134c89 0 133 42 133 129z" />
    <glyph glyph-name="V" unicode="V" horiz-adv-x="588" 
d="M359 0h-131l-225 664h148l145 -466l144 466h144z" />
    <glyph glyph-name="W" unicode="W" horiz-adv-x="852" 
d="M663 0h-134l-103 432l-105 -432h-130l-188 664h148l109 -430l92 430h146l101 -430l108 430h142z" />
    <glyph glyph-name="X" unicode="X" horiz-adv-x="600" 
d="M596 0h-169l-127 228l-134 -228h-162l215 339l-203 325h164l120 -215l121 215h161l-202 -319z" />
    <glyph glyph-name="Y" unicode="Y" horiz-adv-x="597" 
d="M372 0h-139v251l-230 413h162l140 -270l129 270h160l-222 -415v-249z" />
    <glyph glyph-name="Z" unicode="Z" horiz-adv-x="527" 
d="M523 0h-519v118l345 430h-335v116h509v-109l-347 -437h347v-118z" />
    <glyph glyph-name="bracketleft" unicode="[" horiz-adv-x="314" 
d="M300 -130h-228v849h228v-89h-113v-673h113v-87z" />
    <glyph glyph-name="backslash" unicode="\" horiz-adv-x="288" 
d="M294 0h-107l-192 664h109z" />
    <glyph glyph-name="bracketright" unicode="]" horiz-adv-x="312" 
d="M240 -130h-230v87h115v673h-115v89h230v-849z" />
    <glyph glyph-name="asciicircum" unicode="^" horiz-adv-x="454" 
d="M440 473h-139l-73 87l-75 -87h-138l165 191h93z" />
    <glyph glyph-name="underscore" unicode="_" horiz-adv-x="482" 
d="M485 -126h-485v58h485v-58z" />
    <glyph glyph-name="grave" unicode="`" horiz-adv-x="354" 
d="M273 554l-223 94l47 82l207 -121z" />
    <glyph glyph-name="a" unicode="a" horiz-adv-x="481" 
d="M324 187l1 54c-13 -13 -36 -20 -84 -29c-74 -14 -98 -35 -98 -77c0 -37 22 -55 63 -55c67 0 117 49 118 107zM455 0h-121c-4 12 -7 29 -8 44c-31 -34 -83 -57 -149 -57c-112 0 -164 55 -164 135c0 142 95 158 226 176c65 9 83 22 83 56c0 32 -32 51 -83 51
c-59 0 -83 -29 -89 -73h-121c2 102 58 173 216 173c156 0 210 -70 210 -194v-311z" />
    <glyph glyph-name="b" unicode="b" horiz-adv-x="519" 
d="M259 93c65 0 111 61 111 149c0 101 -36 152 -112 152c-72 0 -109 -53 -109 -160c0 -83 48 -141 110 -141zM151 0h-125v672h128v-244c37 52 85 77 146 77c127 0 202 -105 202 -254c0 -166 -89 -264 -213 -264c-60 0 -106 23 -137 73z" />
    <glyph glyph-name="c" unicode="c" horiz-adv-x="476" 
d="M338 178h131c-14 -114 -107 -191 -226 -191c-134 0 -226 89 -226 265s92 253 230 253c128 0 215 -73 223 -189h-131c-7 51 -44 81 -93 81c-55 0 -100 -35 -100 -142s45 -159 96 -159s91 29 96 82z" />
    <glyph glyph-name="d" unicode="d" horiz-adv-x="518" 
d="M259 93c62 0 110 58 110 141c0 107 -37 160 -109 160c-76 0 -112 -51 -112 -152c0 -88 46 -149 111 -149zM492 0h-125l-1 60c-31 -50 -77 -73 -137 -73c-124 0 -213 98 -213 264c0 149 75 254 202 254c61 0 109 -25 146 -77v244h128v-672z" />
    <glyph glyph-name="e" unicode="e" 
d="M149 294h201c-2 73 -50 108 -101 108c-52 0 -95 -40 -100 -108zM484 212h-339c4 -74 46 -122 110 -122c42 0 79 21 88 55h134c-30 -101 -111 -158 -216 -158c-164 0 -246 90 -246 268c0 152 87 250 238 250s231 -98 231 -293z" />
    <glyph glyph-name="f" unicode="f" horiz-adv-x="289" 
d="M205 0h-128v400h-73v92h73c0 120 69 180 209 180v-105c-66 0 -81 -18 -81 -75h84v-92h-84v-400z" />
    <glyph glyph-name="g" unicode="g" horiz-adv-x="525" 
d="M262 98c63 0 111 53 111 136c0 107 -37 158 -111 158c-73 0 -111 -49 -111 -150c0 -88 47 -144 111 -144zM369 -15v81c-18 -44 -71 -70 -135 -70c-162 0 -218 124 -218 253c0 153 96 256 215 256c62 0 107 -24 138 -74v61h130v-497c0 -148 -108 -228 -245 -228
s-238 79 -238 206h121c0 -59 43 -94 108 -94c69 0 124 41 124 106z" />
    <glyph glyph-name="h" unicode="h" 
d="M472 0h-131v305c0 74 -25 97 -84 97c-65 0 -101 -54 -101 -120v-282h-130v672h130v-244c19 44 79 77 145 77c101 0 171 -59 171 -157v-348z" />
    <glyph glyph-name="i" unicode="i" horiz-adv-x="188" 
d="M159 0h-130v492h130v-492zM159 551h-130v121h130v-121z" />
    <glyph glyph-name="j" unicode="j" horiz-adv-x="183" 
d="M26 -28v520h131v-525c0 -119 -84 -200 -194 -200c-135 0 -198 79 -198 206h122c0 -56 18 -91 69 -91c52 0 70 34 70 90zM157 551h-131v121h131v-121z" />
    <glyph glyph-name="k" unicode="k" horiz-adv-x="478" 
d="M474 0h-146l-108 221l-63 -65v-156h-131v672h131v-367l162 187h159l-165 -181z" />
    <glyph glyph-name="l" unicode="l" horiz-adv-x="181" 
d="M156 0h-130v672h130v-672z" />
    <glyph glyph-name="m" unicode="m" horiz-adv-x="756" 
d="M730 0h-127v298c0 59 -31 101 -77 101c-48 0 -83 -45 -83 -105v-294h-130v296c0 79 -21 99 -78 99c-52 0 -79 -32 -79 -96v-299h-130v492h122v-72c33 65 79 85 144 85c67 0 99 -21 137 -78c27 54 71 78 133 78c99 0 168 -72 168 -164v-341z" />
    <glyph glyph-name="n" unicode="n" 
d="M472 0h-131v298c0 76 -22 97 -84 97c-68 0 -101 -38 -101 -113v-282h-130v492h124v-72c30 55 80 85 159 85c94 0 163 -57 163 -164v-341z" />
    <glyph glyph-name="o" unicode="o" horiz-adv-x="534" 
d="M268 96c79 0 119 50 119 150s-40 149 -119 149s-119 -49 -119 -149s40 -150 119 -150zM268 -13c-159 0 -253 106 -253 259c0 156 97 259 253 259c154 0 250 -102 250 -259c0 -156 -97 -259 -250 -259z" />
    <glyph glyph-name="p" unicode="p" horiz-adv-x="518" 
d="M258 98c76 0 112 51 112 152c0 88 -46 149 -111 149c-62 0 -110 -58 -110 -141c0 -107 37 -160 109 -160zM154 -233h-128v725h125l1 -60c31 50 77 73 137 73c124 0 213 -98 213 -264c0 -149 -75 -254 -202 -254c-61 0 -109 25 -146 77v-297z" />
    <glyph glyph-name="q" unicode="q" horiz-adv-x="518" 
d="M613 -27h122c0 -127 -81 -206 -187 -206c-107 0 -186 84 -186 205v89c-37 -50 -84 -74 -144 -74c-127 0 -202 105 -202 254c0 166 89 264 213 264c60 0 106 -23 137 -73l1 60h125v-521c0 -67 23 -89 64 -89c38 0 57 26 57 91zM260 98c72 0 109 53 109 160
c0 83 -48 141 -110 141c-65 0 -111 -61 -111 -149c0 -101 36 -152 112 -152z" />
    <glyph glyph-name="r" unicode="r" horiz-adv-x="315" 
d="M156 0h-130v492h122v-59c43 66 93 72 146 72h17v-133c-12 2 -24 3 -36 3c-80 0 -119 -40 -119 -119v-256z" />
    <glyph glyph-name="s" unicode="s" horiz-adv-x="467" 
d="M447 343h-125c-6 45 -32 65 -88 65c-53 0 -81 -11 -81 -42c0 -27 28 -41 80 -55c172 -47 228 -56 228 -171c0 -88 -75 -153 -218 -153c-141 0 -232 67 -234 171h134c0 -46 41 -73 99 -73c49 0 90 15 90 47c0 36 -26 48 -79 60c-191 42 -226 91 -226 174
c0 74 57 139 211 139c141 0 203 -61 209 -162z" />
    <glyph glyph-name="t" unicode="t" horiz-adv-x="447" 
d="M305 196v128h121v-140c0 -104 -60 -197 -199 -197c-144 0 -201 92 -201 198v440h128v-133h272v-92h-272v-202c0 -62 22 -98 75 -98c52 0 76 35 76 96z" />
    <glyph glyph-name="u" unicode="u" horiz-adv-x="495" 
d="M469 0h-123v69c-34 -56 -85 -82 -153 -82c-98 0 -167 73 -167 181v324h130v-304c0 -62 28 -92 83 -92c66 0 101 47 101 112v284h129v-492z" />
    <glyph glyph-name="v" unicode="v" horiz-adv-x="496" 
d="M315 0h-136l-176 492h145l103 -325l104 325h137z" />
    <glyph glyph-name="w" unicode="w" horiz-adv-x="710" 
d="M565 0h-133l-78 286l-78 -286h-133l-140 492h137l80 -316l68 316h132l77 -316l75 316h134z" />
    <glyph glyph-name="x" unicode="x" horiz-adv-x="491" 
d="M488 0h-159l-86 148l-84 -148h-156l165 251l-160 241h157l83 -143l84 143h151l-163 -241z" />
    <glyph glyph-name="y" unicode="y" horiz-adv-x="495" 
d="M339 -15v80c-18 -44 -72 -70 -133 -70c-103 0 -180 70 -180 178v319h130v-300c0 -61 28 -92 83 -92c59 0 100 39 100 92v300h130v-505c0 -139 -100 -220 -226 -220c-144 0 -217 79 -217 206h121c0 -58 34 -94 102 -94c47 0 90 41 90 106z" />
    <glyph glyph-name="z" unicode="z" horiz-adv-x="440" 
d="M433 0h-424v100l251 289h-234v103h400v-105l-251 -281h258v-106z" />
    <glyph glyph-name="braceleft" unicode="{" horiz-adv-x="329" 
d="M314 -131h-37c-145 0 -170 51 -170 158c0 23 5 102 5 121c0 77 -20 104 -82 104v86c62 0 82 28 82 105c0 19 -5 96 -5 119c0 107 25 158 170 158h37v-82h-22c-58 0 -75 -16 -75 -63c0 -60 6 -118 6 -178c0 -56 -51 -95 -107 -102c56 -7 107 -46 107 -102
c0 -60 -6 -119 -6 -179c0 -47 17 -63 75 -63h22v-82z" />
    <glyph glyph-name="bar" unicode="|" horiz-adv-x="334" 
d="M218 -125h-102v861h102v-861z" />
    <glyph glyph-name="braceright" unicode="}" horiz-adv-x="325" 
d="M47 -131h-37v82h22c58 0 75 16 75 63c0 60 -6 119 -6 179c0 56 51 95 107 102c-56 7 -107 46 -107 102c0 60 6 118 6 178c0 47 -17 63 -75 63h-22v82h37c145 0 170 -51 170 -158c0 -23 -5 -100 -5 -119c0 -77 20 -105 82 -105v-86c-62 0 -82 -27 -82 -104
c0 -19 5 -98 5 -121c0 -107 -25 -158 -170 -158z" />
    <glyph glyph-name="asciitilde" unicode="~" horiz-adv-x="550" 
d="M525 406v-101c-42 -46 -87 -67 -148 -67c-80 0 -146 58 -216 58c-55 0 -96 -25 -136 -76v101c29 34 71 67 132 67c96 0 160 -57 226 -57c56 0 101 20 142 75z" />
    <glyph glyph-name="nbspace" unicode="&#xa0;" horiz-adv-x="247" 
 />
    <glyph glyph-name="exclamdown" unicode="&#xa1;" horiz-adv-x="241" 
d="M54 664h135v-131h-135v131zM86 480h69c26 -159 39 -297 39 -409c0 -27 0 -51 -5 -71h-138c-2 22 -4 47 -4 74c0 110 13 247 39 406z" />
    <glyph glyph-name="cent" unicode="&#xa2;" horiz-adv-x="476" 
d="M269 0h-47v70c-123 9 -205 97 -205 265c0 165 81 244 205 253v76h47v-76c115 -8 193 -79 201 -188h-131c-6 42 -33 70 -70 77v-296c37 9 65 37 69 80h131c-13 -105 -94 -180 -200 -190v-71zM222 181v297c-44 -9 -76 -49 -76 -140c0 -94 33 -145 76 -157z" />
    <glyph glyph-name="sterling" unicode="&#xa3;" horiz-adv-x="477" 
d="M455 0h-429v484c0 121 74 202 218 202c128 0 210 -45 210 -204v-77h-131v76c0 61 -13 91 -79 91s-79 -29 -79 -90v-133h290v-82h-290v-146h290v-121z" />
    <glyph glyph-name="currency" unicode="&#xa4;" horiz-adv-x="536" 
d="M443 96l-63 68c-33 -20 -71 -32 -112 -32s-80 12 -112 32l-63 -68l-72 72l68 63c-20 32 -32 71 -32 112s12 79 32 112l-67 62l71 71l61 -66c33 21 72 33 114 33c41 0 80 -12 113 -33l61 66l71 -71l-66 -61c21 -33 33 -72 33 -113c0 -42 -12 -81 -33 -113l67 -62zM416 343
c0 82 -66 148 -148 148s-147 -66 -147 -148s65 -147 147 -147s148 65 148 147z" />
    <glyph glyph-name="yen" unicode="&#xa5;" horiz-adv-x="529" 
d="M464 80h-145v-80h-108v80h-145v76h145v61h-145v75h145v66l-194 306h117l130 -219l131 219h116l-192 -306v-66h145v-75h-145v-61h145v-76z" />
    <glyph glyph-name="brokenbar" unicode="&#xa6;" horiz-adv-x="334" 
d="M218 -125h-102v411h102v-411zM218 736v-397h-102v397h102z" />
    <glyph glyph-name="section" unicode="&#xa7;" horiz-adv-x="528" 
d="M475 492h-111c-6 58 -41 85 -112 85c-65 0 -100 -22 -100 -68c0 -32 26 -54 87 -68c72 -17 122 -31 166 -49c51 -22 88 -56 88 -145c0 -45 -17 -82 -45 -110c23 -22 37 -56 37 -112c0 -107 -96 -168 -211 -168c-162 0 -245 64 -249 187h113c1 -57 52 -93 120 -93
c74 0 113 30 113 75c0 37 -15 60 -86 75c-174 37 -247 68 -247 187c0 44 15 84 46 113c-26 26 -39 59 -39 109c0 93 68 166 207 166c135 0 219 -73 223 -184zM344 190c22 12 35 33 35 58c0 37 -15 60 -87 75c-36 7 -71 17 -100 26c-31 -10 -47 -30 -47 -62s26 -53 86 -68
c45 -11 81 -19 113 -29z" />
    <glyph glyph-name="dieresis" unicode="&#xa8;" horiz-adv-x="430" 
d="M180 579h-130v124h130v-124zM380 579h-130v124h130v-124z" />
    <glyph glyph-name="ordfeminine" unicode="&#xaa;" horiz-adv-x="325" 
d="M208 403l1 30c-23 -26 -100 -11 -100 -59c0 -20 12 -30 34 -30c38 0 64 27 65 59zM280 300h-66c-2 7 -4 16 -5 24c-17 -19 -45 -31 -82 -31c-61 0 -90 30 -90 74c0 78 52 87 124 97c36 5 46 12 46 31c0 17 -18 28 -46 28c-32 0 -45 -16 -49 -40h-66c1 56 32 95 119 95
c86 0 115 -39 115 -107v-171z" />
    <glyph glyph-name="guillemotleft" unicode="&#xab;" horiz-adv-x="464" 
d="M156 145l-143 172l143 174l63 -68l-94 -106l94 -105zM388 145l-143 172l143 174l63 -68l-94 -106l94 -105z" />
    <glyph glyph-name="logicalnot" unicode="&#xac;" horiz-adv-x="584" 
d="M558 0h-118v374h-415v118h533v-492z" />
    <glyph glyph-name="macron" unicode="&#xaf;" horiz-adv-x="481" 
d="M431 602h-381v91h381v-91z" />
    <glyph glyph-name="degree" unicode="&#xb0;" horiz-adv-x="368" 
d="M183 355c-108 0 -151 71 -151 159c0 89 43 158 151 158s152 -69 152 -158c0 -88 -44 -159 -152 -159zM183 418c60 0 83 44 83 97s-23 96 -83 96s-83 -43 -83 -96s23 -97 83 -97z" />
    <glyph glyph-name="plusminus" unicode="&#xb1;" horiz-adv-x="518" 
d="M305 107h-94v189h-188v94h188v188h94v-188h189v-94h-189v-189zM494 -14h-471v94h471v-94z" />
    <glyph glyph-name="twosuperior" unicode="&#xb2;" horiz-adv-x="260" 
d="M243 343h-226c0 61 15 104 100 165c47 34 61 51 61 79c0 33 -20 43 -46 43c-29 0 -48 -14 -48 -59h-63c0 72 40 115 108 115c67 0 113 -32 113 -97c0 -51 -25 -80 -96 -130c-26 -19 -45 -43 -46 -60h143v-56z" />
    <glyph glyph-name="threesuperior" unicode="&#xb3;" horiz-adv-x="267" 
d="M107 492v45c56 0 67 21 67 46c0 33 -13 51 -43 51c-25 0 -44 -20 -44 -55h-60c0 64 44 107 107 107c57 0 103 -37 103 -91c0 -30 -13 -59 -39 -74c31 -13 49 -40 49 -82c0 -67 -47 -108 -117 -108c-69 0 -109 42 -109 109h63c0 -38 17 -55 49 -55c27 0 48 20 48 55
c0 39 -20 52 -74 52z" />
    <glyph glyph-name="acute" unicode="&#xb4;" horiz-adv-x="354" 
d="M304 648l-223 -94l-31 55l207 121z" />
    <glyph glyph-name="mu" unicode="&#x3bc;" horiz-adv-x="495" 
d="M469 0h-123v69c-34 -56 -85 -82 -153 -82c-13 0 -26 2 -37 4v-224h-130v725h130v-304c0 -62 28 -92 83 -92c66 0 101 47 101 112v284h129v-492z" />
    <glyph glyph-name="paragraph" unicode="&#xb6;" horiz-adv-x="576" 
d="M516 -100h-108v696h-162v-696h-109v564c-83 12 -110 59 -110 108c0 63 50 114 165 114h372l-48 -91v-695z" />
    <glyph glyph-name="periodcentered" unicode="&#xb7;" horiz-adv-x="184" 
d="M162 265h-139v135h139v-135z" />
    <glyph glyph-name="cedilla" unicode="&#xb8;" horiz-adv-x="215" 
d="M50 -233v43c41 3 63 26 64 65h-64v82h115v-54c0 -72 -26 -128 -115 -136z" />
    <glyph glyph-name="onesuperior" unicode="&#xb9;" horiz-adv-x="176" 
d="M150 343h-65v229h-68v45c57 0 76 19 80 58h53v-332z" />
    <glyph glyph-name="ordmasculine" unicode="&#xba;" horiz-adv-x="354" 
d="M177 353c44 0 66 27 66 82s-22 82 -66 82c-43 0 -65 -27 -65 -82s22 -82 65 -82zM177 293c-87 0 -139 58 -139 142c0 86 54 143 139 143s138 -56 138 -143c0 -85 -53 -142 -138 -142z" />
    <glyph glyph-name="guillemotright" unicode="&#xbb;" horiz-adv-x="464" 
d="M76 145l-63 67l94 105l-94 106l63 68l143 -174zM308 145l-63 67l94 105l-94 106l63 68l143 -174z" />
    <glyph glyph-name="onequarter" unicode="&#xbc;" horiz-adv-x="607" 
d="M170 343h-65v229h-68v45c57 0 76 19 80 58h53v-332zM84 -20h-67l461 704h68zM494 113v117l-68 -117h68zM558 -10h-65v72h-129v57l121 203h73v-209h37v-51h-37v-72z" />
    <glyph glyph-name="onehalf" unicode="&#xbd;" horiz-adv-x="602" 
d="M170 343h-65v229h-68v45c57 0 76 19 80 58h53v-332zM84 -20h-67l461 704h68zM590 -10h-226c0 61 15 104 100 165c47 34 61 51 61 79c0 33 -20 43 -46 43c-29 0 -48 -14 -48 -59h-63c0 72 40 115 108 115c67 0 113 -32 113 -97c0 -51 -25 -80 -96 -130
c-26 -19 -45 -43 -46 -60h143v-56z" />
    <glyph glyph-name="threequarters" unicode="&#xbe;" horiz-adv-x="634" 
d="M103 492v45c56 0 67 21 67 46c0 33 -13 51 -43 51c-25 0 -44 -20 -44 -55h-60c0 64 44 107 107 107c57 0 103 -37 103 -91c0 -30 -13 -59 -39 -74c31 -13 49 -40 49 -82c0 -67 -47 -108 -117 -108c-69 0 -109 42 -109 109h63c0 -38 17 -55 49 -55c27 0 48 20 48 55
c0 39 -20 52 -74 52zM131 -20h-67l461 704h68zM521 113v117l-68 -117h68zM585 -10h-65v72h-129v57l121 203h73v-209h37v-51h-37v-72z" />
    <glyph glyph-name="questiondown" unicode="&#xbf;" horiz-adv-x="486" 
d="M171 664h135v-131h-135v131zM180 471h122c0 -79 -10 -121 -44 -161c-41 -48 -107 -62 -107 -138c0 -65 42 -88 91 -88c71 0 91 42 98 109h129c0 -132 -90 -215 -224 -215c-144 0 -233 55 -233 187c0 86 36 122 101 171c59 44 67 76 67 135z" />
    <glyph glyph-name="Agrave" unicode="&#xc0;" horiz-adv-x="638" 
d="M402 251l-83 264h-1l-85 -264h169zM635 0h-151l-42 137h-245l-47 -137h-147l237 664h161zM385 726l-223 94l47 82l207 -121z" />
    <glyph glyph-name="Aacute" unicode="&#xc1;" horiz-adv-x="638" 
d="M402 251l-83 264h-1l-85 -264h169zM635 0h-151l-42 137h-245l-47 -137h-147l237 664h161zM476 820l-223 -94l-31 55l207 121z" />
    <glyph glyph-name="Acircumflex" unicode="&#xc2;" horiz-adv-x="638" 
d="M402 251l-83 264h-1l-85 -264h169zM635 0h-151l-42 137h-245l-47 -137h-147l237 664h161zM454 733l-135 118l-135 -118l-46 51l128 134h106l128 -134z" />
    <glyph glyph-name="Atilde" unicode="&#xc3;" horiz-adv-x="638" 
d="M402 251l-83 264h-1l-85 -264h169zM635 0h-151l-42 137h-245l-47 -137h-147l237 664h161zM416 873l75 -27c-22 -72 -66 -98 -109 -98c-51 0 -85 45 -128 45c-8 0 -27 -7 -39 -44l-69 37c21 65 56 88 97 88c61 0 95 -48 133 -48c12 0 34 12 40 47z" />
    <glyph glyph-name="Adieresis" unicode="&#xc4;" horiz-adv-x="638" 
d="M402 251l-83 264h-1l-85 -264h169zM635 0h-151l-42 137h-245l-47 -137h-147l237 664h161zM284 751h-130v124h130v-124zM484 751h-130v124h130v-124z" />
    <glyph glyph-name="Aring" unicode="&#xc5;" horiz-adv-x="638" 
d="M402 251l-83 264h-1l-85 -264h169zM635 0h-151l-42 137h-245l-47 -137h-147l237 664h161zM423 822c0 -62 -30 -96 -104 -96c-69 0 -104 32 -104 96c0 61 34 96 104 96c74 0 104 -35 104 -96zM371 822c0 33 -17 51 -52 51c-34 0 -50 -18 -50 -51c0 -31 16 -49 50 -49
c35 0 52 18 52 49z" />
    <glyph glyph-name="AE" unicode="&#xc6;" horiz-adv-x="881" 
d="M881 0h-507v137h-177l-47 -137h-147l237 664h625v-116h-353v-142h325v-117h-325v-171h369v-118zM374 251v297h-44l-97 -297h141z" />
    <glyph glyph-name="Ccedilla" unicode="&#xc7;" horiz-adv-x="608" 
d="M469 228h139c-28 -151 -132 -251 -286 -251c-174 0 -307 119 -307 347c0 225 119 362 309 362c166 0 271 -106 284 -240h-139c-19 75 -78 120 -144 120c-115 0 -169 -89 -169 -234c0 -147 54 -234 162 -234c82 0 132 47 151 130zM263 -233v43c41 3 63 26 64 65h-64v82
h115v-54c0 -72 -26 -128 -115 -136z" />
    <glyph glyph-name="Egrave" unicode="&#xc8;" horiz-adv-x="527" 
d="M527 0h-504v664h488v-116h-353v-142h325v-117h-325v-171h369v-118zM329 726l-223 94l47 82l207 -121z" />
    <glyph glyph-name="Eacute" unicode="&#xc9;" horiz-adv-x="527" 
d="M527 0h-504v664h488v-116h-353v-142h325v-117h-325v-171h369v-118zM420 820l-223 -94l-31 55l207 121z" />
    <glyph glyph-name="Ecircumflex" unicode="&#xca;" horiz-adv-x="527" 
d="M527 0h-504v664h488v-116h-353v-142h325v-117h-325v-171h369v-118zM398 733l-135 118l-135 -118l-46 51l128 134h106l128 -134z" />
    <glyph glyph-name="Edieresis" unicode="&#xcb;" horiz-adv-x="527" 
d="M527 0h-504v664h488v-116h-353v-142h325v-117h-325v-171h369v-118zM228 751h-130v124h130v-124zM428 751h-130v124h130v-124z" />
    <glyph glyph-name="Igrave" unicode="&#xcc;" horiz-adv-x="184" 
d="M162 0h-139v664h139v-664zM158 726l-223 94l47 82l207 -121z" />
    <glyph glyph-name="Iacute" unicode="&#xcd;" horiz-adv-x="184" 
d="M162 0h-139v664h139v-664zM249 820l-223 -94l-31 55l207 121z" />
    <glyph glyph-name="Icircumflex" unicode="&#xce;" horiz-adv-x="184" 
d="M162 0h-139v664h139v-664zM227 733l-135 118l-135 -118l-46 51l128 134h106l128 -134z" />
    <glyph glyph-name="Idieresis" unicode="&#xcf;" horiz-adv-x="184" 
d="M162 0h-139v664h139v-664zM57 751h-130v124h130v-124zM257 751h-130v124h130v-124z" />
    <glyph glyph-name="Eth" unicode="&#xd0;" horiz-adv-x="602" 
d="M301 0h-278v282h-23v99h23v283h257c180 0 308 -123 308 -325s-115 -339 -287 -339zM158 113h115c121 0 173 76 173 226s-52 210 -185 210h-103v-168h107v-99h-107v-169z" />
    <glyph glyph-name="Ntilde" unicode="&#xd1;" horiz-adv-x="586" 
d="M564 0h-128l-284 446v-446h-129v664h147l264 -427v427h130v-664zM390 873l75 -27c-22 -72 -66 -98 -109 -98c-51 0 -85 45 -128 45c-8 0 -27 -7 -39 -44l-69 37c21 65 56 88 97 88c61 0 95 -48 133 -48c12 0 34 12 40 47z" />
    <glyph glyph-name="Ograve" unicode="&#xd2;" horiz-adv-x="666" 
d="M334 96c100 0 180 70 180 227s-64 240 -180 240c-117 0 -182 -83 -182 -240s67 -227 182 -227zM334 -23c-204 0 -319 125 -319 349c0 225 115 360 319 360s317 -135 317 -363s-113 -346 -317 -346zM399 726l-223 94l47 82l207 -121z" />
    <glyph glyph-name="Oacute" unicode="&#xd3;" horiz-adv-x="666" 
d="M334 96c100 0 180 70 180 227s-64 240 -180 240c-117 0 -182 -83 -182 -240s67 -227 182 -227zM334 -23c-204 0 -319 125 -319 349c0 225 115 360 319 360s317 -135 317 -363s-113 -346 -317 -346zM490 820l-223 -94l-31 55l207 121z" />
    <glyph glyph-name="Ocircumflex" unicode="&#xd4;" horiz-adv-x="666" 
d="M334 96c100 0 180 70 180 227s-64 240 -180 240c-117 0 -182 -83 -182 -240s67 -227 182 -227zM334 -23c-204 0 -319 125 -319 349c0 225 115 360 319 360s317 -135 317 -363s-113 -346 -317 -346zM468 733l-135 118l-135 -118l-46 51l128 134h106l128 -134z" />
    <glyph glyph-name="Otilde" unicode="&#xd5;" horiz-adv-x="666" 
d="M334 96c100 0 180 70 180 227s-64 240 -180 240c-117 0 -182 -83 -182 -240s67 -227 182 -227zM334 -23c-204 0 -319 125 -319 349c0 225 115 360 319 360s317 -135 317 -363s-113 -346 -317 -346zM430 873l75 -27c-22 -72 -66 -98 -109 -98c-51 0 -85 45 -128 45
c-8 0 -27 -7 -39 -44l-69 37c21 65 56 88 97 88c61 0 95 -48 133 -48c12 0 34 12 40 47z" />
    <glyph glyph-name="Odieresis" unicode="&#xd6;" horiz-adv-x="666" 
d="M334 96c100 0 180 70 180 227s-64 240 -180 240c-117 0 -182 -83 -182 -240s67 -227 182 -227zM334 -23c-204 0 -319 125 -319 349c0 225 115 360 319 360s317 -135 317 -363s-113 -346 -317 -346zM298 751h-130v124h130v-124zM498 751h-130v124h130v-124z" />
    <glyph glyph-name="multiply" unicode="&#xd7;" horiz-adv-x="518" 
d="M457 209l-66 -66l-134 133l-133 -133l-66 67l133 133l-133 133l66 66l133 -133l134 134l66 -67l-133 -133z" />
    <glyph glyph-name="Oslash" unicode="&#xd8;" horiz-adv-x="666" 
d="M181 -41l-70 27l24 48c-78 58 -120 157 -120 292c0 225 115 360 319 360c44 0 83 -7 119 -19l24 48l74 -27l-28 -56c83 -59 128 -166 128 -309c0 -228 -113 -346 -317 -346c-50 0 -94 8 -133 22zM461 510l-204 -401c22 -9 48 -13 77 -13c100 0 180 70 180 227
c0 84 -18 147 -53 187zM196 156l200 397c-19 6 -40 10 -62 10c-117 0 -182 -83 -182 -240c0 -75 15 -130 44 -167z" />
    <glyph glyph-name="Ugrave" unicode="&#xd9;" horiz-adv-x="581" 
d="M416 221v443h142v-443c0 -161 -99 -244 -273 -244c-161 0 -262 76 -262 236v451h141v-438c0 -82 44 -134 119 -134c89 0 133 42 133 129zM356 726l-223 94l47 82l207 -121z" />
    <glyph glyph-name="Uacute" unicode="&#xda;" horiz-adv-x="581" 
d="M416 221v443h142v-443c0 -161 -99 -244 -273 -244c-161 0 -262 76 -262 236v451h141v-438c0 -82 44 -134 119 -134c89 0 133 42 133 129zM447 820l-223 -94l-31 55l207 121z" />
    <glyph glyph-name="Ucircumflex" unicode="&#xdb;" horiz-adv-x="581" 
d="M416 221v443h142v-443c0 -161 -99 -244 -273 -244c-161 0 -262 76 -262 236v451h141v-438c0 -82 44 -134 119 -134c89 0 133 42 133 129zM425 733l-135 118l-135 -118l-46 51l128 134h106l128 -134z" />
    <glyph glyph-name="Udieresis" unicode="&#xdc;" horiz-adv-x="581" 
d="M416 221v443h142v-443c0 -161 -99 -244 -273 -244c-161 0 -262 76 -262 236v451h141v-438c0 -82 44 -134 119 -134c89 0 133 42 133 129zM255 751h-130v124h130v-124zM455 751h-130v124h130v-124z" />
    <glyph glyph-name="Yacute" unicode="&#xdd;" horiz-adv-x="597" 
d="M372 0h-139v251l-230 413h162l140 -270l129 270h160l-222 -415v-249zM460 820l-223 -94l-31 55l207 121z" />
    <glyph glyph-name="Thorn" unicode="&#xde;" horiz-adv-x="529" 
d="M162 251h132c65 0 113 41 113 98c0 55 -44 96 -113 96h-132v-194zM324 137h-162v-137h-139v664h139v-103h167c117 0 200 -96 200 -215c0 -121 -83 -209 -205 -209z" />
    <glyph glyph-name="germandbls" unicode="&#xdf;" horiz-adv-x="505" 
d="M218 -9v105c9 -1 19 -2 28 -2c75 0 123 47 123 112c0 88 -57 116 -143 119v82c82 3 102 36 102 84c0 62 -40 84 -87 84c-48 0 -87 -26 -87 -84v-491h-128v498c0 107 72 181 220 181c147 0 213 -72 213 -174c0 -75 -33 -102 -67 -124c85 -38 105 -98 105 -168
c0 -140 -87 -226 -222 -226c-27 0 -43 1 -57 4z" />
    <glyph glyph-name="agrave" unicode="&#xe0;" horiz-adv-x="481" 
d="M324 187l1 54c-13 -13 -36 -20 -84 -29c-74 -14 -98 -35 -98 -77c0 -37 22 -55 63 -55c67 0 117 49 118 107zM455 0h-121c-4 12 -7 29 -8 44c-31 -34 -83 -57 -149 -57c-112 0 -164 55 -164 135c0 142 95 158 226 176c65 9 83 22 83 56c0 32 -32 51 -83 51
c-59 0 -83 -29 -89 -73h-121c2 102 58 173 216 173c156 0 210 -70 210 -194v-311zM306 554l-223 94l47 82l207 -121z" />
    <glyph glyph-name="aacute" unicode="&#xe1;" horiz-adv-x="481" 
d="M324 187l1 54c-13 -13 -36 -20 -84 -29c-74 -14 -98 -35 -98 -77c0 -37 22 -55 63 -55c67 0 117 49 118 107zM455 0h-121c-4 12 -7 29 -8 44c-31 -34 -83 -57 -149 -57c-112 0 -164 55 -164 135c0 142 95 158 226 176c65 9 83 22 83 56c0 32 -32 51 -83 51
c-59 0 -83 -29 -89 -73h-121c2 102 58 173 216 173c156 0 210 -70 210 -194v-311zM397 648l-223 -94l-31 55l207 121z" />
    <glyph glyph-name="acircumflex" unicode="&#xe2;" horiz-adv-x="481" 
d="M324 187l1 54c-13 -13 -36 -20 -84 -29c-74 -14 -98 -35 -98 -77c0 -37 22 -55 63 -55c67 0 117 49 118 107zM455 0h-121c-4 12 -7 29 -8 44c-31 -34 -83 -57 -149 -57c-112 0 -164 55 -164 135c0 142 95 158 226 176c65 9 83 22 83 56c0 32 -32 51 -83 51
c-59 0 -83 -29 -89 -73h-121c2 102 58 173 216 173c156 0 210 -70 210 -194v-311zM375 561l-135 118l-135 -118l-46 51l128 134h106l128 -134z" />
    <glyph glyph-name="atilde" unicode="&#xe3;" horiz-adv-x="481" 
d="M324 187l1 54c-13 -13 -36 -20 -84 -29c-74 -14 -98 -35 -98 -77c0 -37 22 -55 63 -55c67 0 117 49 118 107zM455 0h-121c-4 12 -7 29 -8 44c-31 -34 -83 -57 -149 -57c-112 0 -164 55 -164 135c0 142 95 158 226 176c65 9 83 22 83 56c0 32 -32 51 -83 51
c-59 0 -83 -29 -89 -73h-121c2 102 58 173 216 173c156 0 210 -70 210 -194v-311zM338 701l75 -27c-22 -72 -66 -98 -109 -98c-51 0 -85 45 -128 45c-8 0 -27 -7 -39 -44l-69 37c21 65 56 88 97 88c61 0 95 -48 133 -48c12 0 34 12 40 47z" />
    <glyph glyph-name="adieresis" unicode="&#xe4;" horiz-adv-x="481" 
d="M324 187l1 54c-13 -13 -36 -20 -84 -29c-74 -14 -98 -35 -98 -77c0 -37 22 -55 63 -55c67 0 117 49 118 107zM455 0h-121c-4 12 -7 29 -8 44c-31 -34 -83 -57 -149 -57c-112 0 -164 55 -164 135c0 142 95 158 226 176c65 9 83 22 83 56c0 32 -32 51 -83 51
c-59 0 -83 -29 -89 -73h-121c2 102 58 173 216 173c156 0 210 -70 210 -194v-311zM205 579h-130v124h130v-124zM405 579h-130v124h130v-124z" />
    <glyph glyph-name="aring" unicode="&#xe5;" horiz-adv-x="481" 
d="M324 187l1 54c-13 -13 -36 -20 -84 -29c-74 -14 -98 -35 -98 -77c0 -37 22 -55 63 -55c67 0 117 49 118 107zM455 0h-121c-4 12 -7 29 -8 44c-31 -34 -83 -57 -149 -57c-112 0 -164 55 -164 135c0 142 95 158 226 176c65 9 83 22 83 56c0 32 -32 51 -83 51
c-59 0 -83 -29 -89 -73h-121c2 102 58 173 216 173c156 0 210 -70 210 -194v-311zM344 650c0 -62 -30 -96 -104 -96c-69 0 -104 32 -104 96c0 61 34 96 104 96c74 0 104 -35 104 -96zM292 650c0 33 -17 51 -52 51c-34 0 -50 -18 -50 -51c0 -31 16 -49 50 -49
c35 0 52 18 52 49z" />
    <glyph glyph-name="ae" unicode="&#xe6;" horiz-adv-x="806" 
d="M794 212h-339c4 -74 46 -122 110 -122c42 0 79 21 88 55h134c-30 -101 -111 -158 -216 -158c-74 0 -149 20 -198 83c-48 -55 -107 -83 -196 -83c-112 0 -164 55 -164 135c0 142 95 158 226 176c65 9 83 22 83 56c0 32 -32 51 -83 51c-59 0 -83 -29 -89 -73h-121
c2 102 58 173 216 173c77 0 129 -17 162 -50c40 32 92 50 156 50c151 0 231 -98 231 -293zM324 187l1 54c-13 -13 -36 -20 -84 -29c-74 -14 -98 -35 -98 -77c0 -37 22 -55 63 -55c67 0 117 49 118 107zM459 294h201c-2 73 -50 108 -101 108c-52 0 -95 -40 -100 -108z" />
    <glyph glyph-name="ccedilla" unicode="&#xe7;" horiz-adv-x="476" 
d="M338 178h131c-14 -114 -107 -191 -226 -191c-134 0 -226 89 -226 265s92 253 230 253c128 0 215 -73 223 -189h-131c-7 51 -44 81 -93 81c-55 0 -100 -35 -100 -142s45 -159 96 -159s91 29 96 82zM194 -233v43c41 3 63 26 64 65h-64v82h115v-54c0 -72 -26 -128 -115 -136
z" />
    <glyph glyph-name="egrave" unicode="&#xe8;" 
d="M149 294h201c-2 73 -50 108 -101 108c-52 0 -95 -40 -100 -108zM484 212h-339c4 -74 46 -122 110 -122c42 0 79 21 88 55h134c-30 -101 -111 -158 -216 -158c-164 0 -246 90 -246 268c0 152 87 250 238 250s231 -98 231 -293zM315 554l-223 94l47 82l207 -121z" />
    <glyph glyph-name="eacute" unicode="&#xe9;" 
d="M149 294h201c-2 73 -50 108 -101 108c-52 0 -95 -40 -100 -108zM484 212h-339c4 -74 46 -122 110 -122c42 0 79 21 88 55h134c-30 -101 -111 -158 -216 -158c-164 0 -246 90 -246 268c0 152 87 250 238 250s231 -98 231 -293zM406 648l-223 -94l-31 55l207 121z" />
    <glyph glyph-name="ecircumflex" unicode="&#xea;" 
d="M149 294h201c-2 73 -50 108 -101 108c-52 0 -95 -40 -100 -108zM484 212h-339c4 -74 46 -122 110 -122c42 0 79 21 88 55h134c-30 -101 -111 -158 -216 -158c-164 0 -246 90 -246 268c0 152 87 250 238 250s231 -98 231 -293zM384 561l-135 118l-135 -118l-46 51l128 134
h106l128 -134z" />
    <glyph glyph-name="edieresis" unicode="&#xeb;" 
d="M149 294h201c-2 73 -50 108 -101 108c-52 0 -95 -40 -100 -108zM484 212h-339c4 -74 46 -122 110 -122c42 0 79 21 88 55h134c-30 -101 -111 -158 -216 -158c-164 0 -246 90 -246 268c0 152 87 250 238 250s231 -98 231 -293zM214 579h-130v124h130v-124zM414 579h-130
v124h130v-124z" />
    <glyph glyph-name="igrave" unicode="&#xec;" horiz-adv-x="268" 
d="M199 0h-130v492h130v-492zM200 554l-223 94l47 82l207 -121z" />
    <glyph glyph-name="iacute" unicode="&#xed;" horiz-adv-x="268" 
d="M199 0h-130v492h130v-492zM291 648l-223 -94l-31 55l207 121z" />
    <glyph glyph-name="icircumflex" unicode="&#xee;" horiz-adv-x="268" 
d="M199 0h-130v492h130v-492zM269 561l-135 118l-135 -118l-46 51l128 134h106l128 -134z" />
    <glyph glyph-name="idieresis" unicode="&#xef;" horiz-adv-x="268" 
d="M199 0h-130v492h130v-492zM99 579h-130v124h130v-124zM299 579h-130v124h130v-124z" />
    <glyph glyph-name="eth" unicode="&#xf0;" horiz-adv-x="514" 
d="M464 651l-62 -36c59 -73 90 -187 90 -331c0 -228 -120 -297 -228 -297c-178 0 -249 111 -249 254c0 142 78 242 216 242c49 0 96 -3 132 -55c-5 48 -24 95 -51 135l-83 -48l-18 28l81 47c-29 35 -63 63 -95 82h139c15 -9 29 -20 42 -32l68 39zM258 95
c65 0 111 48 111 129c0 94 -37 148 -110 148c-74 0 -111 -54 -111 -140c0 -88 44 -137 110 -137z" />
    <glyph glyph-name="ntilde" unicode="&#xf1;" 
d="M472 0h-131v298c0 76 -22 97 -84 97c-68 0 -101 -38 -101 -113v-282h-130v492h124v-72c30 55 80 85 159 85c94 0 163 -57 163 -164v-341zM356 701l75 -27c-22 -72 -66 -98 -109 -98c-51 0 -85 45 -128 45c-8 0 -27 -7 -39 -44l-69 37c21 65 56 88 97 88
c61 0 95 -48 133 -48c12 0 34 12 40 47z" />
    <glyph glyph-name="ograve" unicode="&#xf2;" horiz-adv-x="534" 
d="M268 96c79 0 119 50 119 150s-40 149 -119 149s-119 -49 -119 -149s40 -150 119 -150zM268 -13c-159 0 -253 106 -253 259c0 156 97 259 253 259c154 0 250 -102 250 -259c0 -156 -97 -259 -250 -259zM333 554l-223 94l47 82l207 -121z" />
    <glyph glyph-name="oacute" unicode="&#xf3;" horiz-adv-x="534" 
d="M268 96c79 0 119 50 119 150s-40 149 -119 149s-119 -49 -119 -149s40 -150 119 -150zM268 -13c-159 0 -253 106 -253 259c0 156 97 259 253 259c154 0 250 -102 250 -259c0 -156 -97 -259 -250 -259zM424 648l-223 -94l-31 55l207 121z" />
    <glyph glyph-name="ocircumflex" unicode="&#xf4;" horiz-adv-x="534" 
d="M268 96c79 0 119 50 119 150s-40 149 -119 149s-119 -49 -119 -149s40 -150 119 -150zM268 -13c-159 0 -253 106 -253 259c0 156 97 259 253 259c154 0 250 -102 250 -259c0 -156 -97 -259 -250 -259zM402 561l-135 118l-135 -118l-46 51l128 134h106l128 -134z" />
    <glyph glyph-name="otilde" unicode="&#xf5;" horiz-adv-x="534" 
d="M268 96c79 0 119 50 119 150s-40 149 -119 149s-119 -49 -119 -149s40 -150 119 -150zM268 -13c-159 0 -253 106 -253 259c0 156 97 259 253 259c154 0 250 -102 250 -259c0 -156 -97 -259 -250 -259zM364 701l75 -27c-22 -72 -66 -98 -109 -98c-51 0 -85 45 -128 45
c-8 0 -27 -7 -39 -44l-69 37c21 65 56 88 97 88c61 0 95 -48 133 -48c12 0 34 12 40 47z" />
    <glyph glyph-name="odieresis" unicode="&#xf6;" horiz-adv-x="534" 
d="M268 96c79 0 119 50 119 150s-40 149 -119 149s-119 -49 -119 -149s40 -150 119 -150zM268 -13c-159 0 -253 106 -253 259c0 156 97 259 253 259c154 0 250 -102 250 -259c0 -156 -97 -259 -250 -259zM232 579h-130v124h130v-124zM432 579h-130v124h130v-124z" />
    <glyph glyph-name="divide" unicode="&#xf7;" horiz-adv-x="518" 
d="M494 296h-471v94h471v-94zM328 490h-139v135h139v-135zM328 63h-139v135h139v-135z" />
    <glyph glyph-name="oslash" unicode="&#xf8;" horiz-adv-x="534" 
d="M165 -57l-59 26l23 52c-73 43 -114 124 -114 225c0 156 97 259 253 259c27 0 53 -4 76 -10l23 50l63 -26l-23 -50c70 -42 111 -121 111 -223c0 -156 -97 -259 -250 -259c-28 0 -55 3 -79 10zM356 359l-120 -260c10 -2 21 -3 32 -3c79 0 119 50 119 150
c0 51 -11 88 -31 113zM180 132l117 260c-9 1 -19 3 -29 3c-79 0 -119 -49 -119 -149c0 -51 10 -89 31 -114z" />
    <glyph glyph-name="ugrave" unicode="&#xf9;" horiz-adv-x="495" 
d="M469 0h-123v69c-34 -56 -85 -82 -153 -82c-98 0 -167 73 -167 181v324h130v-304c0 -62 28 -92 83 -92c66 0 101 47 101 112v284h129v-492zM313 554l-223 94l47 82l207 -121z" />
    <glyph glyph-name="uacute" unicode="&#xfa;" horiz-adv-x="495" 
d="M469 0h-123v69c-34 -56 -85 -82 -153 -82c-98 0 -167 73 -167 181v324h130v-304c0 -62 28 -92 83 -92c66 0 101 47 101 112v284h129v-492zM404 648l-223 -94l-31 55l207 121z" />
    <glyph glyph-name="ucircumflex" unicode="&#xfb;" horiz-adv-x="495" 
d="M469 0h-123v69c-34 -56 -85 -82 -153 -82c-98 0 -167 73 -167 181v324h130v-304c0 -62 28 -92 83 -92c66 0 101 47 101 112v284h129v-492zM382 561l-135 118l-135 -118l-46 51l128 134h106l128 -134z" />
    <glyph glyph-name="udieresis" unicode="&#xfc;" horiz-adv-x="495" 
d="M469 0h-123v69c-34 -56 -85 -82 -153 -82c-98 0 -167 73 -167 181v324h130v-304c0 -62 28 -92 83 -92c66 0 101 47 101 112v284h129v-492zM222 579h-130v124h130v-124zM422 579h-130v124h130v-124z" />
    <glyph glyph-name="yacute" unicode="&#xfd;" horiz-adv-x="495" 
d="M339 -15v80c-18 -44 -72 -70 -133 -70c-103 0 -180 70 -180 178v319h130v-300c0 -61 28 -92 83 -92c59 0 100 39 100 92v300h130v-505c0 -139 -100 -220 -226 -220c-144 0 -217 79 -217 206h121c0 -58 34 -94 102 -94c47 0 90 41 90 106zM404 648l-223 -94l-31 55
l207 121z" />
    <glyph glyph-name="thorn" unicode="&#xfe;" horiz-adv-x="518" 
d="M258 93c65 0 111 61 111 149c0 101 -37 152 -112 152c-72 0 -109 -53 -109 -160c0 -83 46 -141 110 -141zM154 -233h-128v905h128v-241c26 52 66 74 135 74c144 0 214 -125 214 -263c0 -149 -74 -255 -203 -255c-60 0 -117 22 -146 75v-295z" />
    <glyph glyph-name="ydieresis" unicode="&#xff;" horiz-adv-x="495" 
d="M339 -15v80c-18 -44 -72 -70 -133 -70c-103 0 -180 70 -180 178v319h130v-300c0 -61 28 -92 83 -92c59 0 100 39 100 92v300h130v-505c0 -139 -100 -220 -226 -220c-144 0 -217 79 -217 206h121c0 -58 34 -94 102 -94c47 0 90 41 90 106zM212 579h-130v124h130v-124z
M412 579h-130v124h130v-124z" />
    <glyph glyph-name="Amacron" unicode="&#x100;" horiz-adv-x="638" 
d="M402 251l-83 264h-1l-85 -264h169zM635 0h-151l-42 137h-245l-47 -137h-147l237 664h161zM509 774h-381v91h381v-91z" />
    <glyph glyph-name="amacron" unicode="&#x101;" horiz-adv-x="481" 
d="M324 187l1 54c-13 -13 -36 -20 -84 -29c-74 -14 -98 -35 -98 -77c0 -37 22 -55 63 -55c67 0 117 49 118 107zM455 0h-121c-4 12 -7 29 -8 44c-31 -34 -83 -57 -149 -57c-112 0 -164 55 -164 135c0 142 95 158 226 176c65 9 83 22 83 56c0 32 -32 51 -83 51
c-59 0 -83 -29 -89 -73h-121c2 102 58 173 216 173c156 0 210 -70 210 -194v-311zM431 602h-381v91h381v-91z" />
    <glyph glyph-name="Abreve" unicode="&#x102;" horiz-adv-x="638" 
d="M402 251l-83 264h-1l-85 -264h169zM635 0h-151l-42 137h-245l-47 -137h-147l237 664h161zM399 918h82c0 -111 -79 -166 -162 -166s-162 55 -162 166h82c2 -55 31 -87 80 -87s78 32 80 87z" />
    <glyph glyph-name="abreve" unicode="&#x103;" horiz-adv-x="481" 
d="M324 187l1 54c-13 -13 -36 -20 -84 -29c-74 -14 -98 -35 -98 -77c0 -37 22 -55 63 -55c67 0 117 49 118 107zM455 0h-121c-4 12 -7 29 -8 44c-31 -34 -83 -57 -149 -57c-112 0 -164 55 -164 135c0 142 95 158 226 176c65 9 83 22 83 56c0 32 -32 51 -83 51
c-59 0 -83 -29 -89 -73h-121c2 102 58 173 216 173c156 0 210 -70 210 -194v-311zM320 746h82c0 -111 -79 -166 -162 -166s-162 55 -162 166h82c2 -55 31 -87 80 -87s78 32 80 87z" />
    <glyph glyph-name="Aogonek" unicode="&#x104;" horiz-adv-x="638" 
d="M635 -117v-90c-19 -15 -51 -26 -105 -26c-72 0 -110 33 -110 85c0 65 68 116 172 148h-108l-42 137h-245l-47 -137h-147l237 664h161l234 -664c-102 -46 -113 -64 -113 -92c0 -22 25 -33 64 -33c19 0 37 4 49 8zM402 251l-83 264h-1l-85 -264h169z" />
    <glyph glyph-name="aogonek" unicode="&#x105;" horiz-adv-x="481" 
d="M455 -117v-90c-19 -15 -51 -26 -105 -26c-72 0 -110 33 -110 85c0 65 68 116 172 148h-78c-4 12 -7 29 -8 44c-31 -34 -83 -57 -149 -57c-112 0 -164 55 -164 135c0 142 95 158 226 176c65 9 83 22 83 56c0 32 -32 51 -83 51c-59 0 -83 -29 -89 -73h-121
c2 102 58 173 216 173c156 0 210 -70 210 -194v-311c-102 -46 -113 -64 -113 -92c0 -22 25 -33 64 -33c19 0 37 4 49 8zM324 187l1 54c-13 -13 -36 -20 -84 -29c-74 -14 -98 -35 -98 -77c0 -37 22 -55 63 -55c67 0 117 49 118 107z" />
    <glyph glyph-name="Cacute" unicode="&#x106;" horiz-adv-x="608" 
d="M469 228h139c-28 -151 -132 -251 -286 -251c-174 0 -307 119 -307 347c0 225 119 362 309 362c166 0 271 -106 284 -240h-139c-19 75 -78 120 -144 120c-115 0 -169 -89 -169 -234c0 -147 54 -234 162 -234c82 0 132 47 151 130zM461 820l-223 -94l-31 55l207 121z" />
    <glyph glyph-name="cacute" unicode="&#x107;" horiz-adv-x="476" 
d="M338 178h131c-14 -114 -107 -191 -226 -191c-134 0 -226 89 -226 265s92 253 230 253c128 0 215 -73 223 -189h-131c-7 51 -44 81 -93 81c-55 0 -100 -35 -100 -142s45 -159 96 -159s91 29 96 82zM395 648l-223 -94l-31 55l207 121z" />
    <glyph glyph-name="Cdotaccent" unicode="&#x10a;" horiz-adv-x="608" 
d="M469 228h139c-28 -151 -132 -251 -286 -251c-174 0 -307 119 -307 347c0 225 119 362 309 362c166 0 271 -106 284 -240h-139c-19 75 -78 120 -144 120c-115 0 -169 -89 -169 -234c0 -147 54 -234 162 -234c82 0 132 47 151 130zM383 751h-130v124h130v-124z" />
    <glyph glyph-name="cdotaccent" unicode="&#x10b;" horiz-adv-x="476" 
d="M338 178h131c-14 -114 -107 -191 -226 -191c-134 0 -226 89 -226 265s92 253 230 253c128 0 215 -73 223 -189h-131c-7 51 -44 81 -93 81c-55 0 -100 -35 -100 -142s45 -159 96 -159s91 29 96 82zM309 579h-130v124h130v-124z" />
    <glyph glyph-name="Ccaron" unicode="&#x10c;" horiz-adv-x="608" 
d="M469 228h139c-28 -151 -132 -251 -286 -251c-174 0 -307 119 -307 347c0 225 119 362 309 362c166 0 271 -106 284 -240h-139c-19 75 -78 120 -144 120c-115 0 -169 -89 -169 -234c0 -147 54 -234 162 -234c82 0 132 47 151 130zM372 733h-106l-128 134l46 51l135 -118
l135 118l46 -51z" />
    <glyph glyph-name="ccaron" unicode="&#x10d;" horiz-adv-x="476" 
d="M338 178h131c-14 -114 -107 -191 -226 -191c-134 0 -226 89 -226 265s92 253 230 253c128 0 215 -73 223 -189h-131c-7 51 -44 81 -93 81c-55 0 -100 -35 -100 -142s45 -159 96 -159s91 29 96 82zM291 561h-106l-128 134l46 51l135 -118l135 118l46 -51z" />
    <glyph glyph-name="Dcaron" unicode="&#x10e;" horiz-adv-x="602" 
d="M158 113h115c121 0 173 76 173 226s-52 210 -185 210h-103v-436zM301 0h-278v664h257c180 0 308 -123 308 -325s-115 -339 -287 -339zM316 733h-106l-128 134l46 51l135 -118l135 118l46 -51z" />
    <glyph glyph-name="dcaron" unicode="&#x10f;" horiz-adv-x="656" 
d="M259 93c62 0 110 58 110 141c0 107 -37 160 -109 160c-76 0 -112 -51 -112 -152c0 -88 46 -149 111 -149zM492 0h-125l-1 60c-31 -50 -77 -73 -137 -73c-124 0 -213 98 -213 264c0 149 75 254 202 254c61 0 109 -25 146 -77v244h128v-672zM518 400v50c51 13 76 43 77 106
h-77v135h138v-102c0 -113 -34 -167 -138 -189z" />
    <glyph glyph-name="Dcroat" unicode="&#x110;" horiz-adv-x="602" 
d="M301 0h-278v282h-23v99h23v283h257c180 0 308 -123 308 -325s-115 -339 -287 -339zM158 113h115c121 0 173 76 173 226s-52 210 -185 210h-103v-168h107v-99h-107v-169z" />
    <glyph glyph-name="dcroat" unicode="&#x111;" horiz-adv-x="518" 
d="M492 0h-125l-1 60c-31 -50 -77 -73 -137 -73c-124 0 -213 98 -213 264c0 149 75 254 202 254c61 0 109 -25 146 -77v105h-167v91h167v48h128v-48h26v-91h-26v-533zM259 93c62 0 110 58 110 141c0 107 -37 160 -109 160c-76 0 -112 -51 -112 -152c0 -88 46 -149 111 -149z
" />
    <glyph glyph-name="Emacron" unicode="&#x112;" horiz-adv-x="527" 
d="M527 0h-504v664h488v-116h-353v-142h325v-117h-325v-171h369v-118zM454 774h-381v91h381v-91z" />
    <glyph glyph-name="emacron" unicode="&#x113;" 
d="M149 294h201c-2 73 -50 108 -101 108c-52 0 -95 -40 -100 -108zM484 212h-339c4 -74 46 -122 110 -122c42 0 79 21 88 55h134c-30 -101 -111 -158 -216 -158c-164 0 -246 90 -246 268c0 152 87 250 238 250s231 -98 231 -293zM439 602h-381v91h381v-91z" />
    <glyph glyph-name="Ebreve" unicode="&#x114;" horiz-adv-x="527" 
d="M527 0h-504v664h488v-116h-353v-142h325v-117h-325v-171h369v-118zM343 918h82c0 -111 -79 -166 -162 -166s-162 55 -162 166h82c2 -55 31 -87 80 -87s78 32 80 87z" />
    <glyph glyph-name="ebreve" unicode="&#x115;" 
d="M149 294h201c-2 73 -50 108 -101 108c-52 0 -95 -40 -100 -108zM484 212h-339c4 -74 46 -122 110 -122c42 0 79 21 88 55h134c-30 -101 -111 -158 -216 -158c-164 0 -246 90 -246 268c0 152 87 250 238 250s231 -98 231 -293zM329 746h82c0 -111 -79 -166 -162 -166
s-162 55 -162 166h82c2 -55 31 -87 80 -87s78 32 80 87z" />
    <glyph glyph-name="Edotaccent" unicode="&#x116;" horiz-adv-x="527" 
d="M527 0h-504v664h488v-116h-353v-142h325v-117h-325v-171h369v-118zM338 751h-130v124h130v-124z" />
    <glyph glyph-name="edotaccent" unicode="&#x117;" 
d="M149 294h201c-2 73 -50 108 -101 108c-52 0 -95 -40 -100 -108zM484 212h-339c4 -74 46 -122 110 -122c42 0 79 21 88 55h134c-30 -101 -111 -158 -216 -158c-164 0 -246 90 -246 268c0 152 87 250 238 250s231 -98 231 -293zM319 579h-130v124h130v-124z" />
    <glyph glyph-name="Eogonek" unicode="&#x118;" horiz-adv-x="527" 
d="M527 -117v-90c-19 -15 -51 -26 -105 -26c-72 0 -110 33 -110 85c0 65 68 116 172 148h-461v664h488v-116h-353v-142h325v-117h-325v-171h369v-118c-102 -46 -113 -64 -113 -92c0 -22 25 -33 64 -33c19 0 37 4 49 8z" />
    <glyph glyph-name="eogonek" unicode="&#x119;" 
d="M343 -117v-90c-19 -15 -51 -26 -105 -26c-72 0 -110 33 -110 85c0 57 51 103 134 135h-1c-164 0 -246 90 -246 268c0 152 87 250 238 250s231 -98 231 -293h-339c4 -74 46 -122 110 -122c42 0 79 21 88 55h134c-22 -73 -70 -123 -134 -145c-102 -46 -113 -64 -113 -92
c0 -22 25 -33 64 -33c19 0 37 4 49 8zM149 294h201c-2 73 -50 108 -101 108c-52 0 -95 -40 -100 -108z" />
    <glyph glyph-name="Ecaron" unicode="&#x11a;" horiz-adv-x="527" 
d="M527 0h-504v664h488v-116h-353v-142h325v-117h-325v-171h369v-118zM316 733h-106l-128 134l46 51l135 -118l135 118l46 -51z" />
    <glyph glyph-name="ecaron" unicode="&#x11b;" 
d="M149 294h201c-2 73 -50 108 -101 108c-52 0 -95 -40 -100 -108zM484 212h-339c4 -74 46 -122 110 -122c42 0 79 21 88 55h134c-30 -101 -111 -158 -216 -158c-164 0 -246 90 -246 268c0 152 87 250 238 250s231 -98 231 -293zM302 561h-106l-128 134l46 51l135 -118
l135 118l46 -51z" />
    <glyph glyph-name="Gbreve" unicode="&#x11e;" horiz-adv-x="659" 
d="M633 0h-115l-3 66c-32 -56 -108 -89 -199 -89c-184 0 -301 171 -301 356c0 196 112 353 327 353c158 0 280 -94 290 -227h-140c-7 62 -74 112 -150 112c-111 0 -185 -86 -185 -244c0 -109 55 -233 184 -233c91 0 162 69 162 152h-147v111h277v-357zM419 918h82
c0 -111 -79 -166 -162 -166s-162 55 -162 166h82c2 -55 31 -87 80 -87s78 32 80 87z" />
    <glyph glyph-name="gbreve" unicode="&#x11f;" horiz-adv-x="525" 
d="M262 98c63 0 111 53 111 136c0 107 -37 158 -111 158c-73 0 -111 -49 -111 -150c0 -88 47 -144 111 -144zM369 -15v81c-18 -44 -71 -70 -135 -70c-162 0 -218 124 -218 253c0 153 96 256 215 256c62 0 107 -24 138 -74v61h130v-497c0 -148 -108 -228 -245 -228
s-238 79 -238 206h121c0 -59 43 -94 108 -94c69 0 124 41 124 106zM325 746h82c0 -111 -79 -166 -162 -166s-162 55 -162 166h82c2 -55 31 -87 80 -87s78 32 80 87z" />
    <glyph glyph-name="Gdotaccent" unicode="&#x120;" horiz-adv-x="659" 
d="M633 0h-115l-3 66c-32 -56 -108 -89 -199 -89c-184 0 -301 171 -301 356c0 196 112 353 327 353c158 0 280 -94 290 -227h-140c-7 62 -74 112 -150 112c-111 0 -185 -86 -185 -244c0 -109 55 -233 184 -233c91 0 162 69 162 152h-147v111h277v-357zM404 751h-130v124h130
v-124z" />
    <glyph glyph-name="gdotaccent" unicode="&#x121;" horiz-adv-x="525" 
d="M262 98c63 0 111 53 111 136c0 107 -37 158 -111 158c-73 0 -111 -49 -111 -150c0 -88 47 -144 111 -144zM369 -15v81c-18 -44 -71 -70 -135 -70c-162 0 -218 124 -218 253c0 153 96 256 215 256c62 0 107 -24 138 -74v61h130v-497c0 -148 -108 -228 -245 -228
s-238 79 -238 206h121c0 -59 43 -94 108 -94c69 0 124 41 124 106zM315 579h-130v124h130v-124z" />
    <glyph glyph-name="Gcommaaccent" unicode="&#x122;" horiz-adv-x="659" 
d="M633 0h-115l-3 66c-32 -56 -108 -89 -199 -89c-184 0 -301 171 -301 356c0 196 112 353 327 353c158 0 280 -94 290 -227h-140c-7 62 -74 112 -150 112c-111 0 -185 -86 -185 -244c0 -109 55 -233 184 -233c91 0 162 69 162 152h-147v111h277v-357zM272 -233v43
c41 3 63 26 64 65h-64v82h115v-54c0 -72 -26 -128 -115 -136z" />
    <glyph glyph-name="gcommaaccent" unicode="&#x123;" horiz-adv-x="525" 
d="M262 98c63 0 111 53 111 136c0 107 -37 158 -111 158c-73 0 -111 -49 -111 -150c0 -88 47 -144 111 -144zM369 -15v81c-18 -44 -71 -70 -135 -70c-162 0 -218 124 -218 253c0 153 96 256 215 256c62 0 107 -24 138 -74v61h130v-497c0 -148 -108 -228 -245 -228
s-238 79 -238 206h121c0 -59 43 -94 108 -94c69 0 124 41 124 106zM320 729v-43c-41 -3 -63 -26 -64 -65h64v-82h-115v54c0 72 26 128 115 136z" />
    <glyph glyph-name="Hbar" unicode="&#x126;" horiz-adv-x="582" 
d="M561 0h-140v298h-259v-298h-139v664h139v-80h259v80h140v-664zM162 414h259v79h-259v-79z" />
    <glyph glyph-name="hbar" unicode="&#x127;" 
d="M321 538h-165v-110c19 44 79 77 145 77c101 0 171 -59 171 -157v-348h-131v305c0 74 -25 97 -84 97c-65 0 -101 -54 -101 -120v-282h-130v538h-26v91h26v43h130v-43h165v-91z" />
    <glyph glyph-name="Itilde" unicode="&#x128;" horiz-adv-x="184" 
d="M162 0h-139v664h139v-664zM190 873l75 -27c-22 -72 -66 -98 -109 -98c-51 0 -85 45 -128 45c-8 0 -27 -7 -39 -44l-69 37c21 65 56 88 97 88c61 0 95 -48 133 -48c12 0 34 12 40 47z" />
    <glyph glyph-name="itilde" unicode="&#x129;" horiz-adv-x="268" 
d="M199 0h-130v492h130v-492zM232 701l75 -27c-22 -72 -66 -98 -109 -98c-51 0 -85 45 -128 45c-8 0 -27 -7 -39 -44l-69 37c21 65 56 88 97 88c61 0 95 -48 133 -48c12 0 34 12 40 47z" />
    <glyph glyph-name="uni012A" unicode="&#x12a;" horiz-adv-x="184" 
d="M162 0h-139v664h139v-664zM283 774h-381v91h381v-91z" />
    <glyph glyph-name="imacron" unicode="&#x12b;" horiz-adv-x="268" 
d="M199 0h-130v492h130v-492zM325 602h-381v91h381v-91z" />
    <glyph glyph-name="Ibreve" unicode="&#x12c;" horiz-adv-x="184" 
d="M162 0h-139v664h139v-664zM172 918h82c0 -111 -79 -166 -162 -166s-162 55 -162 166h82c2 -55 31 -87 80 -87s78 32 80 87z" />
    <glyph glyph-name="ibreve" unicode="&#x12d;" horiz-adv-x="268" 
d="M199 0h-130v492h130v-492zM214 746h82c0 -111 -79 -166 -162 -166s-162 55 -162 166h82c2 -55 31 -87 80 -87s78 32 80 87z" />
    <glyph glyph-name="Iogonek" unicode="&#x12e;" horiz-adv-x="184" 
d="M162 -117v-90c-19 -15 -51 -26 -105 -26c-72 0 -110 33 -110 85c0 65 68 116 172 148h-96v664h139v-664c-102 -46 -113 -64 -113 -92c0 -22 25 -33 64 -33c19 0 37 4 49 8z" />
    <glyph glyph-name="iogonek" unicode="&#x12f;" horiz-adv-x="188" 
d="M159 -117v-90c-19 -15 -51 -26 -105 -26c-72 0 -110 33 -110 85c0 65 68 116 172 148h-87v492h130v-492c-102 -46 -113 -64 -113 -92c0 -22 25 -33 64 -33c19 0 37 4 49 8zM159 551h-130v121h130v-121z" />
    <glyph glyph-name="Idotaccent" unicode="&#x130;" horiz-adv-x="184" 
d="M162 0h-139v664h139v-664zM157 751h-130v124h130v-124z" />
    <glyph glyph-name="dotlessi" unicode="&#x131;" horiz-adv-x="188" 
d="M159 0h-130v492h130v-492z" />
    <glyph glyph-name="IJ" unicode="&#x132;" horiz-adv-x="633" 
d="M162 0h-139v664h139v-664zM472 192v472h139v-485c0 -121 -75 -202 -218 -202c-128 0 -205 70 -205 206v68h126v-61c0 -67 22 -100 79 -100c64 0 79 29 79 102z" />
    <glyph glyph-name="ij" unicode="&#x133;" horiz-adv-x="376" 
d="M159 0h-130v492h130v-492zM159 551h-130v121h130v-121zM219 -28v520h131v-525c0 -119 -84 -200 -194 -200c-135 0 -198 79 -198 206h122c0 -56 18 -91 69 -91c52 0 70 34 70 90zM350 551h-131v121h131v-121z" />
    <glyph glyph-name="Kcommaaccent" unicode="&#x136;" horiz-adv-x="600" 
d="M600 0h-169l-197 299l-74 -73v-226h-137v664h137v-270l254 270h180l-262 -262zM252 -233v43c41 3 63 26 64 65h-64v82h115v-54c0 -72 -26 -128 -115 -136z" />
    <glyph glyph-name="kcommaaccent" unicode="&#x137;" horiz-adv-x="478" 
d="M474 0h-146l-108 221l-63 -65v-156h-131v672h131v-367l162 187h159l-165 -181zM191 -233v43c41 3 63 26 64 65h-64v82h115v-54c0 -72 -26 -128 -115 -136z" />
    <glyph glyph-name="Lacute" unicode="&#x139;" horiz-adv-x="496" 
d="M491 0h-468v664h139v-543h329v-121zM255 820l-223 -94l-31 55l207 121z" />
    <glyph glyph-name="lacute" unicode="&#x13a;" horiz-adv-x="181" 
d="M156 0h-130v672h130v-672zM248 820l-223 -94l-31 55l207 121z" />
    <glyph glyph-name="Lcommaaccent" unicode="&#x13b;" horiz-adv-x="496" 
d="M491 0h-468v664h139v-543h329v-121zM200 -233v43c41 3 63 26 64 65h-64v82h115v-54c0 -72 -26 -128 -115 -136z" />
    <glyph glyph-name="lcommaaccent" unicode="&#x13c;" horiz-adv-x="181" 
d="M156 0h-130v672h130v-672zM33 -233v43c41 3 63 26 64 65h-64v82h115v-54c0 -72 -26 -128 -115 -136z" />
    <glyph glyph-name="Lcaron" unicode="&#x13d;" horiz-adv-x="496" 
d="M491 0h-468v664h139v-543h329v-121zM198 400v50c51 13 76 43 77 106h-77v135h138v-102c0 -113 -34 -167 -138 -189z" />
    <glyph glyph-name="lcaron" unicode="&#x13e;" horiz-adv-x="319" 
d="M156 0h-130v672h130v-672zM181 400v50c51 13 76 43 77 106h-77v135h138v-102c0 -113 -34 -167 -138 -189z" />
    <glyph glyph-name="Ldot" unicode="&#x13f;" horiz-adv-x="496" 
d="M491 0h-468v664h139v-543h329v-121zM320 313h-130v124h130v-124z" />
    <glyph glyph-name="ldot" unicode="&#x140;" horiz-adv-x="311" 
d="M156 0h-130v672h130v-672zM311 279h-130v124h130v-124z" />
    <glyph glyph-name="Lslash" unicode="&#x141;" horiz-adv-x="496" 
d="M491 0h-468v664h139v-287l141 63v-89l-141 -63v-167h329v-121z" />
    <glyph glyph-name="lslash" unicode="&#x142;" horiz-adv-x="255" 
d="M192 0h-130v266l-62 -27v88l62 27v318h130v-261l63 29v-89l-63 -28v-323z" />
    <glyph glyph-name="Nacute" unicode="&#x143;" horiz-adv-x="586" 
d="M564 0h-128l-284 446v-446h-129v664h147l264 -427v427h130v-664zM450 820l-223 -94l-31 55l207 121z" />
    <glyph glyph-name="nacute" unicode="&#x144;" 
d="M472 0h-131v298c0 76 -22 97 -84 97c-68 0 -101 -38 -101 -113v-282h-130v492h124v-72c30 55 80 85 159 85c94 0 163 -57 163 -164v-341zM406 648l-223 -94l-31 55l207 121z" />
    <glyph glyph-name="Ncommaaccent" unicode="&#x145;" horiz-adv-x="586" 
d="M564 0h-128l-284 446v-446h-129v664h147l264 -427v427h130v-664zM245 -233v43c41 3 63 26 64 65h-64v82h115v-54c0 -72 -26 -128 -115 -136z" />
    <glyph glyph-name="ncommaaccent" unicode="&#x146;" 
d="M472 0h-131v298c0 76 -22 97 -84 97c-68 0 -101 -38 -101 -113v-282h-130v492h124v-72c30 55 80 85 159 85c94 0 163 -57 163 -164v-341zM201 -233v43c41 3 63 26 64 65h-64v82h115v-54c0 -72 -26 -128 -115 -136z" />
    <glyph glyph-name="Ncaron" unicode="&#x147;" horiz-adv-x="586" 
d="M564 0h-128l-284 446v-446h-129v664h147l264 -427v427h130v-664zM346 733h-106l-128 134l46 51l135 -118l135 118l46 -51z" />
    <glyph glyph-name="ncaron" unicode="&#x148;" 
d="M472 0h-131v298c0 76 -22 97 -84 97c-68 0 -101 -38 -101 -113v-282h-130v492h124v-72c30 55 80 85 159 85c94 0 163 -57 163 -164v-341zM312 561h-106l-128 134l46 51l135 -118l135 118l46 -51z" />
    <glyph glyph-name="Eng" unicode="&#x14a;" horiz-adv-x="586" 
d="M434 -28v31l-282 443v-446h-129v664h147l264 -427v427h130v-697c0 -119 -84 -200 -194 -200c-9 0 -16 1 -24 1v116c5 -1 11 -2 17 -2c52 0 71 34 71 90z" />
    <glyph glyph-name="eng" unicode="&#x14b;" 
d="M341 -28v337c-2 67 -25 86 -84 86c-68 0 -101 -38 -101 -113v-282h-130v492h124v-72c30 55 80 85 159 85c94 0 163 -57 163 -164v-374c0 -119 -84 -200 -194 -200c-8 0 -15 1 -22 1v115c4 0 9 -1 15 -1c52 0 70 34 70 90z" />
    <glyph glyph-name="Omacron" unicode="&#x14c;" horiz-adv-x="666" 
d="M334 96c100 0 180 70 180 227s-64 240 -180 240c-117 0 -182 -83 -182 -240s67 -227 182 -227zM334 -23c-204 0 -319 125 -319 349c0 225 115 360 319 360s317 -135 317 -363s-113 -346 -317 -346zM523 774h-381v91h381v-91z" />
    <glyph glyph-name="omacron" unicode="&#x14d;" horiz-adv-x="534" 
d="M268 96c79 0 119 50 119 150s-40 149 -119 149s-119 -49 -119 -149s40 -150 119 -150zM268 -13c-159 0 -253 106 -253 259c0 156 97 259 253 259c154 0 250 -102 250 -259c0 -156 -97 -259 -250 -259zM457 602h-381v91h381v-91z" />
    <glyph glyph-name="Obreve" unicode="&#x14e;" horiz-adv-x="666" 
d="M334 96c100 0 180 70 180 227s-64 240 -180 240c-117 0 -182 -83 -182 -240s67 -227 182 -227zM334 -23c-204 0 -319 125 -319 349c0 225 115 360 319 360s317 -135 317 -363s-113 -346 -317 -346zM413 918h82c0 -111 -79 -166 -162 -166s-162 55 -162 166h82
c2 -55 31 -87 80 -87s78 32 80 87z" />
    <glyph glyph-name="obreve" unicode="&#x14f;" horiz-adv-x="534" 
d="M268 96c79 0 119 50 119 150s-40 149 -119 149s-119 -49 -119 -149s40 -150 119 -150zM268 -13c-159 0 -253 106 -253 259c0 156 97 259 253 259c154 0 250 -102 250 -259c0 -156 -97 -259 -250 -259zM347 746h82c0 -111 -79 -166 -162 -166s-162 55 -162 166h82
c2 -55 31 -87 80 -87s78 32 80 87z" />
    <glyph glyph-name="Ohungarumlaut" unicode="&#x150;" horiz-adv-x="666" 
d="M334 96c100 0 180 70 180 227s-64 240 -180 240c-117 0 -182 -83 -182 -240s67 -227 182 -227zM334 -23c-204 0 -319 125 -319 349c0 225 115 360 319 360s317 -135 317 -363s-113 -346 -317 -346zM246 741l-37 33l136 147l44 -37zM516 881l-150 -140l-37 33l142 144z
" />
    <glyph glyph-name="ohungarumlaut" unicode="&#x151;" horiz-adv-x="534" 
d="M268 96c79 0 119 50 119 150s-40 149 -119 149s-119 -49 -119 -149s40 -150 119 -150zM268 -13c-159 0 -253 106 -253 259c0 156 97 259 253 259c154 0 250 -102 250 -259c0 -156 -97 -259 -250 -259zM190 569l-37 33l136 147l44 -37zM460 709l-150 -140l-37 33l142 144z
" />
    <glyph glyph-name="OE" unicode="&#x152;" horiz-adv-x="1021" 
d="M1021 0h-505v24c-47 -30 -106 -47 -174 -47c-211 0 -327 141 -327 372c0 197 128 337 320 337c69 0 130 -21 181 -55v33h488v-116h-353v-142h325v-117h-325v-171h370v-118zM345 96c100 0 169 93 169 224c0 161 -61 243 -184 243c-109 0 -178 -94 -178 -223
c0 -136 78 -244 193 -244z" />
    <glyph glyph-name="oe" unicode="&#x153;" horiz-adv-x="860" 
d="M846 212h-339c4 -74 46 -122 110 -122c42 0 79 21 88 55h134c-30 -101 -111 -158 -216 -158c-80 0 -140 21 -181 63c-43 -41 -102 -63 -174 -63c-159 0 -253 106 -253 259c0 156 97 259 253 259c73 0 132 -23 175 -64c41 41 99 64 172 64c151 0 231 -98 231 -293zM268 96
c79 0 119 50 119 150s-40 149 -119 149s-119 -49 -119 -149s40 -150 119 -150zM511 294h201c-2 73 -50 108 -101 108c-52 0 -95 -40 -100 -108z" />
    <glyph glyph-name="Racute" unicode="&#x154;" horiz-adv-x="573" 
d="M337 549h-179v-177h174c74 0 102 37 102 88c0 52 -28 89 -97 89zM546 0h-136v171c0 64 -24 89 -104 89h-148v-260h-135v664h337c123 0 204 -82 204 -192c0 -71 -35 -131 -99 -154c59 -19 81 -52 81 -130v-188zM443 820l-223 -94l-31 55l207 121z" />
    <glyph glyph-name="racute" unicode="&#x155;" horiz-adv-x="315" 
d="M156 0h-130v492h122v-59c43 66 93 72 146 72h17v-133c-12 2 -24 3 -36 3c-80 0 -119 -40 -119 -119v-256zM314 648l-223 -94l-31 55l207 121z" />
    <glyph glyph-name="Rcommaaccent" unicode="&#x156;" horiz-adv-x="573" 
d="M337 549h-179v-177h174c74 0 102 37 102 88c0 52 -28 89 -97 89zM546 0h-136v171c0 64 -24 89 -104 89h-148v-260h-135v664h337c123 0 204 -82 204 -192c0 -71 -35 -131 -99 -154c59 -19 81 -52 81 -130v-188zM229 -233v43c41 3 63 26 64 65h-64v82h115v-54
c0 -72 -26 -128 -115 -136z" />
    <glyph glyph-name="rcommaaccent" unicode="&#x157;" horiz-adv-x="315" 
d="M156 0h-130v492h122v-59c43 66 93 72 146 72h17v-133c-12 2 -24 3 -36 3c-80 0 -119 -40 -119 -119v-256zM38 -233v43c41 3 63 26 64 65h-64v82h115v-54c0 -72 -26 -128 -115 -136z" />
    <glyph glyph-name="Rcaron" unicode="&#x158;" horiz-adv-x="573" 
d="M337 549h-179v-177h174c74 0 102 37 102 88c0 52 -28 89 -97 89zM546 0h-136v171c0 64 -24 89 -104 89h-148v-260h-135v664h337c123 0 204 -82 204 -192c0 -71 -35 -131 -99 -154c59 -19 81 -52 81 -130v-188zM329 733h-106l-128 134l46 51l135 -118l135 118l46 -51z" />
    <glyph glyph-name="rcaron" unicode="&#x159;" horiz-adv-x="315" 
d="M156 0h-130v492h122v-59c43 66 93 72 146 72h17v-133c-12 2 -24 3 -36 3c-80 0 -119 -40 -119 -119v-256zM211 561h-106l-128 134l46 51l135 -118l135 118l46 -51z" />
    <glyph glyph-name="Sacute" unicode="&#x15a;" horiz-adv-x="558" 
d="M531 468h-132c-7 68 -48 101 -133 101c-77 0 -118 -27 -118 -81c0 -38 31 -64 103 -81c85 -20 145 -36 197 -58c60 -25 104 -66 104 -172c0 -127 -114 -200 -251 -200c-192 0 -290 76 -295 222h134c1 -67 62 -110 143 -110c87 0 134 35 134 89c0 44 -18 71 -103 89
c-203 43 -293 79 -293 222c0 110 81 197 245 197c160 0 260 -87 265 -218zM436 820l-223 -94l-31 55l207 121z" />
    <glyph glyph-name="sacute" unicode="&#x15b;" horiz-adv-x="467" 
d="M447 343h-125c-6 45 -32 65 -88 65c-53 0 -81 -11 -81 -42c0 -27 28 -41 80 -55c172 -47 228 -56 228 -171c0 -88 -75 -153 -218 -153c-141 0 -232 67 -234 171h134c0 -46 41 -73 99 -73c49 0 90 15 90 47c0 36 -26 48 -79 60c-191 42 -226 91 -226 174
c0 74 57 139 211 139c141 0 203 -61 209 -162zM390 648l-223 -94l-31 55l207 121z" />
    <glyph glyph-name="Scedilla" unicode="&#x15e;" horiz-adv-x="558" 
d="M531 468h-132c-7 68 -48 101 -133 101c-77 0 -118 -27 -118 -81c0 -38 31 -64 103 -81c85 -20 145 -36 197 -58c60 -25 104 -66 104 -172c0 -127 -114 -200 -251 -200c-192 0 -290 76 -295 222h134c1 -67 62 -110 143 -110c87 0 134 35 134 89c0 44 -18 71 -103 89
c-203 43 -293 79 -293 222c0 110 81 197 245 197c160 0 260 -87 265 -218zM231 -233v43c41 3 63 26 64 65h-64v82h115v-54c0 -72 -26 -128 -115 -136z" />
    <glyph glyph-name="scedilla" unicode="&#x15f;" horiz-adv-x="467" 
d="M447 343h-125c-6 45 -32 65 -88 65c-53 0 -81 -11 -81 -42c0 -27 28 -41 80 -55c172 -47 228 -56 228 -171c0 -88 -75 -153 -218 -153c-141 0 -232 67 -234 171h134c0 -46 41 -73 99 -73c49 0 90 15 90 47c0 36 -26 48 -79 60c-191 42 -226 91 -226 174
c0 74 57 139 211 139c141 0 203 -61 209 -162zM186 -233v43c41 3 63 26 64 65h-64v82h115v-54c0 -72 -26 -128 -115 -136z" />
    <glyph glyph-name="Scaron" unicode="&#x160;" horiz-adv-x="558" 
d="M531 468h-132c-7 68 -48 101 -133 101c-77 0 -118 -27 -118 -81c0 -38 31 -64 103 -81c85 -20 145 -36 197 -58c60 -25 104 -66 104 -172c0 -127 -114 -200 -251 -200c-192 0 -290 76 -295 222h134c1 -67 62 -110 143 -110c87 0 134 35 134 89c0 44 -18 71 -103 89
c-203 43 -293 79 -293 222c0 110 81 197 245 197c160 0 260 -87 265 -218zM332 733h-106l-128 134l46 51l135 -118l135 118l46 -51z" />
    <glyph glyph-name="scaron" unicode="&#x161;" horiz-adv-x="467" 
d="M447 343h-125c-6 45 -32 65 -88 65c-53 0 -81 -11 -81 -42c0 -27 28 -41 80 -55c172 -47 228 -56 228 -171c0 -88 -75 -153 -218 -153c-141 0 -232 67 -234 171h134c0 -46 41 -73 99 -73c49 0 90 15 90 47c0 36 -26 48 -79 60c-191 42 -226 91 -226 174
c0 74 57 139 211 139c141 0 203 -61 209 -162zM286 561h-106l-128 134l46 51l135 -118l135 118l46 -51z" />
    <glyph glyph-name="Tcommaaccent" unicode="&#x162;" horiz-adv-x="549" 
d="M343 0h-139v548h-200v116h540v-116h-201v-548zM217 -233v43c41 3 63 26 64 65h-64v82h115v-54c0 -72 -26 -128 -115 -136z" />
    <glyph glyph-name="tcommaaccent" unicode="&#x163;" horiz-adv-x="447" 
d="M305 196v128h121v-140c0 -104 -60 -197 -199 -197c-144 0 -201 92 -201 198v440h128v-133h272v-92h-272v-202c0 -62 22 -98 75 -98c52 0 76 35 76 96zM166 -233v43c41 3 63 26 64 65h-64v82h115v-54c0 -72 -26 -128 -115 -136z" />
    <glyph glyph-name="Tcaron" unicode="&#x164;" horiz-adv-x="549" 
d="M343 0h-139v548h-200v116h540v-116h-201v-548zM327 733h-106l-128 134l46 51l135 -118l135 118l46 -51z" />
    <glyph glyph-name="tcaron" unicode="&#x165;" horiz-adv-x="585" 
d="M305 196v128h121v-140c0 -104 -60 -197 -199 -197c-144 0 -201 92 -201 198v440h128v-133h272v-92h-272v-202c0 -62 22 -98 75 -98c52 0 76 35 76 96zM447 400v50c51 13 76 43 77 106h-77v135h138v-102c0 -113 -34 -167 -138 -189z" />
    <glyph glyph-name="Tbar" unicode="&#x166;" horiz-adv-x="549" 
d="M343 0h-139v248h-94v101h94v199h-200v116h540v-116h-201v-199h95v-101h-95v-248z" />
    <glyph glyph-name="tbar" unicode="&#x167;" horiz-adv-x="447" 
d="M419 261h-265v-63c0 -62 22 -98 75 -98c52 0 76 35 76 96v18h121v-30c0 -104 -60 -197 -199 -197c-144 0 -201 92 -201 198v440h128v-133h272v-92h-272v-52h265v-87z" />
    <glyph glyph-name="Utilde" unicode="&#x168;" horiz-adv-x="581" 
d="M416 221v443h142v-443c0 -161 -99 -244 -273 -244c-161 0 -262 76 -262 236v451h141v-438c0 -82 44 -134 119 -134c89 0 133 42 133 129zM388 873l75 -27c-22 -72 -66 -98 -109 -98c-51 0 -85 45 -128 45c-8 0 -27 -7 -39 -44l-69 37c21 65 56 88 97 88
c61 0 95 -48 133 -48c12 0 34 12 40 47z" />
    <glyph glyph-name="utilde" unicode="&#x169;" horiz-adv-x="495" 
d="M469 0h-123v69c-34 -56 -85 -82 -153 -82c-98 0 -167 73 -167 181v324h130v-304c0 -62 28 -92 83 -92c66 0 101 47 101 112v284h129v-492zM345 701l75 -27c-22 -72 -66 -98 -109 -98c-51 0 -85 45 -128 45c-8 0 -27 -7 -39 -44l-69 37c21 65 56 88 97 88
c61 0 95 -48 133 -48c12 0 34 12 40 47z" />
    <glyph glyph-name="Umacron" unicode="&#x16a;" horiz-adv-x="581" 
d="M416 221v443h142v-443c0 -161 -99 -244 -273 -244c-161 0 -262 76 -262 236v451h141v-438c0 -82 44 -134 119 -134c89 0 133 42 133 129zM481 774h-381v91h381v-91z" />
    <glyph glyph-name="umacron" unicode="&#x16b;" horiz-adv-x="495" 
d="M469 0h-123v69c-34 -56 -85 -82 -153 -82c-98 0 -167 73 -167 181v324h130v-304c0 -62 28 -92 83 -92c66 0 101 47 101 112v284h129v-492zM438 602h-381v91h381v-91z" />
    <glyph glyph-name="Ubreve" unicode="&#x16c;" horiz-adv-x="581" 
d="M416 221v443h142v-443c0 -161 -99 -244 -273 -244c-161 0 -262 76 -262 236v451h141v-438c0 -82 44 -134 119 -134c89 0 133 42 133 129zM370 918h82c0 -111 -79 -166 -162 -166s-162 55 -162 166h82c2 -55 31 -87 80 -87s78 32 80 87z" />
    <glyph glyph-name="ubreve" unicode="&#x16d;" horiz-adv-x="495" 
d="M469 0h-123v69c-34 -56 -85 -82 -153 -82c-98 0 -167 73 -167 181v324h130v-304c0 -62 28 -92 83 -92c66 0 101 47 101 112v284h129v-492zM337 746h82c0 -111 -79 -166 -162 -166s-162 55 -162 166h82c2 -55 31 -87 80 -87s78 32 80 87z" />
    <glyph glyph-name="Uring" unicode="&#x16e;" horiz-adv-x="581" 
d="M416 221v443h142v-443c0 -161 -99 -244 -273 -244c-161 0 -262 76 -262 236v451h141v-438c0 -82 44 -134 119 -134c89 0 133 42 133 129zM394 822c0 -62 -30 -96 -104 -96c-69 0 -104 32 -104 96c0 61 34 96 104 96c74 0 104 -35 104 -96zM342 822c0 33 -17 51 -52 51
c-34 0 -50 -18 -50 -51c0 -31 16 -49 50 -49c35 0 52 18 52 49z" />
    <glyph glyph-name="uring" unicode="&#x16f;" horiz-adv-x="495" 
d="M469 0h-123v69c-34 -56 -85 -82 -153 -82c-98 0 -167 73 -167 181v324h130v-304c0 -62 28 -92 83 -92c66 0 101 47 101 112v284h129v-492zM361 650c0 -62 -30 -96 -104 -96c-69 0 -104 32 -104 96c0 61 34 96 104 96c74 0 104 -35 104 -96zM309 650c0 33 -17 51 -52 51
c-34 0 -50 -18 -50 -51c0 -31 16 -49 50 -49c35 0 52 18 52 49z" />
    <glyph glyph-name="Uhungarumlaut" unicode="&#x170;" horiz-adv-x="581" 
d="M416 221v443h142v-443c0 -161 -99 -244 -273 -244c-161 0 -262 76 -262 236v451h141v-438c0 -82 44 -134 119 -134c89 0 133 42 133 129zM204 741l-37 33l136 147l44 -37zM474 881l-150 -140l-37 33l142 144z" />
    <glyph glyph-name="uhungarumlaut" unicode="&#x171;" horiz-adv-x="495" 
d="M469 0h-123v69c-34 -56 -85 -82 -153 -82c-98 0 -167 73 -167 181v324h130v-304c0 -62 28 -92 83 -92c66 0 101 47 101 112v284h129v-492zM171 569l-37 33l136 147l44 -37zM441 709l-150 -140l-37 33l142 144z" />
    <glyph glyph-name="Uogonek" unicode="&#x172;" horiz-adv-x="581" 
d="M422 -117v-90c-19 -15 -51 -26 -105 -26c-72 0 -110 33 -110 85s43 95 113 127c-11 -1 -23 -2 -35 -2c-161 0 -262 76 -262 236v451h141v-438c0 -82 44 -134 119 -134c89 0 133 42 133 129v443h142v-443c0 -114 -49 -188 -139 -222c-99 -45 -110 -63 -110 -91
c0 -22 25 -33 64 -33c19 0 37 4 49 8z" />
    <glyph glyph-name="uogonek" unicode="&#x173;" horiz-adv-x="495" 
d="M469 -117v-90c-19 -15 -51 -26 -105 -26c-72 0 -110 33 -110 85c0 65 68 116 172 148h-80v69c-34 -56 -85 -82 -153 -82c-98 0 -167 73 -167 181v324h130v-304c0 -62 28 -92 83 -92c66 0 101 47 101 112v284h129v-492c-102 -46 -113 -64 -113 -92c0 -22 25 -33 64 -33
c19 0 37 4 49 8z" />
    <glyph glyph-name="Wcircumflex" unicode="&#x174;" horiz-adv-x="852" 
d="M663 0h-134l-103 432l-105 -432h-130l-188 664h148l109 -430l92 430h146l101 -430l108 430h142zM561 733l-135 118l-135 -118l-46 51l128 134h106l128 -134z" />
    <glyph glyph-name="wcircumflex" unicode="&#x175;" horiz-adv-x="710" 
d="M565 0h-133l-78 286l-78 -286h-133l-140 492h137l80 -316l68 316h132l77 -316l75 316h134zM490 561l-135 118l-135 -118l-46 51l128 134h106l128 -134z" />
    <glyph glyph-name="Ycircumflex" unicode="&#x176;" horiz-adv-x="597" 
d="M372 0h-139v251l-230 413h162l140 -270l129 270h160l-222 -415v-249zM441 733l-135 118l-135 -118l-46 51l128 134h106l128 -134z" />
    <glyph glyph-name="ycircumflex" unicode="&#x177;" horiz-adv-x="495" 
d="M339 -15v80c-18 -44 -72 -70 -133 -70c-103 0 -180 70 -180 178v319h130v-300c0 -61 28 -92 83 -92c59 0 100 39 100 92v300h130v-505c0 -139 -100 -220 -226 -220c-144 0 -217 79 -217 206h121c0 -58 34 -94 102 -94c47 0 90 41 90 106zM382 561l-135 118l-135 -118
l-46 51l128 134h106l128 -134z" />
    <glyph glyph-name="Ydieresis" unicode="&#x178;" horiz-adv-x="597" 
d="M372 0h-139v251l-230 413h162l140 -270l129 270h160l-222 -415v-249zM272 751h-130v124h130v-124zM472 751h-130v124h130v-124z" />
    <glyph glyph-name="Zacute" unicode="&#x179;" horiz-adv-x="527" 
d="M523 0h-519v118l345 430h-335v116h509v-109l-347 -437h347v-118zM420 820l-223 -94l-31 55l207 121z" />
    <glyph glyph-name="zacute" unicode="&#x17a;" horiz-adv-x="440" 
d="M433 0h-424v100l251 289h-234v103h400v-105l-251 -281h258v-106zM377 648l-223 -94l-31 55l207 121z" />
    <glyph glyph-name="Zdotaccent" unicode="&#x17b;" horiz-adv-x="527" 
d="M523 0h-519v118l345 430h-335v116h509v-109l-347 -437h347v-118zM328 751h-130v124h130v-124z" />
    <glyph glyph-name="zdotaccent" unicode="&#x17c;" horiz-adv-x="440" 
d="M433 0h-424v100l251 289h-234v103h400v-105l-251 -281h258v-106zM285 579h-130v124h130v-124z" />
    <glyph glyph-name="Zcaron" unicode="&#x17d;" horiz-adv-x="527" 
d="M523 0h-519v118l345 430h-335v116h509v-109l-347 -437h347v-118zM316 733h-106l-128 134l46 51l135 -118l135 118l46 -51z" />
    <glyph glyph-name="zcaron" unicode="&#x17e;" horiz-adv-x="440" 
d="M433 0h-424v100l251 289h-234v103h400v-105l-251 -281h258v-106zM273 561h-106l-128 134l46 51l135 -118l135 118l46 -51z" />
    <glyph glyph-name="florin" unicode="&#x192;" horiz-adv-x="532" 
d="M78 -173h-56v112h72c35 0 57 24 65 80l50 345h-70v101h84l4 24c20 137 116 183 226 183h57v-112h-73c-35 0 -57 -24 -65 -80l-2 -15h87v-101h-102l-51 -354c-20 -137 -116 -183 -226 -183z" />
    <glyph glyph-name="Ohorn" unicode="&#x1a0;" horiz-adv-x="765" 
d="M682 702h70c13 -15 21 -46 21 -78c0 -76 -38 -107 -92 -107c-23 0 -48 5 -74 15c29 -56 44 -127 44 -209c0 -228 -113 -346 -317 -346s-319 125 -319 349c0 225 115 360 319 360c85 0 154 -24 206 -68c32 -27 67 -35 103 -35c39 0 48 31 48 63c0 22 -4 44 -9 56zM334 96
c100 0 180 70 180 227s-64 240 -180 240c-117 0 -182 -83 -182 -240s67 -227 182 -227z" />
    <glyph glyph-name="ohorn" unicode="&#x1a1;" horiz-adv-x="647" 
d="M564 543h70c13 -15 21 -46 21 -78c0 -52 -21 -107 -80 -107c-34 0 -61 5 -83 14c17 -36 26 -79 26 -126c0 -156 -97 -259 -250 -259c-159 0 -253 106 -253 259c0 156 97 259 253 259c61 0 113 -16 154 -46c40 -29 71 -35 103 -35c39 0 48 31 48 63c0 22 -4 44 -9 56z
M268 96c79 0 119 50 119 150s-40 149 -119 149s-119 -49 -119 -149s40 -150 119 -150z" />
    <glyph glyph-name="Uhorn" unicode="&#x1af;" horiz-adv-x="743" 
d="M416 221v443h142v-73c18 -6 36 -8 55 -8c39 0 48 31 48 63c0 22 -4 44 -9 56h70c13 -15 21 -46 21 -78c0 -75 -40 -108 -94 -108c-28 0 -60 9 -91 26v-321c0 -161 -99 -244 -273 -244c-161 0 -262 76 -262 236v451h141v-438c0 -82 44 -134 119 -134c89 0 133 42 133 129z
" />
    <glyph glyph-name="uhorn" unicode="&#x1b0;" horiz-adv-x="633" 
d="M469 0h-123v69c-34 -56 -85 -82 -153 -82c-98 0 -167 73 -167 181v324h130v-304c0 -62 28 -92 83 -92c66 0 101 47 101 112v284h129v-64c14 -3 28 -4 42 -4c39 0 48 31 48 63c0 22 -4 44 -9 56h70c13 -15 21 -46 21 -78c0 -75 -39 -107 -93 -107c-24 0 -51 6 -79 18v-376
z" />
    <glyph glyph-name="Scommaaccent" unicode="&#x218;" horiz-adv-x="558" 
d="M531 468h-132c-7 68 -48 101 -133 101c-77 0 -118 -27 -118 -81c0 -38 31 -64 103 -81c85 -20 145 -36 197 -58c60 -25 104 -66 104 -172c0 -127 -114 -200 -251 -200c-192 0 -290 76 -295 222h134c1 -67 62 -110 143 -110c87 0 134 35 134 89c0 44 -18 71 -103 89
c-203 43 -293 79 -293 222c0 110 81 197 245 197c160 0 260 -87 265 -218zM221 -233v43c41 3 63 26 64 65h-64v82h115v-54c0 -72 -26 -128 -115 -136z" />
    <glyph glyph-name="scommaaccent" unicode="&#x219;" horiz-adv-x="467" 
d="M447 343h-125c-6 45 -32 65 -88 65c-53 0 -81 -11 -81 -42c0 -27 28 -41 80 -55c172 -47 228 -56 228 -171c0 -88 -75 -153 -218 -153c-141 0 -232 67 -234 171h134c0 -46 41 -73 99 -73c49 0 90 15 90 47c0 36 -26 48 -79 60c-191 42 -226 91 -226 174
c0 74 57 139 211 139c141 0 203 -61 209 -162zM184 -233v43c41 3 63 26 64 65h-64v82h115v-54c0 -72 -26 -128 -115 -136z" />
    <glyph glyph-name="uni021A" unicode="&#x21a;" horiz-adv-x="549" 
d="M343 0h-139v548h-200v116h540v-116h-201v-548zM217 -233v43c41 3 63 26 64 65h-64v82h115v-54c0 -72 -26 -128 -115 -136z" />
    <glyph glyph-name="uni021B" unicode="&#x21b;" horiz-adv-x="447" 
d="M305 196v128h121v-140c0 -104 -60 -197 -199 -197c-144 0 -201 92 -201 198v440h128v-133h272v-92h-272v-202c0 -62 22 -98 75 -98c52 0 76 35 76 96zM166 -233v43c41 3 63 26 64 65h-64v82h115v-54c0 -72 -26 -128 -115 -136z" />
    <glyph glyph-name="circumflex" unicode="&#x2c6;" horiz-adv-x="462" 
d="M366 561l-135 118l-135 -118l-46 51l128 134h106l128 -134z" />
    <glyph glyph-name="caron" unicode="&#x2c7;" horiz-adv-x="462" 
d="M284 561h-106l-128 134l46 51l135 -118l135 118l46 -51z" />
    <glyph glyph-name="uni02C9" unicode="&#x2c9;" horiz-adv-x="481" 
d="M431 602h-381v91h381v-91z" />
    <glyph glyph-name="breve" unicode="&#x2d8;" horiz-adv-x="424" 
d="M292 746h82c0 -111 -79 -166 -162 -166s-162 55 -162 166h82c2 -55 31 -87 80 -87s78 32 80 87z" />
    <glyph glyph-name="dotaccent" unicode="&#x2d9;" horiz-adv-x="230" 
d="M180 579h-130v124h130v-124z" />
    <glyph glyph-name="ring" unicode="&#x2da;" horiz-adv-x="308" 
d="M258 650c0 -62 -30 -96 -104 -96c-69 0 -104 32 -104 96c0 61 34 96 104 96c74 0 104 -35 104 -96zM206 650c0 33 -17 51 -52 51c-34 0 -50 -18 -50 -51c0 -31 16 -49 50 -49c35 0 52 18 52 49z" />
    <glyph glyph-name="ogonek" unicode="&#x2db;" horiz-adv-x="315" 
d="M265 -117v-90c-19 -15 -51 -26 -105 -26c-72 0 -110 33 -110 85c0 65 68 116 172 148h43c-102 -46 -113 -64 -113 -92c0 -22 25 -33 64 -33c19 0 37 4 49 8z" />
    <glyph glyph-name="tilde" unicode="&#x2dc;" horiz-adv-x="445" 
d="M320 701l75 -27c-22 -72 -66 -98 -109 -98c-51 0 -85 45 -128 45c-8 0 -27 -7 -39 -44l-69 37c21 65 56 88 97 88c61 0 95 -48 133 -48c12 0 34 12 40 47z" />
    <glyph glyph-name="hungarumlaut" unicode="&#x2dd;" horiz-adv-x="407" 
d="M87 569l-37 33l136 147l44 -37zM357 709l-150 -140l-37 33l142 144z" />
    <glyph glyph-name="tildecomb" unicode="&#x303;" horiz-adv-x="372" 
d="M264 746l51 -14c-12 -48 -46 -61 -78 -61c-33 0 -76 20 -100 20c-10 0 -20 -11 -28 -32l-49 20c12 45 39 63 70 63c47 0 73 -23 106 -23c14 0 24 6 28 27zM322 584l-34 -30l-102 70l-101 -70l-35 30l96 80h80z" />
    <glyph glyph-name="hookabovecomb" unicode="&#x309;" horiz-adv-x="244" 
d="M135 581h-50c0 23 5 41 25 53c14 8 23 14 23 30c0 10 -7 17 -24 17c-11 0 -24 -3 -41 -15l-18 55c20 17 51 25 70 25c46 0 74 -24 74 -61c0 -56 -59 -57 -59 -104z" />
    <glyph glyph-name="dotbelowcomb" unicode="&#x323;" horiz-adv-x="230" 
d="M180 -206h-130v124h130v-124z" />
    <glyph glyph-name="uni037E" unicode="&#x37e;" horiz-adv-x="154" 
d="M10 -156v50c51 13 76 43 77 106h-77v135h138v-102c0 -113 -34 -167 -138 -189zM148 339h-138v134h138v-134z" />
    <glyph glyph-name="Delta" unicode="&#x394;" horiz-adv-x="638" 
d="M635 0h-632l237 664h161zM318 515l-131 -401h260l-128 401h-1z" />
    <glyph glyph-name="Omega" unicode="&#x3a9;" horiz-adv-x="646" 
d="M622 0h-239v100c64 61 101 151 101 293c0 125 -56 182 -161 182s-160 -57 -160 -182c0 -142 45 -233 100 -293v-100h-239v110h99c-60 46 -111 153 -111 284c0 181 98 292 311 292c214 0 311 -111 311 -292c0 -131 -51 -238 -111 -284h99v-110z" />
    <glyph glyph-name="pi" unicode="&#x3c0;" horiz-adv-x="563" 
d="M480 0h-129v372h-142v-372h-129v372h-67v120h537v-120h-70v-372z" />
    <glyph glyph-name="Wgrave" unicode="&#x1e80;" horiz-adv-x="852" 
d="M663 0h-134l-103 432l-105 -432h-130l-188 664h148l109 -430l92 430h146l101 -430l108 430h142zM492 726l-223 94l47 82l207 -121z" />
    <glyph glyph-name="wgrave" unicode="&#x1e81;" horiz-adv-x="710" 
d="M565 0h-133l-78 286l-78 -286h-133l-140 492h137l80 -316l68 316h132l77 -316l75 316h134zM421 554l-223 94l47 82l207 -121z" />
    <glyph glyph-name="Wacute" unicode="&#x1e82;" horiz-adv-x="852" 
d="M663 0h-134l-103 432l-105 -432h-130l-188 664h148l109 -430l92 430h146l101 -430l108 430h142zM583 820l-223 -94l-31 55l207 121z" />
    <glyph glyph-name="wacute" unicode="&#x1e83;" horiz-adv-x="710" 
d="M565 0h-133l-78 286l-78 -286h-133l-140 492h137l80 -316l68 316h132l77 -316l75 316h134zM512 648l-223 -94l-31 55l207 121z" />
    <glyph glyph-name="Wdieresis" unicode="&#x1e84;" horiz-adv-x="852" 
d="M663 0h-134l-103 432l-105 -432h-130l-188 664h148l109 -430l92 430h146l101 -430l108 430h142zM391 751h-130v124h130v-124zM591 751h-130v124h130v-124z" />
    <glyph glyph-name="wdieresis" unicode="&#x1e85;" horiz-adv-x="710" 
d="M565 0h-133l-78 286l-78 -286h-133l-140 492h137l80 -316l68 316h132l77 -316l75 316h134zM320 579h-130v124h130v-124zM520 579h-130v124h130v-124z" />
    <glyph glyph-name="uni1EA0" unicode="&#x1ea0;" horiz-adv-x="638" 
d="M402 251l-83 264h-1l-85 -264h169zM635 0h-151l-42 137h-245l-47 -137h-147l237 664h161zM384 -206h-130v124h130v-124z" />
    <glyph glyph-name="uni1EA1" unicode="&#x1ea1;" horiz-adv-x="481" 
d="M324 187l1 54c-13 -13 -36 -20 -84 -29c-74 -14 -98 -35 -98 -77c0 -37 22 -55 63 -55c67 0 117 49 118 107zM455 0h-121c-4 12 -7 29 -8 44c-31 -34 -83 -57 -149 -57c-112 0 -164 55 -164 135c0 142 95 158 226 176c65 9 83 22 83 56c0 32 -32 51 -83 51
c-59 0 -83 -29 -89 -73h-121c2 102 58 173 216 173c156 0 210 -70 210 -194v-311zM300 -206h-130v124h130v-124z" />
    <glyph glyph-name="uni1EA2" unicode="&#x1ea2;" horiz-adv-x="638" 
d="M402 251l-83 264h-1l-85 -264h169zM635 0h-151l-42 137h-245l-47 -137h-147l237 664h161zM342 753h-50c0 23 5 41 25 53c14 8 23 14 23 30c0 10 -7 17 -24 17c-11 0 -24 -3 -41 -15l-18 55c20 17 51 25 70 25c46 0 74 -24 74 -61c0 -56 -59 -57 -59 -104z" />
    <glyph glyph-name="uni1EA3" unicode="&#x1ea3;" horiz-adv-x="481" 
d="M324 187l1 54c-13 -13 -36 -20 -84 -29c-74 -14 -98 -35 -98 -77c0 -37 22 -55 63 -55c67 0 117 49 118 107zM455 0h-121c-4 12 -7 29 -8 44c-31 -34 -83 -57 -149 -57c-112 0 -164 55 -164 135c0 142 95 158 226 176c65 9 83 22 83 56c0 32 -32 51 -83 51
c-59 0 -83 -29 -89 -73h-121c2 102 58 173 216 173c156 0 210 -70 210 -194v-311zM263 581h-50c0 23 5 41 25 53c14 8 23 14 23 30c0 10 -7 17 -24 17c-11 0 -24 -3 -41 -15l-18 55c20 17 51 25 70 25c46 0 74 -24 74 -61c0 -56 -59 -57 -59 -104z" />
    <glyph glyph-name="uni1EA4" unicode="&#x1ea4;" horiz-adv-x="638" 
d="M402 251l-83 264h-1l-85 -264h169zM635 0h-151l-42 137h-245l-47 -137h-147l237 664h161zM437 743l-116 101l-116 -101l-39 44l110 115h91l110 -115zM715 834l-185 -78l-25 46l171 100z" />
    <glyph glyph-name="uni1EA5" unicode="&#x1ea5;" horiz-adv-x="481" 
d="M324 187l1 54c-13 -13 -36 -20 -84 -29c-74 -14 -98 -35 -98 -77c0 -37 22 -55 63 -55c67 0 117 49 118 107zM455 0h-121c-4 12 -7 29 -8 44c-31 -34 -83 -57 -149 -57c-112 0 -164 55 -164 135c0 142 95 158 226 176c65 9 83 22 83 56c0 32 -32 51 -83 51
c-59 0 -83 -29 -89 -73h-121c2 102 58 173 216 173c156 0 210 -70 210 -194v-311zM357 571l-116 101l-116 -101l-39 44l110 115h91l110 -115zM635 662l-185 -78l-25 46l171 100z" />
    <glyph glyph-name="uni1EA6" unicode="&#x1ea6;" horiz-adv-x="638" 
d="M402 251l-83 264h-1l-85 -264h169zM635 0h-151l-42 137h-245l-47 -137h-147l237 664h161zM433 743l-116 101l-116 -101l-40 44l110 115h91l110 -115zM108 756l-185 78l39 68l171 -100z" />
    <glyph glyph-name="uni1EA7" unicode="&#x1ea7;" horiz-adv-x="481" 
d="M324 187l1 54c-13 -13 -36 -20 -84 -29c-74 -14 -98 -35 -98 -77c0 -37 22 -55 63 -55c67 0 117 49 118 107zM455 0h-121c-4 12 -7 29 -8 44c-31 -34 -83 -57 -149 -57c-112 0 -164 55 -164 135c0 142 95 158 226 176c65 9 83 22 83 56c0 32 -32 51 -83 51
c-59 0 -83 -29 -89 -73h-121c2 102 58 173 216 173c156 0 210 -70 210 -194v-311zM351 571l-116 101l-116 -101l-40 44l110 115h91l110 -115zM26 584l-185 78l39 68l171 -100z" />
    <glyph glyph-name="uni1EA8" unicode="&#x1ea8;" horiz-adv-x="638" 
d="M402 251l-83 264h-1l-85 -264h169zM635 0h-151l-42 137h-245l-47 -137h-147l237 664h161zM543 753h-50c0 23 5 41 25 53c14 8 23 14 23 30c0 10 -7 17 -24 17c-11 0 -24 -3 -41 -15l-18 55c20 17 51 25 70 25c46 0 74 -24 74 -61c0 -56 -59 -57 -59 -104zM433 743
l-116 101l-116 -101l-40 44l110 115h91l110 -115z" />
    <glyph glyph-name="uni1EA9" unicode="&#x1ea9;" horiz-adv-x="481" 
d="M324 187l1 54c-13 -13 -36 -20 -84 -29c-74 -14 -98 -35 -98 -77c0 -37 22 -55 63 -55c67 0 117 49 118 107zM455 0h-121c-4 12 -7 29 -8 44c-31 -34 -83 -57 -149 -57c-112 0 -164 55 -164 135c0 142 95 158 226 176c65 9 83 22 83 56c0 32 -32 51 -83 51
c-59 0 -83 -29 -89 -73h-121c2 102 58 173 216 173c156 0 210 -70 210 -194v-311zM466 581h-50c0 23 5 41 25 53c14 8 23 14 23 30c0 10 -7 17 -24 17c-11 0 -24 -3 -41 -15l-18 55c20 17 51 25 70 25c46 0 74 -24 74 -61c0 -56 -59 -57 -59 -104zM356 571l-116 101
l-116 -101l-40 44l110 115h91l110 -115z" />
    <glyph glyph-name="uni1EAA" unicode="&#x1eaa;" horiz-adv-x="638" 
d="M402 251l-83 264h-1l-85 -264h169zM635 0h-151l-42 137h-245l-47 -137h-147l237 664h161zM397 918l51 -14c-12 -48 -46 -61 -78 -61c-33 0 -76 20 -100 20c-10 0 -20 -11 -28 -32l-49 20c12 45 39 63 70 63c47 0 73 -23 106 -23c14 0 24 6 28 27zM455 756l-34 -30
l-102 70l-101 -70l-35 30l96 80h80z" />
    <glyph glyph-name="uni1EAB" unicode="&#x1eab;" horiz-adv-x="481" 
d="M324 187l1 54c-13 -13 -36 -20 -84 -29c-74 -14 -98 -35 -98 -77c0 -37 22 -55 63 -55c67 0 117 49 118 107zM455 0h-121c-4 12 -7 29 -8 44c-31 -34 -83 -57 -149 -57c-112 0 -164 55 -164 135c0 142 95 158 226 176c65 9 83 22 83 56c0 32 -32 51 -83 51
c-59 0 -83 -29 -89 -73h-121c2 102 58 173 216 173c156 0 210 -70 210 -194v-311zM328 746l51 -14c-12 -48 -46 -61 -78 -61c-33 0 -76 20 -100 20c-10 0 -20 -11 -28 -32l-49 20c12 45 39 63 70 63c47 0 73 -23 106 -23c14 0 24 6 28 27zM386 584l-34 -30l-102 70l-101 -70
l-35 30l96 80h80z" />
    <glyph glyph-name="uni1EAC" unicode="&#x1eac;" horiz-adv-x="638" 
d="M402 251l-83 264h-1l-85 -264h169zM635 0h-151l-42 137h-245l-47 -137h-147l237 664h161zM454 733l-135 118l-135 -118l-46 51l128 134h106l128 -134zM384 -206h-130v124h130v-124z" />
    <glyph glyph-name="uni1EAD" unicode="&#x1ead;" horiz-adv-x="481" 
d="M324 187l1 54c-13 -13 -36 -20 -84 -29c-74 -14 -98 -35 -98 -77c0 -37 22 -55 63 -55c67 0 117 49 118 107zM455 0h-121c-4 12 -7 29 -8 44c-31 -34 -83 -57 -149 -57c-112 0 -164 55 -164 135c0 142 95 158 226 176c65 9 83 22 83 56c0 32 -32 51 -83 51
c-59 0 -83 -29 -89 -73h-121c2 102 58 173 216 173c156 0 210 -70 210 -194v-311zM375 561l-135 118l-135 -118l-46 51l128 134h106l128 -134zM295 -206h-130v124h130v-124z" />
    <glyph glyph-name="uni1EAE" unicode="&#x1eae;" horiz-adv-x="638" 
d="M402 251l-83 264h-1l-85 -264h169zM635 0h-151l-42 137h-245l-47 -137h-147l237 664h161zM373 840h57c0 -76 -55 -114 -112 -114s-111 38 -111 114h57c0 -38 21 -60 54 -60c34 0 54 22 55 60zM418 871l-128 -55l-18 33l119 69z" />
    <glyph glyph-name="uni1EAF" unicode="&#x1eaf;" horiz-adv-x="481" 
d="M324 187l1 54c-13 -13 -36 -20 -84 -29c-74 -14 -98 -35 -98 -77c0 -37 22 -55 63 -55c67 0 117 49 118 107zM455 0h-121c-4 12 -7 29 -8 44c-31 -34 -83 -57 -149 -57c-112 0 -164 55 -164 135c0 142 95 158 226 176c65 9 83 22 83 56c0 32 -32 51 -83 51
c-59 0 -83 -29 -89 -73h-121c2 102 58 173 216 173c156 0 210 -70 210 -194v-311zM301 668h57c0 -76 -55 -114 -112 -114s-111 38 -111 114h57c0 -38 21 -60 54 -60c34 0 54 22 55 60zM346 699l-128 -55l-18 33l119 69z" />
    <glyph glyph-name="uni1EB0" unicode="&#x1eb0;" horiz-adv-x="638" 
d="M402 251l-83 264h-1l-85 -264h169zM635 0h-151l-42 137h-245l-47 -137h-147l237 664h161zM373 840h57c0 -76 -54 -114 -111 -114s-112 38 -112 114h57c1 -38 21 -60 55 -60c33 0 54 22 54 60zM347 816l-128 55l27 47l119 -69z" />
    <glyph glyph-name="uni1EB1" unicode="&#x1eb1;" horiz-adv-x="481" 
d="M324 187l1 54c-13 -13 -36 -20 -84 -29c-74 -14 -98 -35 -98 -77c0 -37 22 -55 63 -55c67 0 117 49 118 107zM455 0h-121c-4 12 -7 29 -8 44c-31 -34 -83 -57 -149 -57c-112 0 -164 55 -164 135c0 142 95 158 226 176c65 9 83 22 83 56c0 32 -32 51 -83 51
c-59 0 -83 -29 -89 -73h-121c2 102 58 173 216 173c156 0 210 -70 210 -194v-311zM301 668h57c0 -76 -54 -114 -111 -114s-112 38 -112 114h57c1 -38 21 -60 55 -60c33 0 54 22 54 60zM275 644l-128 55l27 47l119 -69z" />
    <glyph glyph-name="uni1EB2" unicode="&#x1eb2;" horiz-adv-x="638" 
d="M402 251l-83 264h-1l-85 -264h169zM635 0h-151l-42 137h-245l-47 -137h-147l237 664h161zM373 840h57c0 -76 -54 -114 -111 -114s-112 38 -112 114h57c1 -38 21 -60 55 -60c33 0 54 22 54 60zM330 795h-37c0 17 4 31 19 40c10 6 17 10 17 22c0 7 -6 13 -18 13
c-8 0 -18 -3 -31 -11l-13 40c15 13 38 19 52 19c34 0 55 -18 55 -45c0 -42 -44 -42 -44 -78z" />
    <glyph glyph-name="uni1EB3" unicode="&#x1eb3;" horiz-adv-x="481" 
d="M324 187l1 54c-13 -13 -36 -20 -84 -29c-74 -14 -98 -35 -98 -77c0 -37 22 -55 63 -55c67 0 117 49 118 107zM455 0h-121c-4 12 -7 29 -8 44c-31 -34 -83 -57 -149 -57c-112 0 -164 55 -164 135c0 142 95 158 226 176c65 9 83 22 83 56c0 32 -32 51 -83 51
c-59 0 -83 -29 -89 -73h-121c2 102 58 173 216 173c156 0 210 -70 210 -194v-311zM299 668h57c0 -76 -54 -114 -111 -114s-112 38 -112 114h57c1 -38 21 -60 55 -60c33 0 54 22 54 60zM256 623h-37c0 17 4 31 19 40c10 6 17 10 17 22c0 7 -6 13 -18 13c-8 0 -18 -3 -31 -11
l-13 40c15 13 38 19 52 19c34 0 55 -18 55 -45c0 -42 -44 -42 -44 -78z" />
    <glyph glyph-name="uni1EB4" unicode="&#x1eb4;" horiz-adv-x="638" 
d="M402 251l-83 264h-1l-85 -264h169zM635 0h-151l-42 137h-245l-47 -137h-147l237 664h161zM371 918l39 -10c-8 -37 -30 -54 -53 -54c-26 0 -44 22 -69 22c-6 0 -11 -5 -17 -23l-37 18c10 33 29 45 51 45c27 0 44 -23 71 -23c7 0 13 9 15 25zM373 840h57
c0 -76 -54 -114 -111 -114s-112 38 -112 114h57c1 -38 21 -60 55 -60c33 0 54 22 54 60z" />
    <glyph glyph-name="uni1EB5" unicode="&#x1eb5;" horiz-adv-x="481" 
d="M324 187l1 54c-13 -13 -36 -20 -84 -29c-74 -14 -98 -35 -98 -77c0 -37 22 -55 63 -55c67 0 117 49 118 107zM455 0h-121c-4 12 -7 29 -8 44c-31 -34 -83 -57 -149 -57c-112 0 -164 55 -164 135c0 142 95 158 226 176c65 9 83 22 83 56c0 32 -32 51 -83 51
c-59 0 -83 -29 -89 -73h-121c2 102 58 173 216 173c156 0 210 -70 210 -194v-311zM293 746l39 -10c-8 -37 -30 -54 -53 -54c-26 0 -44 22 -69 22c-6 0 -11 -5 -17 -23l-37 18c10 33 29 45 51 45c27 0 44 -23 71 -23c7 0 13 9 15 25zM295 668h57c0 -76 -54 -114 -111 -114
s-112 38 -112 114h57c1 -38 21 -60 55 -60c33 0 54 22 54 60z" />
    <glyph glyph-name="uni1EB6" unicode="&#x1eb6;" horiz-adv-x="638" 
d="M402 251l-83 264h-1l-85 -264h169zM635 0h-151l-42 137h-245l-47 -137h-147l237 664h161zM399 918h82c0 -111 -79 -166 -162 -166s-162 55 -162 166h82c2 -55 31 -87 80 -87s78 32 80 87zM384 -206h-130v124h130v-124z" />
    <glyph glyph-name="uni1EB7" unicode="&#x1eb7;" horiz-adv-x="481" 
d="M324 187l1 54c-13 -13 -36 -20 -84 -29c-74 -14 -98 -35 -98 -77c0 -37 22 -55 63 -55c67 0 117 49 118 107zM455 0h-121c-4 12 -7 29 -8 44c-31 -34 -83 -57 -149 -57c-112 0 -164 55 -164 135c0 142 95 158 226 176c65 9 83 22 83 56c0 32 -32 51 -83 51
c-59 0 -83 -29 -89 -73h-121c2 102 58 173 216 173c156 0 210 -70 210 -194v-311zM320 746h82c0 -111 -79 -166 -162 -166s-162 55 -162 166h82c2 -55 31 -87 80 -87s78 32 80 87zM295 -206h-130v124h130v-124z" />
    <glyph glyph-name="uni1EB8" unicode="&#x1eb8;" horiz-adv-x="527" 
d="M527 0h-504v664h488v-116h-353v-142h325v-117h-325v-171h369v-118zM345 -206h-130v124h130v-124z" />
    <glyph glyph-name="uni1EB9" unicode="&#x1eb9;" 
d="M149 294h201c-2 73 -50 108 -101 108c-52 0 -95 -40 -100 -108zM484 212h-339c4 -74 46 -122 110 -122c42 0 79 21 88 55h134c-30 -101 -111 -158 -216 -158c-164 0 -246 90 -246 268c0 152 87 250 238 250s231 -98 231 -293zM311 -206h-130v124h130v-124z" />
    <glyph glyph-name="uni1EBA" unicode="&#x1eba;" horiz-adv-x="527" 
d="M527 0h-504v664h488v-116h-353v-142h325v-117h-325v-171h369v-118zM305 753h-50c0 23 5 41 25 53c14 8 23 14 23 30c0 10 -7 17 -24 17c-11 0 -24 -3 -41 -15l-18 55c20 17 51 25 70 25c46 0 74 -24 74 -61c0 -56 -59 -57 -59 -104z" />
    <glyph glyph-name="uni1EBB" unicode="&#x1ebb;" 
d="M149 294h201c-2 73 -50 108 -101 108c-52 0 -95 -40 -100 -108zM484 212h-339c4 -74 46 -122 110 -122c42 0 79 21 88 55h134c-30 -101 -111 -158 -216 -158c-164 0 -246 90 -246 268c0 152 87 250 238 250s231 -98 231 -293zM265 581h-50c0 23 5 41 25 53
c14 8 23 14 23 30c0 10 -7 17 -24 17c-11 0 -24 -3 -41 -15l-18 55c20 17 51 25 70 25c46 0 74 -24 74 -61c0 -56 -59 -57 -59 -104z" />
    <glyph glyph-name="uni1EBC" unicode="&#x1ebc;" horiz-adv-x="527" 
d="M527 0h-504v664h488v-116h-353v-142h325v-117h-325v-171h369v-118zM360 873l75 -27c-22 -72 -66 -98 -109 -98c-51 0 -85 45 -128 45c-8 0 -27 -7 -39 -44l-69 37c21 65 56 88 97 88c61 0 95 -48 133 -48c12 0 34 12 40 47z" />
    <glyph glyph-name="uni1EBD" unicode="&#x1ebd;" 
d="M149 294h201c-2 73 -50 108 -101 108c-52 0 -95 -40 -100 -108zM484 212h-339c4 -74 46 -122 110 -122c42 0 79 21 88 55h134c-30 -101 -111 -158 -216 -158c-164 0 -246 90 -246 268c0 152 87 250 238 250s231 -98 231 -293zM346 701l75 -27c-22 -72 -66 -98 -109 -98
c-51 0 -85 45 -128 45c-8 0 -27 -7 -39 -44l-69 37c21 65 56 88 97 88c61 0 95 -48 133 -48c12 0 34 12 40 47z" />
    <glyph glyph-name="uni1EBE" unicode="&#x1ebe;" horiz-adv-x="527" 
d="M527 0h-504v664h488v-116h-353v-142h325v-117h-325v-171h369v-118zM389 743l-116 101l-116 -101l-39 44l110 115h91l110 -115zM667 834l-185 -78l-25 46l171 100z" />
    <glyph glyph-name="uni1EBF" unicode="&#x1ebf;" 
d="M149 294h201c-2 73 -50 108 -101 108c-52 0 -95 -40 -100 -108zM484 212h-339c4 -74 46 -122 110 -122c42 0 79 21 88 55h134c-30 -101 -111 -158 -216 -158c-164 0 -246 90 -246 268c0 152 87 250 238 250s231 -98 231 -293zM366 571l-116 101l-116 -101l-39 44l110 115
h91l110 -115zM644 662l-185 -78l-25 46l171 100z" />
    <glyph glyph-name="uni1EC0" unicode="&#x1ec0;" horiz-adv-x="527" 
d="M527 0h-504v664h488v-116h-353v-142h325v-117h-325v-171h369v-118zM383 743l-116 101l-116 -101l-40 44l110 115h91l110 -115zM58 756l-185 78l39 68l171 -100z" />
    <glyph glyph-name="uni1EC1" unicode="&#x1ec1;" 
d="M149 294h201c-2 73 -50 108 -101 108c-52 0 -95 -40 -100 -108zM484 212h-339c4 -74 46 -122 110 -122c42 0 79 21 88 55h134c-30 -101 -111 -158 -216 -158c-164 0 -246 90 -246 268c0 152 87 250 238 250s231 -98 231 -293zM355 571l-116 101l-116 -101l-40 44l110 115
h91l110 -115zM30 584l-185 78l39 68l171 -100z" />
    <glyph glyph-name="uni1EC2" unicode="&#x1ec2;" horiz-adv-x="527" 
d="M527 0h-504v664h488v-116h-353v-142h325v-117h-325v-171h369v-118zM499 753h-50c0 23 5 41 25 53c14 8 23 14 23 30c0 10 -7 17 -24 17c-11 0 -24 -3 -41 -15l-18 55c20 17 51 25 70 25c46 0 74 -24 74 -61c0 -56 -59 -57 -59 -104zM389 743l-116 101l-116 -101l-40 44
l110 115h91l110 -115z" />
    <glyph glyph-name="uni1EC3" unicode="&#x1ec3;" 
d="M149 294h201c-2 73 -50 108 -101 108c-52 0 -95 -40 -100 -108zM484 212h-339c4 -74 46 -122 110 -122c42 0 79 21 88 55h134c-30 -101 -111 -158 -216 -158c-164 0 -246 90 -246 268c0 152 87 250 238 250s231 -98 231 -293zM478 581h-50c0 23 5 41 25 53
c14 8 23 14 23 30c0 10 -7 17 -24 17c-11 0 -24 -3 -41 -15l-18 55c20 17 51 25 70 25c46 0 74 -24 74 -61c0 -56 -59 -57 -59 -104zM368 571l-116 101l-116 -101l-40 44l110 115h91l110 -115z" />
    <glyph glyph-name="uni1EC4" unicode="&#x1ec4;" horiz-adv-x="527" 
d="M527 0h-504v664h488v-116h-353v-142h325v-117h-325v-171h369v-118zM351 918l51 -14c-12 -48 -46 -61 -78 -61c-33 0 -76 20 -100 20c-10 0 -20 -11 -28 -32l-49 20c12 45 39 63 70 63c47 0 73 -23 106 -23c14 0 24 6 28 27zM409 756l-34 -30l-102 70l-101 -70l-35 30
l96 80h80z" />
    <glyph glyph-name="uni1EC5" unicode="&#x1ec5;" 
d="M149 294h201c-2 73 -50 108 -101 108c-52 0 -95 -40 -100 -108zM484 212h-339c4 -74 46 -122 110 -122c42 0 79 21 88 55h134c-30 -101 -111 -158 -216 -158c-164 0 -246 90 -246 268c0 152 87 250 238 250s231 -98 231 -293zM327 746l51 -14c-12 -48 -46 -61 -78 -61
c-33 0 -76 20 -100 20c-10 0 -20 -11 -28 -32l-49 20c12 45 39 63 70 63c47 0 73 -23 106 -23c14 0 24 6 28 27zM385 584l-34 -30l-102 70l-101 -70l-35 30l96 80h80z" />
    <glyph glyph-name="uni1EC6" unicode="&#x1ec6;" horiz-adv-x="527" 
d="M527 0h-504v664h488v-116h-353v-142h325v-117h-325v-171h369v-118zM406 733l-135 118l-135 -118l-46 51l128 134h106l128 -134zM328 -206h-130v124h130v-124z" />
    <glyph glyph-name="uni1EC7" unicode="&#x1ec7;" 
d="M149 294h201c-2 73 -50 108 -101 108c-52 0 -95 -40 -100 -108zM484 212h-339c4 -74 46 -122 110 -122c42 0 79 21 88 55h134c-30 -101 -111 -158 -216 -158c-164 0 -246 90 -246 268c0 152 87 250 238 250s231 -98 231 -293zM384 561l-135 118l-135 -118l-46 51l128 134
h106l128 -134zM314 -206h-130v124h130v-124z" />
    <glyph glyph-name="uni1EC8" unicode="&#x1ec8;" horiz-adv-x="184" 
d="M162 0h-139v664h139v-664zM115 753h-50c0 23 5 41 25 53c14 8 23 14 23 30c0 10 -7 17 -24 17c-11 0 -24 -3 -41 -15l-18 55c20 17 51 25 70 25c46 0 74 -24 74 -61c0 -56 -59 -57 -59 -104z" />
    <glyph glyph-name="uni1EC9" unicode="&#x1ec9;" horiz-adv-x="188" 
d="M159 0h-130v492h130v-492zM117 581h-50c0 23 5 41 25 53c14 8 23 14 23 30c0 10 -7 17 -24 17c-11 0 -24 -3 -41 -15l-18 55c20 17 51 25 70 25c46 0 74 -24 74 -61c0 -56 -59 -57 -59 -104z" />
    <glyph glyph-name="uni1ECA" unicode="&#x1eca;" horiz-adv-x="184" 
d="M162 0h-139v664h139v-664zM157 -206h-130v124h130v-124z" />
    <glyph glyph-name="uni1ECB" unicode="&#x1ecb;" horiz-adv-x="188" 
d="M159 0h-130v492h130v-492zM159 551h-130v121h130v-121zM159 -206h-130v124h130v-124z" />
    <glyph glyph-name="uni1ECC" unicode="&#x1ecc;" horiz-adv-x="666" 
d="M334 96c100 0 180 70 180 227s-64 240 -180 240c-117 0 -182 -83 -182 -240s67 -227 182 -227zM334 -23c-204 0 -319 125 -319 349c0 225 115 360 319 360s317 -135 317 -363s-113 -346 -317 -346zM398 -206h-130v124h130v-124z" />
    <glyph glyph-name="uni1ECD" unicode="&#x1ecd;" horiz-adv-x="534" 
d="M268 96c79 0 119 50 119 150s-40 149 -119 149s-119 -49 -119 -149s40 -150 119 -150zM268 -13c-159 0 -253 106 -253 259c0 156 97 259 253 259c154 0 250 -102 250 -259c0 -156 -97 -259 -250 -259zM332 -206h-130v124h130v-124z" />
    <glyph glyph-name="uni1ECE" unicode="&#x1ece;" horiz-adv-x="666" 
d="M334 96c100 0 180 70 180 227s-64 240 -180 240c-117 0 -182 -83 -182 -240s67 -227 182 -227zM334 -23c-204 0 -319 125 -319 349c0 225 115 360 319 360s317 -135 317 -363s-113 -346 -317 -346zM356 753h-50c0 23 5 41 25 53c14 8 23 14 23 30c0 10 -7 17 -24 17
c-11 0 -24 -3 -41 -15l-18 55c20 17 51 25 70 25c46 0 74 -24 74 -61c0 -56 -59 -57 -59 -104z" />
    <glyph glyph-name="uni1ECF" unicode="&#x1ecf;" horiz-adv-x="534" 
d="M268 96c79 0 119 50 119 150s-40 149 -119 149s-119 -49 -119 -149s40 -150 119 -150zM268 -13c-159 0 -253 106 -253 259c0 156 97 259 253 259c154 0 250 -102 250 -259c0 -156 -97 -259 -250 -259zM290 581h-50c0 23 5 41 25 53c14 8 23 14 23 30c0 10 -7 17 -24 17
c-11 0 -24 -3 -41 -15l-18 55c20 17 51 25 70 25c46 0 74 -24 74 -61c0 -56 -59 -57 -59 -104z" />
    <glyph glyph-name="uni1ED0" unicode="&#x1ed0;" horiz-adv-x="666" 
d="M334 96c100 0 180 70 180 227s-64 240 -180 240c-117 0 -182 -83 -182 -240s67 -227 182 -227zM334 -23c-204 0 -319 125 -319 349c0 225 115 360 319 360s317 -135 317 -363s-113 -346 -317 -346zM449 743l-116 101l-116 -101l-39 44l110 115h91l110 -115zM727 834
l-185 -78l-25 46l171 100z" />
    <glyph glyph-name="uni1ED1" unicode="&#x1ed1;" horiz-adv-x="534" 
d="M268 96c79 0 119 50 119 150s-40 149 -119 149s-119 -49 -119 -149s40 -150 119 -150zM268 -13c-159 0 -253 106 -253 259c0 156 97 259 253 259c154 0 250 -102 250 -259c0 -156 -97 -259 -250 -259zM392 571l-116 101l-116 -101l-39 44l110 115h91l110 -115zM670 662
l-185 -78l-25 46l171 100z" />
    <glyph glyph-name="uni1ED2" unicode="&#x1ed2;" horiz-adv-x="666" 
d="M334 96c100 0 180 70 180 227s-64 240 -180 240c-117 0 -182 -83 -182 -240s67 -227 182 -227zM334 -23c-204 0 -319 125 -319 349c0 225 115 360 319 360s317 -135 317 -363s-113 -346 -317 -346zM450 743l-116 101l-116 -101l-40 44l110 115h91l110 -115zM125 756
l-185 78l39 68l171 -100z" />
    <glyph glyph-name="uni1ED3" unicode="&#x1ed3;" horiz-adv-x="534" 
d="M268 96c79 0 119 50 119 150s-40 149 -119 149s-119 -49 -119 -149s40 -150 119 -150zM268 -13c-159 0 -253 106 -253 259c0 156 97 259 253 259c154 0 250 -102 250 -259c0 -156 -97 -259 -250 -259zM382 571l-116 101l-116 -101l-40 44l110 115h91l110 -115zM57 584
l-185 78l39 68l171 -100z" />
    <glyph glyph-name="uni1ED4" unicode="&#x1ed4;" horiz-adv-x="666" 
d="M334 96c100 0 180 70 180 227s-64 240 -180 240c-117 0 -182 -83 -182 -240s67 -227 182 -227zM334 -23c-204 0 -319 125 -319 349c0 225 115 360 319 360s317 -135 317 -363s-113 -346 -317 -346zM557 753h-50c0 23 5 41 25 53c14 8 23 14 23 30c0 10 -7 17 -24 17
c-11 0 -24 -3 -41 -15l-18 55c20 17 51 25 70 25c46 0 74 -24 74 -61c0 -56 -59 -57 -59 -104zM447 743l-116 101l-116 -101l-40 44l110 115h91l110 -115z" />
    <glyph glyph-name="uni1ED5" unicode="&#x1ed5;" horiz-adv-x="534" 
d="M268 96c79 0 119 50 119 150s-40 149 -119 149s-119 -49 -119 -149s40 -150 119 -150zM268 -13c-159 0 -253 106 -253 259c0 156 97 259 253 259c154 0 250 -102 250 -259c0 -156 -97 -259 -250 -259zM499 581h-50c0 23 5 41 25 53c14 8 23 14 23 30c0 10 -7 17 -24 17
c-11 0 -24 -3 -41 -15l-18 55c20 17 51 25 70 25c46 0 74 -24 74 -61c0 -56 -59 -57 -59 -104zM389 571l-116 101l-116 -101l-40 44l110 115h91l110 -115z" />
    <glyph glyph-name="uni1ED6" unicode="&#x1ed6;" horiz-adv-x="666" 
d="M334 96c100 0 180 70 180 227s-64 240 -180 240c-117 0 -182 -83 -182 -240s67 -227 182 -227zM334 -23c-204 0 -319 125 -319 349c0 225 115 360 319 360s317 -135 317 -363s-113 -346 -317 -346zM411 918l51 -14c-12 -48 -46 -61 -78 -61c-33 0 -76 20 -100 20
c-10 0 -20 -11 -28 -32l-49 20c12 45 39 63 70 63c47 0 73 -23 106 -23c14 0 24 6 28 27zM469 756l-34 -30l-102 70l-101 -70l-35 30l96 80h80z" />
    <glyph glyph-name="uni1ED7" unicode="&#x1ed7;" horiz-adv-x="534" 
d="M268 96c79 0 119 50 119 150s-40 149 -119 149s-119 -49 -119 -149s40 -150 119 -150zM268 -13c-159 0 -253 106 -253 259c0 156 97 259 253 259c154 0 250 -102 250 -259c0 -156 -97 -259 -250 -259zM345 746l51 -14c-12 -48 -46 -61 -78 -61c-33 0 -76 20 -100 20
c-10 0 -20 -11 -28 -32l-49 20c12 45 39 63 70 63c47 0 73 -23 106 -23c14 0 24 6 28 27zM403 584l-34 -30l-102 70l-101 -70l-35 30l96 80h80z" />
    <glyph glyph-name="uni1ED8" unicode="&#x1ed8;" horiz-adv-x="666" 
d="M334 96c100 0 180 70 180 227s-64 240 -180 240c-117 0 -182 -83 -182 -240s67 -227 182 -227zM334 -23c-204 0 -319 125 -319 349c0 225 115 360 319 360s317 -135 317 -363s-113 -346 -317 -346zM468 733l-135 118l-135 -118l-46 51l128 134h106l128 -134zM398 -206
h-130v124h130v-124z" />
    <glyph glyph-name="uni1ED9" unicode="&#x1ed9;" horiz-adv-x="534" 
d="M268 96c79 0 119 50 119 150s-40 149 -119 149s-119 -49 -119 -149s40 -150 119 -150zM268 -13c-159 0 -253 106 -253 259c0 156 97 259 253 259c154 0 250 -102 250 -259c0 -156 -97 -259 -250 -259zM402 561l-135 118l-135 -118l-46 51l128 134h106l128 -134zM332 -206
h-130v124h130v-124z" />
    <glyph glyph-name="uni1EDA" unicode="&#x1eda;" horiz-adv-x="765" 
d="M682 702h70c13 -15 21 -46 21 -78c0 -76 -38 -107 -92 -107c-23 0 -48 5 -74 15c29 -56 44 -127 44 -209c0 -228 -113 -346 -317 -346s-319 125 -319 349c0 225 115 360 319 360c85 0 154 -24 206 -68c32 -27 67 -35 103 -35c39 0 48 31 48 63c0 22 -4 44 -9 56zM334 96
c100 0 180 70 180 227s-64 240 -180 240c-117 0 -182 -83 -182 -240s67 -227 182 -227zM489 820l-223 -94l-31 55l207 121z" />
    <glyph glyph-name="uni1EDB" unicode="&#x1edb;" horiz-adv-x="647" 
d="M564 543h70c13 -15 21 -46 21 -78c0 -52 -21 -107 -80 -107c-34 0 -61 5 -83 14c17 -36 26 -79 26 -126c0 -156 -97 -259 -250 -259c-159 0 -253 106 -253 259c0 156 97 259 253 259c61 0 113 -16 154 -46c40 -29 71 -35 103 -35c39 0 48 31 48 63c0 22 -4 44 -9 56z
M268 96c79 0 119 50 119 150s-40 149 -119 149s-119 -49 -119 -149s40 -150 119 -150zM423 648l-223 -94l-31 55l207 121z" />
    <glyph glyph-name="uni1EDC" unicode="&#x1edc;" horiz-adv-x="765" 
d="M682 702h70c13 -15 21 -46 21 -78c0 -76 -38 -107 -92 -107c-23 0 -48 5 -74 15c29 -56 44 -127 44 -209c0 -228 -113 -346 -317 -346s-319 125 -319 349c0 225 115 360 319 360c85 0 154 -24 206 -68c32 -27 67 -35 103 -35c39 0 48 31 48 63c0 22 -4 44 -9 56zM334 96
c100 0 180 70 180 227s-64 240 -180 240c-117 0 -182 -83 -182 -240s67 -227 182 -227zM398 726l-223 94l47 82l207 -121z" />
    <glyph glyph-name="uni1EDD" unicode="&#x1edd;" horiz-adv-x="647" 
d="M564 543h70c13 -15 21 -46 21 -78c0 -52 -21 -107 -80 -107c-34 0 -61 5 -83 14c17 -36 26 -79 26 -126c0 -156 -97 -259 -250 -259c-159 0 -253 106 -253 259c0 156 97 259 253 259c61 0 113 -16 154 -46c40 -29 71 -35 103 -35c39 0 48 31 48 63c0 22 -4 44 -9 56z
M268 96c79 0 119 50 119 150s-40 149 -119 149s-119 -49 -119 -149s40 -150 119 -150zM332 554l-223 94l47 82l207 -121z" />
    <glyph glyph-name="uni1EDE" unicode="&#x1ede;" horiz-adv-x="765" 
d="M682 702h70c13 -15 21 -46 21 -78c0 -76 -38 -107 -92 -107c-23 0 -48 5 -74 15c29 -56 44 -127 44 -209c0 -228 -113 -346 -317 -346s-319 125 -319 349c0 225 115 360 319 360c85 0 154 -24 206 -68c32 -27 67 -35 103 -35c39 0 48 31 48 63c0 22 -4 44 -9 56zM334 96
c100 0 180 70 180 227s-64 240 -180 240c-117 0 -182 -83 -182 -240s67 -227 182 -227zM349 753h-50c0 23 5 41 25 53c14 8 23 14 23 30c0 10 -7 17 -24 17c-11 0 -24 -3 -41 -15l-18 55c20 17 51 25 70 25c46 0 74 -24 74 -61c0 -56 -59 -57 -59 -104z" />
    <glyph glyph-name="uni1EDF" unicode="&#x1edf;" horiz-adv-x="647" 
d="M564 543h70c13 -15 21 -46 21 -78c0 -52 -21 -107 -80 -107c-34 0 -61 5 -83 14c17 -36 26 -79 26 -126c0 -156 -97 -259 -250 -259c-159 0 -253 106 -253 259c0 156 97 259 253 259c61 0 113 -16 154 -46c40 -29 71 -35 103 -35c39 0 48 31 48 63c0 22 -4 44 -9 56z
M268 96c79 0 119 50 119 150s-40 149 -119 149s-119 -49 -119 -149s40 -150 119 -150zM289 581h-50c0 23 5 41 25 53c14 8 23 14 23 30c0 10 -7 17 -24 17c-11 0 -24 -3 -41 -15l-18 55c20 17 51 25 70 25c46 0 74 -24 74 -61c0 -56 -59 -57 -59 -104z" />
    <glyph glyph-name="uni1EE0" unicode="&#x1ee0;" horiz-adv-x="765" 
d="M682 702h70c13 -15 21 -46 21 -78c0 -76 -38 -107 -92 -107c-23 0 -48 5 -74 15c29 -56 44 -127 44 -209c0 -228 -113 -346 -317 -346s-319 125 -319 349c0 225 115 360 319 360c85 0 154 -24 206 -68c32 -27 67 -35 103 -35c39 0 48 31 48 63c0 22 -4 44 -9 56zM334 96
c100 0 180 70 180 227s-64 240 -180 240c-117 0 -182 -83 -182 -240s67 -227 182 -227zM424 873l75 -27c-22 -72 -66 -98 -109 -98c-51 0 -85 45 -128 45c-8 0 -27 -7 -39 -44l-69 37c21 65 56 88 97 88c61 0 95 -48 133 -48c12 0 34 12 40 47z" />
    <glyph glyph-name="uni1EE1" unicode="&#x1ee1;" horiz-adv-x="647" 
d="M564 543h70c13 -15 21 -46 21 -78c0 -52 -21 -107 -80 -107c-34 0 -61 5 -83 14c17 -36 26 -79 26 -126c0 -156 -97 -259 -250 -259c-159 0 -253 106 -253 259c0 156 97 259 253 259c61 0 113 -16 154 -46c40 -29 71 -35 103 -35c39 0 48 31 48 63c0 22 -4 44 -9 56z
M268 96c79 0 119 50 119 150s-40 149 -119 149s-119 -49 -119 -149s40 -150 119 -150zM365 701l75 -27c-22 -72 -66 -98 -109 -98c-51 0 -85 45 -128 45c-8 0 -27 -7 -39 -44l-69 37c21 65 56 88 97 88c61 0 95 -48 133 -48c12 0 34 12 40 47z" />
    <glyph glyph-name="uni1EE2" unicode="&#x1ee2;" horiz-adv-x="765" 
d="M682 702h70c13 -15 21 -46 21 -78c0 -76 -38 -107 -92 -107c-23 0 -48 5 -74 15c29 -56 44 -127 44 -209c0 -228 -113 -346 -317 -346s-319 125 -319 349c0 225 115 360 319 360c85 0 154 -24 206 -68c32 -27 67 -35 103 -35c39 0 48 31 48 63c0 22 -4 44 -9 56zM334 96
c100 0 180 70 180 227s-64 240 -180 240c-117 0 -182 -83 -182 -240s67 -227 182 -227zM397 -206h-130v124h130v-124z" />
    <glyph glyph-name="uni1EE3" unicode="&#x1ee3;" horiz-adv-x="647" 
d="M564 543h70c13 -15 21 -46 21 -78c0 -52 -21 -107 -80 -107c-34 0 -61 5 -83 14c17 -36 26 -79 26 -126c0 -156 -97 -259 -250 -259c-159 0 -253 106 -253 259c0 156 97 259 253 259c61 0 113 -16 154 -46c40 -29 71 -35 103 -35c39 0 48 31 48 63c0 22 -4 44 -9 56z
M268 96c79 0 119 50 119 150s-40 149 -119 149s-119 -49 -119 -149s40 -150 119 -150zM331 -206h-130v124h130v-124z" />
    <glyph glyph-name="uni1EE4" unicode="&#x1ee4;" horiz-adv-x="581" 
d="M416 221v443h142v-443c0 -161 -99 -244 -273 -244c-161 0 -262 76 -262 236v451h141v-438c0 -82 44 -134 119 -134c89 0 133 42 133 129zM355 -206h-130v124h130v-124z" />
    <glyph glyph-name="uni1EE5" unicode="&#x1ee5;" horiz-adv-x="495" 
d="M469 0h-123v69c-34 -56 -85 -82 -153 -82c-98 0 -167 73 -167 181v324h130v-304c0 -62 28 -92 83 -92c66 0 101 47 101 112v284h129v-492zM312 -206h-130v124h130v-124z" />
    <glyph glyph-name="uni1EE6" unicode="&#x1ee6;" horiz-adv-x="581" 
d="M416 221v443h142v-443c0 -161 -99 -244 -273 -244c-161 0 -262 76 -262 236v451h141v-438c0 -82 44 -134 119 -134c89 0 133 42 133 129zM313 753h-50c0 23 5 41 25 53c14 8 23 14 23 30c0 10 -7 17 -24 17c-11 0 -24 -3 -41 -15l-18 55c20 17 51 25 70 25
c46 0 74 -24 74 -61c0 -56 -59 -57 -59 -104z" />
    <glyph glyph-name="uni1EE7" unicode="&#x1ee7;" horiz-adv-x="495" 
d="M469 0h-123v69c-34 -56 -85 -82 -153 -82c-98 0 -167 73 -167 181v324h130v-304c0 -62 28 -92 83 -92c66 0 101 47 101 112v284h129v-492zM270 581h-50c0 23 5 41 25 53c14 8 23 14 23 30c0 10 -7 17 -24 17c-11 0 -24 -3 -41 -15l-18 55c20 17 51 25 70 25
c46 0 74 -24 74 -61c0 -56 -59 -57 -59 -104z" />
    <glyph glyph-name="uni1EE8" unicode="&#x1ee8;" horiz-adv-x="743" 
d="M416 221v443h142v-73c18 -6 36 -8 55 -8c39 0 48 31 48 63c0 22 -4 44 -9 56h70c13 -15 21 -46 21 -78c0 -75 -40 -108 -94 -108c-28 0 -60 9 -91 26v-321c0 -161 -99 -244 -273 -244c-161 0 -262 76 -262 236v451h141v-438c0 -82 44 -134 119 -134c89 0 133 42 133 129z
M453 820l-223 -94l-31 55l207 121z" />
    <glyph glyph-name="uni1EE9" unicode="&#x1ee9;" horiz-adv-x="633" 
d="M469 0h-123v69c-34 -56 -85 -82 -153 -82c-98 0 -167 73 -167 181v324h130v-304c0 -62 28 -92 83 -92c66 0 101 47 101 112v284h129v-64c14 -3 28 -4 42 -4c39 0 48 31 48 63c0 22 -4 44 -9 56h70c13 -15 21 -46 21 -78c0 -75 -39 -107 -93 -107c-24 0 -51 6 -79 18v-376
zM406 648l-223 -94l-31 55l207 121z" />
    <glyph glyph-name="uni1EEA" unicode="&#x1eea;" horiz-adv-x="743" 
d="M416 221v443h142v-73c18 -6 36 -8 55 -8c39 0 48 31 48 63c0 22 -4 44 -9 56h70c13 -15 21 -46 21 -78c0 -75 -40 -108 -94 -108c-28 0 -60 9 -91 26v-321c0 -161 -99 -244 -273 -244c-161 0 -262 76 -262 236v451h141v-438c0 -82 44 -134 119 -134c89 0 133 42 133 129z
M363 726l-223 94l47 82l207 -121z" />
    <glyph glyph-name="uni1EEB" unicode="&#x1eeb;" horiz-adv-x="633" 
d="M469 0h-123v69c-34 -56 -85 -82 -153 -82c-98 0 -167 73 -167 181v324h130v-304c0 -62 28 -92 83 -92c66 0 101 47 101 112v284h129v-64c14 -3 28 -4 42 -4c39 0 48 31 48 63c0 22 -4 44 -9 56h70c13 -15 21 -46 21 -78c0 -75 -39 -107 -93 -107c-24 0 -51 6 -79 18v-376
zM315 554l-223 94l47 82l207 -121z" />
    <glyph glyph-name="uni1EEC" unicode="&#x1eec;" horiz-adv-x="743" 
d="M416 221v443h142v-73c18 -6 36 -8 55 -8c39 0 48 31 48 63c0 22 -4 44 -9 56h70c13 -15 21 -46 21 -78c0 -75 -40 -108 -94 -108c-28 0 -60 9 -91 26v-321c0 -161 -99 -244 -273 -244c-161 0 -262 76 -262 236v451h141v-438c0 -82 44 -134 119 -134c89 0 133 42 133 129z
M314 753h-50c0 23 5 41 25 53c14 8 23 14 23 30c0 10 -7 17 -24 17c-11 0 -24 -3 -41 -15l-18 55c20 17 51 25 70 25c46 0 74 -24 74 -61c0 -56 -59 -57 -59 -104z" />
    <glyph glyph-name="uni1EED" unicode="&#x1eed;" horiz-adv-x="633" 
d="M469 0h-123v69c-34 -56 -85 -82 -153 -82c-98 0 -167 73 -167 181v324h130v-304c0 -62 28 -92 83 -92c66 0 101 47 101 112v284h129v-64c14 -3 28 -4 42 -4c39 0 48 31 48 63c0 22 -4 44 -9 56h70c13 -15 21 -46 21 -78c0 -75 -39 -107 -93 -107c-24 0 -51 6 -79 18v-376
zM269 581h-50c0 23 5 41 25 53c14 8 23 14 23 30c0 10 -7 17 -24 17c-11 0 -24 -3 -41 -15l-18 55c20 17 51 25 70 25c46 0 74 -24 74 -61c0 -56 -59 -57 -59 -104z" />
    <glyph glyph-name="uni1EEE" unicode="&#x1eee;" horiz-adv-x="743" 
d="M416 221v443h142v-73c18 -6 36 -8 55 -8c39 0 48 31 48 63c0 22 -4 44 -9 56h70c13 -15 21 -46 21 -78c0 -75 -40 -108 -94 -108c-28 0 -60 9 -91 26v-321c0 -161 -99 -244 -273 -244c-161 0 -262 76 -262 236v451h141v-438c0 -82 44 -134 119 -134c89 0 133 42 133 129z
M390 873l75 -27c-22 -72 -66 -98 -109 -98c-51 0 -85 45 -128 45c-8 0 -27 -7 -39 -44l-69 37c21 65 56 88 97 88c61 0 95 -48 133 -48c12 0 34 12 40 47z" />
    <glyph glyph-name="uni1EEF" unicode="&#x1eef;" horiz-adv-x="633" 
d="M469 0h-123v69c-34 -56 -85 -82 -153 -82c-98 0 -167 73 -167 181v324h130v-304c0 -62 28 -92 83 -92c66 0 101 47 101 112v284h129v-64c14 -3 28 -4 42 -4c39 0 48 31 48 63c0 22 -4 44 -9 56h70c13 -15 21 -46 21 -78c0 -75 -39 -107 -93 -107c-24 0 -51 6 -79 18v-376
zM350 701l75 -27c-22 -72 -66 -98 -109 -98c-51 0 -85 45 -128 45c-8 0 -27 -7 -39 -44l-69 37c21 65 56 88 97 88c61 0 95 -48 133 -48c12 0 34 12 40 47z" />
    <glyph glyph-name="uni1EF0" unicode="&#x1ef0;" horiz-adv-x="743" 
d="M416 221v443h142v-73c18 -6 36 -8 55 -8c39 0 48 31 48 63c0 22 -4 44 -9 56h70c13 -15 21 -46 21 -78c0 -75 -40 -108 -94 -108c-28 0 -60 9 -91 26v-321c0 -161 -99 -244 -273 -244c-161 0 -262 76 -262 236v451h141v-438c0 -82 44 -134 119 -134c89 0 133 42 133 129z
M356 -206h-130v124h130v-124z" />
    <glyph glyph-name="uni1EF1" unicode="&#x1ef1;" horiz-adv-x="633" 
d="M469 0h-123v69c-34 -56 -85 -82 -153 -82c-98 0 -167 73 -167 181v324h130v-304c0 -62 28 -92 83 -92c66 0 101 47 101 112v284h129v-64c14 -3 28 -4 42 -4c39 0 48 31 48 63c0 22 -4 44 -9 56h70c13 -15 21 -46 21 -78c0 -75 -39 -107 -93 -107c-24 0 -51 6 -79 18v-376
zM305 -206h-130v124h130v-124z" />
    <glyph glyph-name="Ygrave" unicode="&#x1ef2;" horiz-adv-x="597" 
d="M372 0h-139v251l-230 413h162l140 -270l129 270h160l-222 -415v-249zM369 726l-223 94l47 82l207 -121z" />
    <glyph glyph-name="ygrave" unicode="&#x1ef3;" horiz-adv-x="495" 
d="M339 -15v80c-18 -44 -72 -70 -133 -70c-103 0 -180 70 -180 178v319h130v-300c0 -61 28 -92 83 -92c59 0 100 39 100 92v300h130v-505c0 -139 -100 -220 -226 -220c-144 0 -217 79 -217 206h121c0 -58 34 -94 102 -94c47 0 90 41 90 106zM313 554l-223 94l47 82l207 -121
z" />
    <glyph glyph-name="endash" unicode="&#x2013;" horiz-adv-x="431" 
d="M418 257h-405v101h405v-101z" />
    <glyph glyph-name="emdash" unicode="&#x2014;" horiz-adv-x="612" 
d="M599 257h-586v101h586v-101z" />
    <glyph glyph-name="quoteleft" unicode="&#x2018;" horiz-adv-x="184" 
d="M161 450v-50c-104 22 -138 76 -138 189v102h138v-135h-77c1 -63 26 -93 77 -106z" />
    <glyph glyph-name="quoteright" unicode="&#x2019;" horiz-adv-x="184" 
d="M24 400v50c51 13 76 43 77 106h-77v135h138v-102c0 -113 -34 -167 -138 -189z" />
    <glyph glyph-name="quotesinglbase" unicode="&#x201a;" horiz-adv-x="195" 
d="M30 -156v50c51 13 76 43 77 106h-77v135h138v-102c0 -113 -34 -167 -138 -189z" />
    <glyph glyph-name="quotedblleft" unicode="&#x201c;" horiz-adv-x="368" 
d="M161 450v-50c-104 22 -138 76 -138 189v102h138v-135h-77c1 -63 26 -93 77 -106zM345 450v-50c-104 22 -138 76 -138 189v102h138v-135h-77c1 -63 26 -93 77 -106z" />
    <glyph glyph-name="quotedblright" unicode="&#x201d;" horiz-adv-x="368" 
d="M24 400v50c51 13 76 43 77 106h-77v135h138v-102c0 -113 -34 -167 -138 -189zM208 400v50c51 13 76 43 77 106h-77v135h138v-102c0 -113 -34 -167 -138 -189z" />
    <glyph glyph-name="quotedblbase" unicode="&#x201e;" horiz-adv-x="390" 
d="M30 -156v50c51 13 76 43 77 106h-77v135h138v-102c0 -113 -34 -167 -138 -189zM225 -156v50c51 13 76 43 77 106h-77v135h138v-102c0 -113 -34 -167 -138 -189z" />
    <glyph glyph-name="dagger" unicode="&#x2020;" horiz-adv-x="530" 
d="M320 0h-102v435h-183v80h183v149h102v-149h175v-80h-175v-435z" />
    <glyph glyph-name="daggerdbl" unicode="&#x2021;" horiz-adv-x="530" 
d="M495 149h-175v-149h-102v149h-183v80h183v206h-183v80h183v149h102v-149h175v-80h-175v-206h175v-80z" />
    <glyph glyph-name="bullet" unicode="&#x2022;" horiz-adv-x="418" 
d="M371 343c0 -81 -72 -142 -162 -142c-93 0 -164 61 -164 142c0 83 71 143 164 143c90 0 162 -60 162 -143z" />
    <glyph glyph-name="ellipsis" unicode="&#x2026;" horiz-adv-x="920" 
d="M162 0h-139v135h139v-135zM530 0h-139v135h139v-135zM898 0h-139v135h139v-135z" />
    <glyph glyph-name="perthousand" unicode="&#x2030;" horiz-adv-x="862" 
d="M132 384c32 0 47 34 47 124c0 92 -15 126 -47 126c-31 0 -47 -33 -47 -125s16 -125 47 -125zM130 331c-71 0 -113 54 -113 179s42 176 113 176c72 0 115 -51 115 -175c0 -123 -43 -180 -115 -180zM94 -20h-67l461 704h68zM455 31c32 0 47 34 47 124c0 92 -15 126 -47 126
c-31 0 -47 -33 -47 -125s16 -125 47 -125zM453 -22c-71 0 -113 54 -113 179s42 176 113 176c72 0 115 -51 115 -175c0 -123 -43 -180 -115 -180zM737 31c32 0 47 34 47 124c0 92 -15 126 -47 126c-31 0 -47 -33 -47 -125s16 -125 47 -125zM735 -22c-71 0 -113 54 -113 179
s42 176 113 176c72 0 115 -51 115 -175c0 -123 -43 -180 -115 -180z" />
    <glyph glyph-name="guilsinglleft" unicode="&#x2039;" horiz-adv-x="232" 
d="M156 145l-143 172l143 174l63 -68l-94 -106l94 -105z" />
    <glyph glyph-name="guilsinglright" unicode="&#x203a;" horiz-adv-x="232" 
d="M76 145l-63 67l94 105l-94 106l63 68l143 -174z" />
    <glyph glyph-name="fraction" unicode="&#x2044;" horiz-adv-x="131" 
d="M-132 -20h-67l461 704h68z" />
    <glyph glyph-name="zerosuperior" unicode="&#x2070;" horiz-adv-x="272" 
d="M138 384c32 0 47 34 47 124c0 92 -15 126 -47 126c-31 0 -47 -33 -47 -125s16 -125 47 -125zM136 331c-71 0 -113 54 -113 179s42 176 113 176c72 0 115 -51 115 -175c0 -123 -43 -180 -115 -180z" />
    <glyph glyph-name="foursuperior" unicode="&#x2074;" horiz-adv-x="265" 
d="M147 466v117l-68 -117h68zM211 343h-65v72h-129v57l121 203h73v-209h37v-51h-37v-72z" />
    <glyph glyph-name="fivesuperior" unicode="&#x2075;" horiz-adv-x="272" 
d="M96 473h-67l7 202h204v-55h-146l-3 -89c17 18 41 23 66 23c54 0 96 -38 96 -104c0 -72 -47 -119 -115 -119c-60 0 -108 40 -110 97h65c2 -27 19 -44 45 -44c36 0 50 25 50 63c0 34 -15 55 -46 55c-23 0 -37 -10 -46 -29z" />
    <glyph glyph-name="sixsuperior" unicode="&#x2076;" horiz-adv-x="271" 
d="M138 384c30 0 46 27 46 63c0 38 -19 62 -47 62c-29 0 -50 -25 -50 -61c0 -38 19 -64 51 -64zM242 603h-64c-2 20 -14 31 -35 31c-36 0 -53 -34 -57 -105c16 18 35 31 68 31c53 0 94 -41 94 -110c0 -68 -44 -119 -109 -119c-78 0 -117 57 -117 167c0 133 41 188 124 188
c53 0 89 -30 96 -83z" />
    <glyph glyph-name="sevensuperior" unicode="&#x2077;" horiz-adv-x="266" 
d="M129 343h-67c8 95 47 194 117 274h-162v58h232v-50c-74 -83 -115 -183 -120 -282z" />
    <glyph glyph-name="eightsuperior" unicode="&#x2078;" horiz-adv-x="275" 
d="M137 385c34 0 48 20 48 55c0 30 -15 52 -48 52s-47 -21 -47 -52c0 -35 14 -55 47 -55zM137 543c27 0 41 19 41 45c0 27 -14 45 -41 45s-40 -18 -40 -45c0 -26 13 -45 40 -45zM203 524c30 -13 49 -47 49 -84c0 -63 -37 -109 -114 -109s-116 47 -116 106c0 38 18 68 52 84
c-27 14 -37 45 -37 73c0 53 43 92 101 92c65 0 99 -39 99 -90c0 -29 -9 -59 -34 -72z" />
    <glyph glyph-name="ninesuperior" unicode="&#x2079;" horiz-adv-x="271" 
d="M134 508c29 0 49 25 49 61c0 38 -18 64 -50 64c-30 0 -47 -27 -47 -63c0 -38 19 -62 48 -62zM28 414h65c1 -20 13 -31 35 -31c35 0 52 34 56 105c-15 -18 -35 -31 -68 -31c-52 0 -94 41 -94 110c0 68 44 119 110 119c78 0 116 -57 116 -167c0 -133 -41 -188 -123 -188
c-54 0 -90 30 -97 83z" />
    <glyph glyph-name="zeroinferior" unicode="&#x2080;" horiz-adv-x="272" 
d="M138 31c32 0 47 34 47 124c0 92 -15 126 -47 126c-31 0 -47 -33 -47 -125s16 -125 47 -125zM136 -22c-71 0 -113 54 -113 179s42 176 113 176c72 0 115 -51 115 -175c0 -123 -43 -180 -115 -180z" />
    <glyph glyph-name="oneinferior" unicode="&#x2081;" horiz-adv-x="176" 
d="M150 -10h-65v229h-68v45c57 0 76 19 80 58h53v-332z" />
    <glyph glyph-name="twoinferior" unicode="&#x2082;" horiz-adv-x="260" 
d="M243 -10h-226c0 61 15 104 100 165c47 34 61 51 61 79c0 33 -20 43 -46 43c-29 0 -48 -14 -48 -59h-63c0 72 40 115 108 115c67 0 113 -32 113 -97c0 -51 -25 -80 -96 -130c-26 -19 -45 -43 -46 -60h143v-56z" />
    <glyph glyph-name="threeinferior" unicode="&#x2083;" horiz-adv-x="267" 
d="M107 139v45c56 0 67 21 67 46c0 33 -13 51 -43 51c-25 0 -44 -20 -44 -55h-60c0 64 44 107 107 107c57 0 103 -37 103 -91c0 -30 -13 -59 -39 -74c31 -13 49 -40 49 -82c0 -67 -47 -108 -117 -108c-69 0 -109 42 -109 109h63c0 -38 17 -55 49 -55c27 0 48 20 48 55
c0 39 -20 52 -74 52z" />
    <glyph glyph-name="fourinferior" unicode="&#x2084;" horiz-adv-x="265" 
d="M147 113v117l-68 -117h68zM211 -10h-65v72h-129v57l121 203h73v-209h37v-51h-37v-72z" />
    <glyph glyph-name="fiveinferior" unicode="&#x2085;" horiz-adv-x="272" 
d="M96 120h-67l7 202h204v-55h-146l-3 -89c17 18 41 23 66 23c54 0 96 -38 96 -104c0 -72 -47 -119 -115 -119c-60 0 -108 40 -110 97h65c2 -27 19 -44 45 -44c36 0 50 25 50 63c0 34 -15 55 -46 55c-23 0 -37 -10 -46 -29z" />
    <glyph glyph-name="sixinferior" unicode="&#x2086;" horiz-adv-x="271" 
d="M138 31c30 0 46 27 46 63c0 38 -19 62 -47 62c-29 0 -50 -25 -50 -61c0 -38 19 -64 51 -64zM242 250h-64c-2 20 -14 31 -35 31c-36 0 -53 -34 -57 -105c16 18 35 31 68 31c53 0 94 -41 94 -110c0 -68 -44 -119 -109 -119c-78 0 -117 57 -117 167c0 133 41 188 124 188
c53 0 89 -30 96 -83z" />
    <glyph glyph-name="seveninferior" unicode="&#x2087;" horiz-adv-x="266" 
d="M129 -10h-67c8 95 47 194 117 274h-162v58h232v-50c-74 -83 -115 -183 -120 -282z" />
    <glyph glyph-name="eightinferior" unicode="&#x2088;" horiz-adv-x="275" 
d="M137 32c34 0 48 20 48 55c0 30 -15 52 -48 52s-47 -21 -47 -52c0 -35 14 -55 47 -55zM137 190c27 0 41 19 41 45c0 27 -14 45 -41 45s-40 -18 -40 -45c0 -26 13 -45 40 -45zM203 171c30 -13 49 -47 49 -84c0 -63 -37 -109 -114 -109s-116 47 -116 106c0 38 18 68 52 84
c-27 14 -37 45 -37 73c0 53 43 92 101 92c65 0 99 -39 99 -90c0 -29 -9 -59 -34 -72z" />
    <glyph glyph-name="nineinferior" unicode="&#x2089;" horiz-adv-x="271" 
d="M134 155c29 0 49 25 49 61c0 38 -18 64 -50 64c-30 0 -47 -27 -47 -63c0 -38 19 -62 48 -62zM28 61h65c1 -20 13 -31 35 -31c35 0 52 34 56 105c-15 -18 -35 -31 -68 -31c-52 0 -94 41 -94 110c0 68 44 119 110 119c78 0 116 -57 116 -167c0 -133 -41 -188 -123 -188
c-54 0 -90 30 -97 83z" />
    <glyph glyph-name="dong" unicode="&#x20ab;" horiz-adv-x="533" 
d="M415 110h-101l-1 50c-25 -42 -63 -61 -111 -61c-101 0 -173 82 -173 221c0 124 61 212 164 212c49 0 88 -21 118 -64v101h-121v59h121v44h104v-44h94v-59h-94v-459zM226 187c50 0 89 49 89 118c0 90 -30 134 -88 134c-62 0 -91 -42 -91 -127c0 -73 37 -125 90 -125z
M479 0h-448v59h448v-59z" />
    <glyph glyph-name="Euro" unicode="&#x20ac;" horiz-adv-x="621" 
d="M486 166l116 -65c-50 -77 -137 -124 -241 -124c-139 0 -257 78 -294 230h-58l18 76h28c-1 13 -1 27 -1 41c0 12 0 23 1 32h-46l18 78h37c42 158 138 252 299 252c66 0 121 -18 173 -50l-64 -117c-27 32 -70 47 -108 47c-75 0 -131 -49 -156 -132h219l-41 -78h-192
c0 -27 1 -58 3 -73h149l-41 -76h-89c28 -69 76 -109 140 -109c61 0 104 22 130 68z" />
    <glyph glyph-name="trademark" unicode="&#x2122;" horiz-adv-x="463" 
d="M135 407h-54v206h-66v51h184v-51h-64v-206zM441 407h-52v142l-55 -142l-61 148v-147h-51v256h62l49 -132l48 132h60v-257z" />
    <glyph glyph-name="uni2126" unicode="&#x2126;" horiz-adv-x="646" 
d="M622 0h-239v100c64 61 101 151 101 293c0 125 -56 182 -161 182s-160 -57 -160 -182c0 -142 45 -233 100 -293v-100h-239v110h99c-60 46 -111 153 -111 284c0 181 98 292 311 292c214 0 311 -111 311 -292c0 -131 -51 -238 -111 -284h99v-110z" />
    <glyph glyph-name="onethird" unicode="&#x2153;" horiz-adv-x="616" 
d="M170 343h-65v229h-68v45c57 0 76 19 80 58h53v-332zM84 -20h-67l461 704h68zM464 139v45c56 0 67 21 67 46c0 33 -13 51 -43 51c-25 0 -44 -20 -44 -55h-60c0 64 44 107 107 107c57 0 103 -37 103 -91c0 -30 -13 -59 -39 -74c31 -13 49 -40 49 -82
c0 -67 -47 -108 -117 -108c-69 0 -109 42 -109 109h63c0 -38 17 -55 49 -55c27 0 48 20 48 55c0 39 -20 52 -74 52z" />
    <glyph glyph-name="twothirds" unicode="&#x2154;" horiz-adv-x="630" 
d="M243 343h-226c0 61 15 104 100 165c47 34 61 51 61 79c0 33 -20 43 -46 43c-29 0 -48 -14 -48 -59h-63c0 72 40 115 108 115c67 0 113 -32 113 -97c0 -51 -25 -80 -96 -130c-26 -19 -45 -43 -46 -60h143v-56zM118 -20h-67l461 704h68zM478 139v45c56 0 67 21 67 46
c0 33 -13 51 -43 51c-25 0 -44 -20 -44 -55h-60c0 64 44 107 107 107c57 0 103 -37 103 -91c0 -30 -13 -59 -39 -74c31 -13 49 -40 49 -82c0 -67 -47 -108 -117 -108c-69 0 -109 42 -109 109h63c0 -38 17 -55 49 -55c27 0 48 20 48 55c0 39 -20 52 -74 52z" />
    <glyph glyph-name="oneeighth" unicode="&#x215b;" horiz-adv-x="601" 
d="M170 343h-65v229h-68v45c57 0 76 19 80 58h53v-332zM84 -20h-67l461 704h68zM474 32c34 0 48 20 48 55c0 30 -15 52 -48 52s-47 -21 -47 -52c0 -35 14 -55 47 -55zM474 190c27 0 41 19 41 45c0 27 -14 45 -41 45s-40 -18 -40 -45c0 -26 13 -45 40 -45zM540 171
c30 -13 49 -47 49 -84c0 -63 -37 -109 -114 -109s-116 47 -116 106c0 38 18 68 52 84c-27 14 -37 45 -37 73c0 53 43 92 101 92c65 0 99 -39 99 -90c0 -29 -9 -59 -34 -72z" />
    <glyph glyph-name="threeeighths" unicode="&#x215c;" horiz-adv-x="618" 
d="M103 492v45c56 0 67 21 67 46c0 33 -13 51 -43 51c-25 0 -44 -20 -44 -55h-60c0 64 44 107 107 107c57 0 103 -37 103 -91c0 -30 -13 -59 -39 -74c31 -13 49 -40 49 -82c0 -67 -47 -108 -117 -108c-69 0 -109 42 -109 109h63c0 -38 17 -55 49 -55c27 0 48 20 48 55
c0 39 -20 52 -74 52zM111 -20h-67l461 704h68zM491 32c34 0 48 20 48 55c0 30 -15 52 -48 52s-47 -21 -47 -52c0 -35 14 -55 47 -55zM491 190c27 0 41 19 41 45c0 27 -14 45 -41 45s-40 -18 -40 -45c0 -26 13 -45 40 -45zM557 171c30 -13 49 -47 49 -84
c0 -63 -37 -109 -114 -109s-116 47 -116 106c0 38 18 68 52 84c-27 14 -37 45 -37 73c0 53 43 92 101 92c65 0 99 -39 99 -90c0 -29 -9 -59 -34 -72z" />
    <glyph glyph-name="fiveeighths" unicode="&#x215d;" horiz-adv-x="616" 
d="M85 473h-67l7 202h204v-55h-146l-3 -89c17 18 41 23 66 23c54 0 96 -38 96 -104c0 -72 -47 -119 -115 -119c-60 0 -108 40 -110 97h65c2 -27 19 -44 45 -44c36 0 50 25 50 63c0 34 -15 55 -46 55c-23 0 -37 -10 -46 -29zM109 -20h-67l461 704h68zM489 32
c34 0 48 20 48 55c0 30 -15 52 -48 52s-47 -21 -47 -52c0 -35 14 -55 47 -55zM489 190c27 0 41 19 41 45c0 27 -14 45 -41 45s-40 -18 -40 -45c0 -26 13 -45 40 -45zM555 171c30 -13 49 -47 49 -84c0 -63 -37 -109 -114 -109s-116 47 -116 106c0 38 18 68 52 84
c-27 14 -37 45 -37 73c0 53 43 92 101 92c65 0 99 -39 99 -90c0 -29 -9 -59 -34 -72z" />
    <glyph glyph-name="seveneighths" unicode="&#x215e;" horiz-adv-x="621" 
d="M129 343h-67c8 95 47 194 117 274h-162v58h232v-50c-74 -83 -115 -183 -120 -282zM94 -20h-67l461 704h68zM494 32c34 0 48 20 48 55c0 30 -15 52 -48 52s-47 -21 -47 -52c0 -35 14 -55 47 -55zM494 190c27 0 41 19 41 45c0 27 -14 45 -41 45s-40 -18 -40 -45
c0 -26 13 -45 40 -45zM560 171c30 -13 49 -47 49 -84c0 -63 -37 -109 -114 -109s-116 47 -116 106c0 38 18 68 52 84c-27 14 -37 45 -37 73c0 53 43 92 101 92c65 0 99 -39 99 -90c0 -29 -9 -59 -34 -72z" />
    <glyph glyph-name="partialdiff" unicode="&#x2202;" horiz-adv-x="567" 
d="M408 273c-19 28 -77 54 -136 54c-75 0 -112 -38 -112 -113c0 -87 52 -122 125 -122c63 0 122 55 123 181zM101 534l-44 102c32 28 104 50 199 50c157 0 287 -74 287 -375c0 -177 -60 -334 -277 -334c-154 0 -242 97 -242 240c0 144 91 223 238 223c46 0 107 -15 139 -47
c0 122 -67 180 -145 180c-72 0 -115 -11 -155 -39z" />
    <glyph glyph-name="uni2206" unicode="&#x2206;" horiz-adv-x="638" 
d="M635 0h-632l237 664h161zM318 515l-131 -401h260l-128 401h-1z" />
    <glyph glyph-name="product" unicode="&#x220f;" horiz-adv-x="593" 
d="M549 -233h-114v805h-279v-805h-113v897h506v-897z" />
    <glyph glyph-name="summation" unicode="&#x2211;" horiz-adv-x="521" 
d="M492 -182h-463v79l174 344l-174 344v79h463v-108h-303l150 -315l-150 -316h303v-107z" />
    <glyph glyph-name="minus" unicode="&#x2212;" horiz-adv-x="518" 
d="M494 296h-471v94h471v-94z" />
    <glyph glyph-name="radical" unicode="&#x221a;" horiz-adv-x="579" 
d="M339 0h-125l-109 287h-87v79h201l57 -201l145 499h139z" />
    <glyph glyph-name="infinity" unicode="&#x221e;" horiz-adv-x="664" 
d="M332 260c-28 -52 -76 -85 -150 -85c-79 0 -143 55 -143 165c0 112 65 167 143 167c75 0 117 -33 150 -86c33 53 75 86 150 86c78 0 143 -55 143 -167c0 -110 -64 -165 -143 -165c-74 0 -122 33 -150 85zM292 337c-23 43 -49 73 -93 73c-49 0 -74 -29 -74 -70
c0 -47 23 -72 74 -72c48 0 77 33 93 69zM372 337c16 -36 45 -69 93 -69c51 0 74 25 74 72c0 41 -25 70 -74 70c-44 0 -70 -30 -93 -73z" />
    <glyph glyph-name="integral" unicode="&#x222b;" horiz-adv-x="454" 
d="M100 -233h-57v112h57c35 0 54 24 54 80v530c0 137 90 183 200 183h57v-112h-57c-35 0 -54 -24 -54 -80v-530c0 -137 -90 -183 -200 -183z" />
    <glyph glyph-name="approxequal" unicode="&#x2248;" horiz-adv-x="550" 
d="M525 286v-101c-42 -46 -87 -67 -148 -67c-80 0 -146 58 -216 58c-55 0 -96 -25 -136 -76v101c29 34 71 67 132 67c96 0 160 -57 226 -57c56 0 101 20 142 75zM525 526v-101c-42 -46 -87 -67 -148 -67c-80 0 -146 58 -216 58c-55 0 -96 -25 -136 -76v101
c29 34 71 67 132 67c96 0 160 -57 226 -57c56 0 101 20 142 75z" />
    <glyph glyph-name="notequal" unicode="&#x2260;" horiz-adv-x="518" 
d="M61 -20h-67l141 216h-112v94h174l69 106h-243v94h305l127 194h68l-128 -194h99v-94h-160l-70 -106h230v-94h-291z" />
    <glyph glyph-name="lessequal" unicode="&#x2264;" horiz-adv-x="518" 
d="M494 96l-471 200v94l471 200v-104l-365 -143l365 -143v-104zM494 -14h-471v94h471v-94z" />
    <glyph glyph-name="greaterequal" unicode="&#x2265;" horiz-adv-x="518" 
d="M494 296l-471 -200v104l365 143l-365 143v104l471 -200v-94zM494 -14h-471v94h471v-94z" />
    <glyph glyph-name="dotmath" unicode="&#x22c5;" horiz-adv-x="184" 
d="M162 265h-139v135h139v-135z" />
    <glyph glyph-name="lozenge" unicode="&#x25ca;" horiz-adv-x="550" 
d="M350 0h-141l-170 332l170 332h141l160 -332zM278 122l102 210l-102 210l-104 -210z" />
    <glyph glyph-name="uniE000" unicode="&#xe000;" horiz-adv-x="659" 
d="M773 -14h121c0 -146 -85 -219 -195 -219c-117 0 -196 81 -196 200v81c-39 -50 -96 -71 -187 -71c-181 0 -301 155 -301 356c0 196 112 353 327 353c158 0 280 -94 290 -227h-140c-7 62 -74 112 -150 112c-111 0 -185 -86 -185 -244c0 -145 75 -233 184 -233
c91 0 162 69 162 152h-147v111h277v-384c0 -68 33 -91 70 -91c43 0 70 33 70 104z" />
    <glyph glyph-name="uniE001" unicode="&#xe001;" horiz-adv-x="518" 
d="M260 98c72 0 109 53 109 160c0 83 -48 141 -110 141c-65 0 -111 -61 -111 -149c0 -101 36 -152 112 -152zM492 -233h-128v297c-37 -52 -85 -77 -146 -77c-127 0 -202 105 -202 254c0 166 89 264 213 264c60 0 106 -23 137 -73l1 60h125v-725z" />
    <glyph glyph-name="uniE002" unicode="&#xe002;" horiz-adv-x="459" 
d="M436 280h-189l82 -83l-82 -84l-225 228l225 227l82 -83l-82 -82h189v-123z" />
    <glyph glyph-name="uniE003" unicode="&#xe003;" horiz-adv-x="460" 
d="M210 113l-83 84l83 83h-187v123h187l-83 82l83 83l227 -227z" />
    <glyph glyph-name="fi" unicode="&#xfb01;" horiz-adv-x="468" 
d="M205 0h-128v400h-73v92h73c0 113 68 180 199 180h169v-121h-150c-64 0 -90 -2 -90 -59h84v-92h-84v-400zM445 0h-130v492h130v-492z" />
    <glyph glyph-name="fl" unicode="&#xfb02;" horiz-adv-x="471" 
d="M445 0h-130v400h-110v-400h-128v400h-73v92h73c0 120 69 180 209 180v-105c-66 0 -81 -18 -81 -75h110v180h130v-672z" />
    <glyph glyph-name="circumflexhook" horiz-adv-x="541" 
d="M432 581h-50c0 23 5 41 25 53c14 8 23 14 23 30c0 10 -7 17 -24 17c-11 0 -24 -3 -41 -15l-18 55c20 17 51 25 70 25c46 0 74 -24 74 -61c0 -56 -59 -57 -59 -104zM322 571l-116 101l-116 -101l-40 44l110 115h91l110 -115z" />
    <glyph glyph-name="breveacute" horiz-adv-x="323" 
d="M216 668h57c0 -76 -55 -114 -112 -114s-111 38 -111 114h57c0 -38 21 -60 54 -60c34 0 54 22 55 60zM261 699l-128 -55l-18 33l119 69z" />
    <glyph glyph-name=".null" horiz-adv-x="0" 
 />
    <glyph glyph-name="brevetilde" horiz-adv-x="323" 
d="M214 746l39 -10c-8 -37 -30 -54 -53 -54c-26 0 -44 22 -69 22c-6 0 -11 -5 -17 -23l-37 18c10 33 29 45 51 45c27 0 44 -23 71 -23c7 0 13 9 15 25zM216 668h57c0 -76 -54 -114 -111 -114s-112 38 -112 114h57c1 -38 21 -60 55 -60c33 0 54 22 54 60z" />
    <glyph glyph-name="brevehook" horiz-adv-x="323" 
d="M216 668h57c0 -76 -54 -114 -111 -114s-112 38 -112 114h57c1 -38 21 -60 55 -60c33 0 54 22 54 60zM173 623h-37c0 17 4 31 19 40c10 6 17 10 17 22c0 7 -6 13 -18 13c-8 0 -18 -3 -31 -11l-13 40c15 13 38 19 52 19c34 0 55 -18 55 -45c0 -42 -44 -42 -44 -78z" />
    <glyph glyph-name="circumflexacute" horiz-adv-x="649" 
d="M321 571l-116 101l-116 -101l-39 44l110 115h91l110 -115zM599 662l-185 -78l-25 46l171 100z" />
    <glyph glyph-name="gravecircumflex" horiz-adv-x="649" 
d="M560 571l-116 101l-116 -101l-40 44l110 115h91l110 -115zM235 584l-185 78l39 68l171 -100z" />
    <glyph glyph-name="CR" horiz-adv-x="0" 
 />
    <glyph glyph-name="brevegrave" horiz-adv-x="323" 
d="M216 668h57c0 -76 -54 -114 -111 -114s-112 38 -112 114h57c1 -38 21 -60 55 -60c33 0 54 22 54 60zM190 644l-128 55l27 47l119 -69z" />
    <glyph glyph-name="space" unicode=" " horiz-adv-x="247" 
 />
    </font>
</defs>
</svg>
