<?xml version="1.0" encoding="utf-8"?>
<!-- Generator: Adobe Illustrator 20.1.0, SVG Export Plug-In . SVG Version: 6.00 Build 0)  -->
<svg version="1.1"
	 id="svg2" inkscape:version="0.91 r13725" sodipodi:docname="logo_musta.svg" xmlns:cc="http://creativecommons.org/ns#" xmlns:dc="http://purl.org/dc/elements/1.1/" xmlns:inkscape="http://www.inkscape.org/namespaces/inkscape" xmlns:rdf="http://www.w3.org/1999/02/22-rdf-syntax-ns#" xmlns:sodipodi="http://sodipodi.sourceforge.net/DTD/sodipodi-0.dtd" xmlns:svg="http://www.w3.org/2000/svg"
	 xmlns="http://www.w3.org/2000/svg" xmlns:xlink="http://www.w3.org/1999/xlink" x="0px" y="0px" viewBox="0 0 566.9 377"
	 style="enable-background:new 0 0 566.9 377;" xml:space="preserve">
<style type="text/css">
	.st0{opacity:0.57;}
	.st1{fill:#AB0B0B;}
</style>
<sodipodi:namedview  bordercolor="#666666" borderopacity="1.0" id="base" inkscape:current-layer="g4281" inkscape:cx="291.54613" inkscape:cy="143.75411" inkscape:document-units="px" inkscape:pageopacity="0.0" inkscape:pageshadow="2" inkscape:window-height="1027" inkscape:window-maximized="1" inkscape:window-width="2560" inkscape:window-x="-8" inkscape:window-y="-8" inkscape:zoom="0.98994949" pagecolor="#ffffff" showgrid="false" width="200mm">
	</sodipodi:namedview>
<g id="layer1" transform="translate(0,-581.10237)" inkscape:groupmode="layer" inkscape:label="Layer 1">
	<g id="g4281" transform="matrix(1.1678715,0,0,-1.1678715,-89.330854,1124.5376)" inkscape:label="logo_musta_uusi">
		<g id="g4448" transform="matrix(0.98025486,0,0,0.98025486,-7.369443,-17.10152)" class="st0">
			<g id="g4283" transform="translate(423.9656,225.7191)">
				<path id="path4285" inkscape:connector-curvature="0" class="st1" d="M-67.7,53.3l-1.8,19.1l10.9,1.4l3.9-19.7L-67.7,53.3z
					 M-111.4,52.8l3.9,20.3l23-1.4l0.4-18.1C-84.1,53.6-111.4,52.8-111.4,52.8z M-72.5,104.2l8.3-1.9l3.2-16.3l-9.7-0.6L-72.5,104.2
					z M-85.1,103.7l0.4-18.4l-20.3,0.5l3.2,16.9C-101.8,102.7-85.1,103.7-85.1,103.7z M-85.7,135.1l0.3-15.8l-13.6-2l2.7,14.2
					C-96.3,131.5-85.7,135.1-85.7,135.1z M-86.2,157.4l0.2-9.8l-8-3.6l2.1,10.8C-91.9,154.8-86.2,157.4-86.2,157.4z M-86.6,182.2
					l0.4-18.5l-4.3-2.3L-86.6,182.2z M-78.1,163.2l-1.7,17.4l3.8-19.1L-78.1,163.2z M-76.6,147.1l-1,10.8l2.7-1.8l2.2-11.1
					C-72.7,145.1-76.6,147.1-76.6,147.1z M-75.6,136.6l5.1-3l3.3-16.5l-6.8,2.3L-75.6,136.6z M-33.6,19.4l-44,171.7l-2.2,9.8H-88
					l-2.8-14.1L-135,15.9h0l5.3-2l10.9,0.5h0l3.9,20.4l31.1-1.7l0.5-26.3h0l11.7-2.1l8.3,2.1h0l0,0h0l0,0l-2.6,26.8l14.5,3.6
					l3.9-19.5l0,0h8.9L-33.6,19.4L-33.6,19.4L-33.6,19.4z"/>
			</g>
			<g id="g4287">
				<g>
					<g id="g4289">
						<g id="g4295" transform="translate(335.939,441.4482)">
							<path id="path4297" inkscape:connector-curvature="0" class="st1" d="M-50.1,10.1c-0.2,2.8,0.4,6.5-2.9,8.4
								c-6,3.5-10.7-2.3-7-7.3c-6.4,0.8-8.9-6.1-3-9.7c3.3-2,6.2,0.3,8.7,1.5c2.4,1.2,5,1.5,5.8,1.3C-49,5-49.9,7.6-50.1,10.1"/>
						</g>
						<g id="g4299" transform="translate(318.2852,417.356)">
							<path id="path4301" inkscape:connector-curvature="0" class="st1" d="M-46.5,15c-0.9,1.1-1.6,2.8-3.5,2.7
								c-3.5-0.2-3.8-3.9-0.9-5c-2.9-1.4-2.1-5,1.4-4.9c1.9,0.1,2.5,1.8,3.2,3c0.7,1.2,1.7,2,2.1,2.1C-44.7,13.1-45.8,14-46.5,15"/>
						</g>
						<g id="g4303" transform="translate(364.335,413.2515)">
							<path id="path4305" inkscape:connector-curvature="0" class="st1" d="M-55.8,15.8c-1.8,3.4-2.9,8.3-8,9
								c-9.3,1.2-12.1-8.5-4.9-12.8c-8.5-2.3-7.9-12.3,1.4-13.7c5.1-0.7,7.6,3.7,10.1,6.5c2.4,2.8,5.4,4.5,6.6,4.7
								C-51.7,9.9-54.2,12.7-55.8,15.8"/>
						</g>
						<g id="g4307" transform="translate(317.7236,382.2896)">
							<path id="path4309" inkscape:connector-curvature="0" class="st1" d="M-46.4,22c-1.8,1.3-3.7,3.5-6.5,2.5
								c-5.1-1.9-3.9-7.6,0.9-7.9c-3.7-3.5-0.8-8.5,4.4-6.7c2.8,1,2.9,3.9,3.4,6.1c0.5,2.1,1.5,3.8,2.1,4.2
								C-42.8,20.1-44.8,20.8-46.4,22"/>
						</g>
						<g id="g4311" transform="translate(389.582,455.5649)">
							<path id="path4313" inkscape:connector-curvature="0" class="st1" d="M-60.8,7.3c-2,3.4-5.9,1.8-5.5-1.7
								c-2.9,2.2-6.1-0.6-4.1-4c1.1-1.9,3.2-1.6,4.7-1.6c1.5-0.1,2.9-0.6,3.2-0.9c-0.1,0.5,0.1,2,0.7,3.3
								C-61.1,3.8-59.7,5.5-60.8,7.3"/>
						</g>
						<g id="g4315" transform="translate(397.2412,486.6709)">
							<path id="path4317" inkscape:connector-curvature="0" class="st1" d="M-62.3,1.1c-1.6,6.2-8.5,5.5-9.4-0.2
								c-3.7,4.8-9.9,1.9-8.3-4.4c0.8-3.4,4.3-3.9,6.7-4.7c2.4-0.8,4.3-2.3,4.7-3c0,0.8,1.1,3.1,2.7,4.9
								C-64.3-4.3-61.4-2.3-62.3,1.1"/>
						</g>
						<g id="g4319" transform="translate(406.5742,433.9287)">
							<path id="path4321" inkscape:connector-curvature="0" class="st1" d="M-64.2,11.6c-0.7,4.4-5.5,4.4-6.5,0.5
								c-2.2,3.5-6.7,1.9-6-2.5c0.4-2.4,2.7-3,4.3-3.7c1.6-0.7,2.8-1.8,3-2.4c0.1,0.6,1,2,2.2,3.2C-65.9,8-63.8,9.2-64.2,11.6"/>
						</g>
						<g id="g4323" transform="translate(462.7441,422.0908)">
							<path id="path4325" inkscape:connector-curvature="0" class="st1" d="M-75.4,14c3.4,2.4,1.6,6.8-2.7,5.9
								c-2.4-0.5-2.8-2.8-3.5-4.5c-0.6-1.6-1.7-2.9-2.2-3.1c0.6,0,2.1-0.9,3.3-2c1.3-1.2,2.6-3.3,5-2.8C-71.3,8.4-71.5,13.2-75.4,14
								"/>
						</g>
						<g id="g4327" transform="translate(422.5322,461.8779)">
							<path id="path4329" inkscape:connector-curvature="0" class="st1" d="M-67.4,6.1c-1.6,6.3-9,6-10.1-0.8
								c-0.6-3.7,2.6-5.7,4.7-7.5c2-1.8,3.3-4,3.4-4.9c0.3,0.8,2.4,2.6,4.7,3.7c2.5,1.2,6.2,2,6.7,5.8C-57,9.1-64.1,11.3-67.4,6.1"
								/>
						</g>
						<g id="g4331" transform="translate(492.3291,455.5938)">
							<path id="path4333" inkscape:connector-curvature="0" class="st1" d="M-81.4,7.3c4.9,9.1-4.1,16.8-12.8,9.9
								c-4.8-3.8-3-9.5-2.6-13.9c0.4-4.3-0.5-8.3-1.3-9.4c1.3,0.6,5.6,0.4,9.5-0.7c4.3-1.2,9.5-4.3,14.2-0.4
								C-65.8-0.3-71.8,10-81.4,7.3"/>
						</g>
						<g id="g4335" transform="translate(504.3311,406.5225)">
							<path id="path4337" inkscape:connector-curvature="0" class="st1" d="M-83.8,17.1c4.7,2.9,2.7,8.9-3.2,8.1
								c-3.2-0.4-4-3.6-5-5.7c-1-2.1-2.5-3.7-3.2-4c0.7-0.1,2.7-1.3,4.2-2.9c1.6-1.7,3.2-4.6,6.4-4.1C-78.6,9.4-78.6,15.7-83.8,17.1
								"/>
						</g>
						<g id="g4339" transform="translate(459.0537,403.9634)">
							<path id="path4341" inkscape:connector-curvature="0" class="st1" d="M-74.7,17.6c-3.8,1.4-6.5-1.6-8.9-3.3
								c-2.3-1.7-4.9-2.6-5.9-2.5c0.8-0.5,2.2-3.1,2.9-5.7c0.8-2.9,0.8-6.9,4.7-8.3c7-2.5,10.8,4.5,5.9,9.1
								C-69,7.2-67.8,15-74.7,17.6"/>
						</g>
						<g id="g4343" transform="translate(388.1006,391.2705)">
							<path id="path4345" inkscape:connector-curvature="0" class="st1" d="M-60.5,20.2L-88.3-3.7l-4.8,10.3l-29.7-29.9l27.7,18.7
								l5-10L-60.5,20.2z"/>
						</g>
						<g id="g4347" transform="translate(328.1992,491.3633)">
							<path id="path4349" inkscape:connector-curvature="0" class="st1" d="M-48.5,0.2l24.1-27.5l-10.3-4.9l30.2-29.4l-19,27.5
								l9.9,5.1L-48.5,0.2z"/>
						</g>
						<g id="g4351" transform="translate(421.0254,414.7266)">
							<path id="path4353" inkscape:connector-curvature="0" class="st1" d="M-67.1,15.5l24.2,27.4l-10.3,4.9l30.3,29.3l-19-27.4
								l9.9-5.1L-67.1,15.5z"/>
						</g>
						<g id="g4355" transform="translate(420.7666,392.7451)">
							<path id="path4357" inkscape:connector-curvature="0" class="st1" d="M-67,19.9l27.5-24.2L-34.7,6l29.4-30.2l-27.4,19
								l-5.1-9.9L-67,19.9z"/>
						</g>
					</g>
				</g>
			</g>
			<g id="text4359" transform="matrix(1,0,0,-1,82.1577,165.1816)">
				<path id="path4432" inkscape:connector-curvature="0" class="st1" d="M17.6-97.4v-14.7h6.5c3.4,0,6.2,2.9,6.2,6.3
					c0,2-1,3.8-3,5.5C27.3-100.3,24.1-97.7,17.6-97.4z M29.8-65.4h13.1l-9.8-24.3c2-1,3.8-2.6,5.6-4.9c2.6-3.3,3.8-7.1,3.8-11.2
					c0-5-1.8-9.4-5.4-13c-3.6-3.6-8-5.4-13-5.4H5.4v58.8h12.2v-30.2L29.8-65.4z"/>
				<path id="path4434" inkscape:connector-curvature="0" class="st1" d="M82.6-88H67.3l7.6-19.5C74.9-107.5,82.6-88,82.6-88z
					 M45.3-65.4h13.1l4.1-10.5h24.7l3.9,10.5h13.2l-22.9-58.8H68.3L45.3-65.4z"/>
				<path id="path4436" inkscape:connector-curvature="0" class="st1" d="M156.1-65.4l-21.7-29l21.7-29.9h-15l-20.1,27.7l-1.1,0.9
					v-28.7h-12.2v58.8h12.2v-27.9l21.1,27.9H156.1z"/>
				<path id="path4438" inkscape:connector-curvature="0" class="st1" d="M208.6-65.4l-21.7-29l21.7-29.9h-15l-20.1,27.7l-1.1,0.9
					v-28.7h-12.2v58.8h12.2v-27.9l21.1,27.9H208.6z"/>
				<path id="path4440" inkscape:connector-curvature="0" class="st1" d="M358-124.2h-12.2v37.8c0,2.6-0.9,4.9-2.8,6.8
					s-4.1,2.8-6.8,2.8s-4.9-0.9-6.8-2.8c-1.9-1.9-2.8-4.1-2.8-6.8v-37.8h-12.2v37.8c0,5.9,2.1,11.1,6.3,15.3
					c4.3,4.2,9.4,6.3,15.4,6.3s11.1-2.1,15.3-6.3c4.3-4.3,6.4-9.4,6.4-15.3V-124.2z"/>
				<path id="path4442" inkscape:connector-curvature="0" class="st1" d="M374.9-112.1c4.8,0.2,8.9,2,12.3,5.3c3.4,3.2,5,7.3,5,12
					s-1.7,8.8-5,12.1c-3.4,3.2-7.4,5-12.3,5.1V-112.1z M374.9-65.4c8.1,0,15-2.9,20.8-8.5c5.8-5.7,8.6-12.7,8.6-20.9
					s-2.9-15.2-8.6-20.8c-5.6-5.7-12.6-8.6-20.8-8.6h-12.2v58.8C362.7-65.4,374.9-65.4,374.9-65.4z"/>
				<path id="path4444" inkscape:connector-curvature="0" class="st1" d="M442-124.2h-34.1v58.8H442v-12.2h-22v-11.2h16.3V-101
					h-16.3v-11.1h22C442-112.1,442-124.2,442-124.2z"/>
				<path id="path4446" inkscape:connector-curvature="0" class="st1" d="M494.4-65.4v-58.8h-12.2v37.8l-21.8-37.8h-14v58.8h12.2
					v-37.7l21.7,37.7H494.4z"/>
			</g>
			<g id="text4363" transform="matrix(1,0,0,-0.98522167,81.4463,81.2305)">
				<path id="path4411" inkscape:connector-curvature="0" class="st1" d="M93-143.1H80.2l-11.1,39l-13.3-39H42.7l-14.5,39.4
					l-11.3-39.4H4.1l17.1,59.7h12.9l15-41.1l14,41.1h13.1L93-143.1z"/>
				<path id="path4413" inkscape:connector-curvature="0" class="st1" d="M118.3-106.4h-15.5l7.7-19.8
					C110.5-126.2,118.3-106.4,118.3-106.4z M80.5-83.4h13.3L98-94.1h25.1l4,10.7h13.4l-23.3-59.7h-13.4L80.5-83.4z"/>
				<path id="path4415" inkscape:connector-curvature="0" class="st1" d="M143.8-83.4h12.4v-22.3h5.3c5.1,0,9.5-1.8,13.2-5.5
					c3.7-3.7,5.5-8.1,5.5-13.2c0-5.1-1.8-9.5-5.5-13.2c-3.7-3.7-8.1-5.5-13.2-5.5h-17.6L143.8-83.4L143.8-83.4z M156.1-130.8h5.3
					c3.4,0,6.3,3,6.3,6.4s-2.9,6.4-6.3,6.4h-5.3L156.1-130.8L156.1-130.8z"/>
				<path id="path4417" inkscape:connector-curvature="0" class="st1" d="M183.8-83.4h12.4v-22.3h5.3c5.1,0,9.5-1.8,13.2-5.5
					s5.5-8.1,5.5-13.2c0-5.1-1.8-9.5-5.5-13.2s-8.1-5.5-13.2-5.5h-17.6V-83.4z M196.1-130.8h5.3c3.4,0,6.3,3,6.3,6.4
					s-2.9,6.4-6.3,6.4h-5.3V-130.8L196.1-130.8z"/>
				<path id="path4419" inkscape:connector-curvature="0" class="st1" d="M267.9-143.1h-12.4v38.3c0,2.7-0.9,5-2.8,6.9
					c-1.9,1.9-4.2,2.8-6.9,2.8c-2.7,0-5-0.9-6.9-2.8c-1.9-1.9-2.8-4.2-2.8-6.9v-38.3h-12.4v38.3c0,6,2.1,11.2,6.4,15.6
					c4.4,4.3,9.5,6.4,15.6,6.4s11.3-2.1,15.6-6.4c4.4-4.4,6.5-9.5,6.5-15.6L267.9-143.1L267.9-143.1z"/>
				<path id="path4421" inkscape:connector-curvature="0" class="st1" d="M285.1-115.9v-14.9h6.6c3.4,0,6.3,3,6.3,6.4
					c0,2.1-1,3.9-3.1,5.6C294.9-118.8,291.7-116.2,285.1-115.9z M297.4-83.4h13.3l-9.9-24.7c2-1,3.9-2.6,5.6-5
					c2.6-3.4,3.9-7.2,3.9-11.4c0-5.1-1.8-9.5-5.5-13.2c-3.7-3.7-8.1-5.5-13.2-5.5h-18.9v59.7h12.4V-114L297.4-83.4z"/>
				<path id="path4423" inkscape:connector-curvature="0" class="st1" d="M351-106.4h-15.5l7.7-19.8
					C343.2-126.2,351-106.4,351-106.4z M313.2-83.4h13.3l4.2-10.7h25.1l4,10.7h13.4l-23.3-59.7h-13.4L313.2-83.4z"/>
				<path id="path4425" inkscape:connector-curvature="0" class="st1" d="M388.9-130.8c4.9,0.2,9,2,12.4,5.3
					c3.4,3.3,5.1,7.4,5.1,12.2s-1.7,8.9-5.1,12.3c-3.4,3.3-7.6,5-12.4,5.2V-130.8z M388.9-83.4c8.2,0,15.3-2.9,21.1-8.6
					c5.9-5.8,8.8-12.9,8.8-21.2s-2.9-15.4-8.7-21.1c-5.7-5.8-12.8-8.7-21.1-8.7h-12.4v59.7H388.9z"/>
				<path id="path4427" inkscape:connector-curvature="0" class="st1" d="M434.7-143.1h-12.4v59.7h12.4V-143.1z"/>
				<path id="path4429" inkscape:connector-curvature="0" class="st1" d="M468.8-82.8c8.5,0,15.6-3,21.6-8.9c6-6,8.9-13.1,8.9-21.6
					s-3-15.6-8.9-21.6c-6-6-13.1-8.9-21.6-8.9s-15.6,3-21.6,8.9c-5.9,6-8.9,13.1-8.9,21.6s3,15.6,8.9,21.6
					C453.1-85.8,460.3-82.8,468.8-82.8z M450.6-113.3c0-5,1.8-9.2,5.3-12.8c3.6-3.6,7.9-5.3,12.8-5.3s9.2,1.8,12.8,5.3
					c3.6,3.6,5.3,7.9,5.3,12.8s-1.8,9.2-5.3,12.8c-3.6,3.6-7.9,5.3-12.8,5.3c-5,0-9.2-1.8-12.8-5.3
					C452.4-104,450.6-108.3,450.6-113.3z"/>
			</g>
		</g>
	</g>
</g>
</svg>
