<?xml version="1.0" encoding="UTF-8" standalone="no"?>
<!-- Created with Inkscape (http://www.inkscape.org/) -->

<svg
   xmlns:dc="http://purl.org/dc/elements/1.1/"
   xmlns:cc="http://creativecommons.org/ns#"
   xmlns:rdf="http://www.w3.org/1999/02/22-rdf-syntax-ns#"
   xmlns:svg="http://www.w3.org/2000/svg"
   xmlns="http://www.w3.org/2000/svg"
   xmlns:sodipodi="http://sodipodi.sourceforge.net/DTD/sodipodi-0.dtd"
   xmlns:inkscape="http://www.inkscape.org/namespaces/inkscape"
   width="200mm"
   height="133mm"
   viewBox="0 0 708.66141 471.25983"
   id="svg2"
   version="1.1"
   inkscape:version="0.91 r13725"
   sodipodi:docname="logo_valkoinen.svg">
  <defs
     id="defs4">
    <clipPath
       id="clipPath4154"
       clipPathUnits="userSpaceOnUse">
      <path
         inkscape:connector-curvature="0"
         id="path4156"
         d="m 0,0 777.685,0 0,528.265 L 0,528.265 0,0 Z" />
    </clipPath>
    <clipPath
       id="clipPath4291"
       clipPathUnits="userSpaceOnUse">
      <path
         inkscape:connector-curvature="0"
         id="path4293"
         d="m 0,0 777.685,0 0,528.265 L 0,528.265 0,0 Z" />
    </clipPath>
  </defs>
  <sodipodi:namedview
     id="base"
     pagecolor="#ffffff"
     bordercolor="#666666"
     borderopacity="1.0"
     inkscape:pageopacity="0.0"
     inkscape:pageshadow="2"
     inkscape:zoom="0.98994949"
     inkscape:cx="291.54613"
     inkscape:cy="143.75411"
     inkscape:document-units="px"
     inkscape:current-layer="g4281"
     showgrid="false"
     width="200mm"
     inkscape:window-width="2560"
     inkscape:window-height="1027"
     inkscape:window-x="-8"
     inkscape:window-y="-8"
     inkscape:window-maximized="1" />
  <metadata
     id="metadata7">
    <rdf:RDF>
      <cc:Work
         rdf:about="">
        <dc:format>image/svg+xml</dc:format>
        <dc:type
           rdf:resource="http://purl.org/dc/dcmitype/StillImage" />
        <dc:title></dc:title>
      </cc:Work>
    </rdf:RDF>
  </metadata>
  <g
     inkscape:label="Layer 1"
     inkscape:groupmode="layer"
     id="layer1"
     transform="translate(0,-581.10237)">
    <g
       transform="matrix(1.1678715,0,0,-1.1678715,-89.330854,1124.5376)"
       inkscape:label="logo_musta_uusi"
       id="g4281">
      <g
         id="g4448"
         transform="matrix(0.98025486,0,0,0.98025486,-7.369443,-17.10152)"
         style="fill:#ffffff;fill-opacity:1">
        <g
           id="g4283"
           transform="translate(423.9656,225.7191)"
           style="fill:#ffffff;fill-opacity:1">
          <path
             d="M 0,0 -2.269,23.863 11.364,25.572 16.258,0.904 0,0 Z m -54.619,-0.577 4.846,25.337 28.751,-1.733 0.439,-22.659 -34.036,-0.945 z M -6.055,63.672 4.279,61.288 8.31,40.969 -3.823,40.205 -6.055,63.672 Z m -15.741,-0.653 0.444,-22.944 -25.376,0.605 4.038,21.114 20.894,1.225 z m -0.76,39.31 0.382,-19.738 -17.022,-2.524 3.386,17.705 13.254,4.557 z m -0.539,27.857 0.236,-12.229 -9.959,-4.544 2.58,13.492 7.143,3.281 z m -0.599,30.937 0.448,-23.154 -5.419,-2.838 4.971,25.992 z m 10.631,-23.755 -2.07,21.77 4.725,-23.819 -2.655,2.049 z m 1.909,-20.072 -1.287,13.529 3.371,-2.25 2.744,-13.834 -4.828,2.555 z m 1.247,-13.12 6.414,-3.712 4.091,-20.623 -8.458,2.819 -2.047,21.516 z m 52.449,-146.561 -55.004,214.568 -2.769,12.288 -10.178,0 -3.467,-17.58 -55.232,-213.61 0.001,0 6.66,-2.5 13.648,0.682 0.008,0 4.872,25.475 38.83,-2.129 0.637,-32.928 0.006,0 14.612,-2.598 10.35,2.683 0.003,0 0,0 10e-4,0 -10e-4,0.002 -3.191,33.553 18.078,4.473 4.835,-24.367 0.008,10e-4 11.137,0 6.156,1.986 0,0.001 z"
             style="fill:#ffffff;fill-opacity:1;fill-rule:nonzero;stroke:none"
             id="path4285"
             inkscape:connector-curvature="0" />
        </g>
        <g
           id="g4287"
           style="fill:#ffffff;fill-opacity:1">
          <g
             id="g4289"
             clip-path="url(#clipPath4291)"
             style="fill:#ffffff;fill-opacity:1">
            <g
               id="g4295"
               transform="translate(335.939,441.4482)"
               style="fill:#ffffff;fill-opacity:1">
              <path
                 d="m 0,0 c -0.285,3.471 0.531,8.104 -3.568,10.491 -7.483,4.358 -13.355,-2.882 -8.755,-9.139 -8.028,1.045 -11.15,-7.639 -3.747,-12.089 4.066,-2.444 7.807,0.396 10.914,1.922 3.012,1.48 6.194,1.918 7.276,1.642 C 1.354,-6.407 0.261,-3.174 0,0"
                 style="fill:#ffffff;fill-opacity:1;fill-rule:evenodd;stroke:none"
                 id="path4297"
                 inkscape:connector-curvature="0" />
            </g>
            <g
               id="g4299"
               transform="translate(318.2852,417.356)"
               style="fill:#ffffff;fill-opacity:1">
              <path
                 d="M 0,0 C -1.068,1.376 -1.991,3.539 -4.36,3.419 -8.684,3.2 -9.165,-1.436 -5.53,-2.8 c -3.648,-1.755 -2.583,-6.245 1.733,-6.086 2.37,0.087 3.161,2.298 4.045,3.786 0.858,1.442 2.071,2.496 2.599,2.675 C 2.317,-2.314 0.975,-1.258 0,0"
                 style="fill:#ffffff;fill-opacity:1;fill-rule:evenodd;stroke:none"
                 id="path4301"
                 inkscape:connector-curvature="0" />
            </g>
            <g
               id="g4303"
               transform="translate(364.335,413.2515)"
               style="fill:#ffffff;fill-opacity:1">
              <path
                 d="m 0,0 c -2.189,4.189 -3.613,10.412 -9.999,11.233 -11.655,1.499 -15.175,-10.653 -6.122,-16.047 -10.589,-2.931 -9.908,-15.437 1.697,-17.093 6.373,-0.91 9.551,4.616 12.63,8.164 2.986,3.44 6.734,5.669 8.231,5.894 C 5.075,-7.297 2.002,-3.831 0,0"
                 style="fill:#ffffff;fill-opacity:1;fill-rule:evenodd;stroke:none"
                 id="path4305"
                 inkscape:connector-curvature="0" />
            </g>
            <g
               id="g4307"
               transform="translate(317.7236,382.2896)"
               style="fill:#ffffff;fill-opacity:1">
              <path
                 d="m 0,0 c -2.246,1.563 -4.646,4.375 -8.142,3.084 -6.383,-2.355 -4.932,-9.534 1.16,-9.876 -4.648,-4.342 -0.946,-10.577 5.453,-8.316 3.514,1.242 3.664,4.929 4.292,7.575 0.61,2.566 1.936,4.714 2.644,5.231 C 4.56,-2.384 2.054,-1.429 0,0"
                 style="fill:#ffffff;fill-opacity:1;fill-rule:evenodd;stroke:none"
                 id="path4309"
                 inkscape:connector-curvature="0" />
            </g>
            <g
               id="g4311"
               transform="translate(389.582,455.5649)"
               style="fill:#ffffff;fill-opacity:1">
              <path
                 d="m 0,0 c -2.506,4.215 -7.405,2.245 -6.848,-2.118 -3.687,2.725 -7.621,-0.717 -5.178,-4.956 1.34,-2.328 3.973,-1.95 5.931,-2.049 1.9,-0.095 3.596,-0.753 4.055,-1.187 -0.168,0.589 0.18,2.491 0.923,4.134 C -0.305,-4.379 1.373,-2.309 0,0"
                 style="fill:#ffffff;fill-opacity:1;fill-rule:evenodd;stroke:none"
                 id="path4313"
                 inkscape:connector-curvature="0" />
            </g>
            <g
               id="g4315"
               transform="translate(397.2412,486.6709)"
               style="fill:#ffffff;fill-opacity:1">
              <path
                 d="m 0,0 c -2.036,7.778 -10.647,6.897 -11.749,-0.229 -4.573,5.967 -12.333,2.33 -10.409,-5.457 1.056,-4.276 5.376,-4.876 8.416,-5.92 2.947,-1.012 5.322,-2.819 5.849,-3.711 0,1.006 1.411,3.843 3.329,6.095 C -2.467,-6.76 1.116,-4.261 0,0"
                 style="fill:#ffffff;fill-opacity:1;fill-rule:evenodd;stroke:none"
                 id="path4317"
                 inkscape:connector-curvature="0" />
            </g>
            <g
               id="g4319"
               transform="translate(406.5742,433.9287)"
               style="fill:#ffffff;fill-opacity:1">
              <path
                 d="m 0,0 c -0.892,5.495 -6.885,5.453 -8.113,0.614 -2.759,4.413 -8.346,2.416 -7.533,-3.076 0.448,-3.017 3.386,-3.715 5.412,-4.634 1.964,-0.891 3.483,-2.292 3.787,-2.942 0.067,0.693 1.226,2.556 2.696,3.982 C -2.146,-4.497 0.489,-3.01 0,0"
                 style="fill:#ffffff;fill-opacity:1;fill-rule:evenodd;stroke:none"
                 id="path4321"
                 inkscape:connector-curvature="0" />
            </g>
            <g
               id="g4323"
               transform="translate(462.7441,422.0908)"
               style="fill:#ffffff;fill-opacity:1">
              <path
                 d="M 0,0 C 4.276,2.967 2.015,8.452 -3.433,7.376 -6.425,6.786 -6.98,3.818 -7.803,1.75 c -0.796,-2.005 -2.123,-3.588 -2.756,-3.923 0.694,-0.034 2.61,-1.102 4.105,-2.502 1.635,-1.53 3.245,-4.09 6.229,-3.458 C 5.221,-6.979 4.893,-0.995 0,0"
                 style="fill:#ffffff;fill-opacity:1;fill-rule:evenodd;stroke:none"
                 id="path4325"
                 inkscape:connector-curvature="0" />
            </g>
            <g
               id="g4327"
               transform="translate(422.5322,461.8779)"
               style="fill:#ffffff;fill-opacity:1">
              <path
                 d="m 0,0 c -2.018,7.84 -11.241,7.505 -12.615,-1.023 -0.755,-4.683 3.273,-7.098 5.847,-9.413 2.496,-2.245 4.086,-5.036 4.233,-6.142 0.425,0.996 3.018,3.214 5.868,4.638 3.115,1.556 7.719,2.524 8.408,7.217 C 13,3.844 4.094,6.598 0,0"
                 style="fill:#ffffff;fill-opacity:1;fill-rule:evenodd;stroke:none"
                 id="path4329"
                 inkscape:connector-curvature="0" />
            </g>
            <g
               id="g4331"
               transform="translate(492.3291,455.5938)"
               style="fill:#ffffff;fill-opacity:1">
              <path
                 d="M 0,0 C 6.076,11.418 -5.155,20.969 -15.973,12.4 -21.913,7.694 -19.77,0.504 -19.234,-5 c 0.519,-5.338 -0.615,-10.344 -1.634,-11.806 1.575,0.716 7.023,0.533 11.918,-0.862 5.35,-1.525 11.819,-5.35 17.694,-0.562 C 19.469,-9.491 11.942,3.361 0,0"
                 style="fill:#ffffff;fill-opacity:1;fill-rule:evenodd;stroke:none"
                 id="path4333"
                 inkscape:connector-curvature="0" />
            </g>
            <g
               id="g4335"
               transform="translate(504.3311,406.5225)"
               style="fill:#ffffff;fill-opacity:1">
              <path
                 d="m 0,0 c 5.93,3.605 3.361,11.087 -3.976,10.093 -4.029,-0.545 -5.008,-4.45 -6.268,-7.136 -1.221,-2.605 -3.114,-4.605 -3.985,-5 0.923,-0.101 3.387,-1.677 5.263,-3.66 2.052,-2.168 3.99,-5.704 8.011,-5.103 C 6.386,-9.708 6.431,-1.718 0,0"
                 style="fill:#ffffff;fill-opacity:1;fill-rule:evenodd;stroke:none"
                 id="path4337"
                 inkscape:connector-curvature="0" />
            </g>
            <g
               id="g4339"
               transform="translate(459.0537,403.9634)"
               style="fill:#ffffff;fill-opacity:1">
              <path
                 d="m 0,0 c -4.763,1.775 -8.143,-1.951 -11.116,-4.17 -2.883,-2.15 -6.149,-3.238 -7.342,-3.16 0.958,-0.655 2.745,-3.845 3.645,-7.138 0.981,-3.599 1.032,-8.639 5.819,-10.348 8.737,-3.119 13.499,5.661 7.425,11.347 C 7.091,-12.992 8.672,-3.232 0,0"
                 style="fill:#ffffff;fill-opacity:1;fill-rule:evenodd;stroke:none"
                 id="path4341"
                 inkscape:connector-curvature="0" />
            </g>
            <g
               id="g4343"
               transform="translate(388.1006,391.2705)"
               style="fill:#ffffff;fill-opacity:1">
              <path
                 d="m 0,0 -34.74,-29.785 -5.938,12.91 -37.182,-37.329 34.586,23.32 6.193,-12.477 L 0,0 Z"
                 style="fill:#ffffff;fill-opacity:1;fill-rule:nonzero;stroke:none"
                 id="path4345"
                 inkscape:connector-curvature="0" />
            </g>
            <g
               id="g4347"
               transform="translate(328.1992,491.3633)"
               style="fill:#ffffff;fill-opacity:1">
              <path
                 d="M 0,0 30.18,-34.397 17.338,-40.483 55.09,-77.237 31.376,-42.92 43.781,-36.583 0,0 Z"
                 style="fill:#ffffff;fill-opacity:1;fill-rule:nonzero;stroke:none"
                 id="path4349"
                 inkscape:connector-curvature="0" />
            </g>
            <g
               id="g4351"
               transform="translate(421.0254,414.7266)"
               style="fill:#ffffff;fill-opacity:1">
              <path
                 d="M 0,0 30.278,34.311 17.453,40.434 55.31,77.08 31.498,42.831 43.885,36.459 0,0 Z"
                 style="fill:#ffffff;fill-opacity:1;fill-rule:nonzero;stroke:none"
                 id="path4353"
                 inkscape:connector-curvature="0" />
            </g>
            <g
               id="g4355"
               transform="translate(420.7666,392.7451)"
               style="fill:#ffffff;fill-opacity:1">
              <path
                 d="M 0,0 34.354,-30.229 40.458,-17.396 77.158,-55.2 42.875,-31.437 36.521,-43.833 0,0 Z"
                 style="fill:#ffffff;fill-opacity:1;fill-rule:nonzero;stroke:none"
                 id="path4357"
                 inkscape:connector-curvature="0" />
            </g>
          </g>
        </g>
        <g
           id="text4359"
           style="font-variant:normal;font-weight:normal;font-stretch:normal;font-size:94px;font-family:PrismaWappuradio;-inkscape-font-specification:PrismaWappuradio;writing-mode:lr-tb;fill:#ffffff;fill-opacity:1;fill-rule:nonzero;stroke:none"
           transform="matrix(1,0,0,-1,82.1577,165.1816)">
          <path
             id="path4432"
             d="m 21.15,-40.044 0,-18.33 8.084,0 c 4.23,0 7.802,3.666 7.802,7.896 0,2.538 -1.222,4.794 -3.76,6.862 0,0 -3.948,3.29 -12.126,3.572 z M 36.378,0 52.734,0 40.514,-30.362 c 2.444,-1.222 4.794,-3.196 6.956,-6.11 3.196,-4.136 4.794,-8.836 4.794,-14.006 0,-6.298 -2.256,-11.75 -6.768,-16.262 -4.512,-4.512 -9.964,-6.768 -16.262,-6.768 l -23.312,0 0,73.508 15.228,0 0,-37.694 L 36.378,0 Z"
             inkscape:connector-curvature="0"
             style="fill:#ffffff;fill-opacity:1" />
          <path
             id="path4434"
             d="m 102.366,-28.294 -19.082,0 9.494,-24.346 9.588,24.346 z M 55.836,0 l 16.356,0 5.17,-13.16 30.926,0 4.888,13.16 16.544,0 -28.67,-73.508 -16.544,0 L 55.836,0 Z"
             inkscape:connector-curvature="0"
             style="fill:#ffffff;fill-opacity:1" />
          <path
             id="path4436"
             d="m 194.298,0 -27.166,-36.19 27.072,-37.318 -18.8,0 -25.098,34.686 -1.316,1.128 0,-35.814 -15.228,0 0,73.508 15.228,0 0,-34.874 L 175.31,0 194.298,0 Z"
             inkscape:connector-curvature="0"
             style="fill:#ffffff;fill-opacity:1" />
          <path
             id="path4438"
             d="m 259.91,0 -27.166,-36.19 27.072,-37.318 -18.8,0 -25.098,34.686 -1.316,1.128 0,-35.814 -15.228,0 0,73.508 15.228,0 0,-34.874 L 240.922,0 259.91,0 Z"
             inkscape:connector-curvature="0"
             style="fill:#ffffff;fill-opacity:1" />
          <path
             id="path4440"
             d="m 446.594,-73.508 -15.228,0 0,47.188 c 0,3.29 -1.128,6.11 -3.478,8.46 -2.35,2.35 -5.17,3.478 -8.46,3.478 -3.29,0 -6.11,-1.128 -8.46,-3.478 -2.35,-2.35 -3.478,-5.17 -3.478,-8.46 l 0,-47.188 -15.228,0 0,47.188 c 0,7.426 2.632,13.818 7.896,19.176 5.358,5.264 11.75,7.896 19.27,7.896 7.52,0 13.912,-2.632 19.176,-7.896 5.358,-5.358 7.99,-11.75 7.99,-19.176 l 0,-47.188 z"
             inkscape:connector-curvature="0"
             style="fill:#ffffff;fill-opacity:1" />
          <path
             id="path4442"
             d="m 467.74399,-58.374 c 6.016,0.282 11.092,2.444 15.322,6.58 4.23,4.042 6.298,9.118 6.298,15.04 0,5.922 -2.068,10.998 -6.298,15.134 -4.23,4.042 -9.306,6.204 -15.322,6.392 l 0,-43.146 z m 0,58.374 c 10.152,0 18.8,-3.572 25.944,-10.622 7.238,-7.144 10.81,-15.886 10.81,-26.132 0,-10.246 -3.572,-18.988 -10.716,-26.038 -7.05,-7.144 -15.792,-10.716 -26.038,-10.716 l -15.228,0 0,73.508 15.228,0 z"
             inkscape:connector-curvature="0"
             style="fill:#ffffff;fill-opacity:1" />
          <path
             id="path4444"
             d="m 551.68601,-73.508 -42.676,0 0,73.508 42.676,0 0,-15.228 -27.448,0 0,-14.006 20.398,0 0,-15.228 -20.398,0 0,-13.912 27.448,0 0,-15.134 z"
             inkscape:connector-curvature="0"
             style="fill:#ffffff;fill-opacity:1" />
          <path
             id="path4446"
             d="m 617.204,0 0,-73.508 -15.228,0 0,47.188 -27.26,-47.188 -17.484,0 0,73.508 15.228,0 0,-47.094 L 599.532,0 617.204,0 Z"
             inkscape:connector-curvature="0"
             style="fill:#ffffff;fill-opacity:1" />
        </g>
        <g
           id="text4363"
           style="font-variant:normal;font-weight:normal;font-stretch:normal;font-size:95.41000366px;font-family:PrismaWappuradio;-inkscape-font-specification:PrismaWappuradio;writing-mode:lr-tb;fill:#ffffff;fill-opacity:1;fill-rule:nonzero;stroke:none"
           transform="matrix(1,0,0,-0.98522167,81.4463,81.2305)">
          <path
             id="path4411"
             d="m 115.25528,-74.610623 -16.028876,0 -13.834451,48.754512 -16.60134,-48.754512 -16.410521,0 -18.127901,49.231562 -14.12068,-49.231562 -16.0288808,0 L 25.474471,0 41.598762,0 60.299122,-51.425992 77.854563,0 94.265084,0 115.25528,-74.610623 Z"
             inkscape:connector-curvature="0"
             style="fill:#ffffff;fill-opacity:1" />
          <path
             id="path4413"
             d="m 146.83599,-28.718411 -19.36823,0 9.63641,-24.711191 9.73182,24.711191 z M 99.608038,0 l 16.601342,0 5.24755,-13.357401 31.38989,0 L 157.80814,0 l 16.79216,0 -29.10005,-74.610623 -16.79216,0 L 99.608038,0 Z"
             inkscape:connector-curvature="0"
             style="fill:#ffffff;fill-opacity:1" />
          <path
             id="path4415"
             d="m 178.70292,0 15.45642,0 0,-27.859721 6.58329,0 c 6.39247,0 11.92625,-2.28984 16.50593,-6.86952 4.57968,-4.579681 6.86952,-10.113461 6.86952,-16.505931 0,-6.39247 -2.28984,-11.92625 -6.86952,-16.505931 -4.57968,-4.57968 -10.11346,-6.86952 -16.50593,-6.86952 l -22.03971,0 0,74.610623 z m 15.45642,-59.249612 6.58329,0 c 4.29345,0 7.91903,3.72099 7.91903,8.01444 0,4.29345 -3.62558,8.01444 -7.91903,8.01444 l -6.58329,0 0,-16.02888 z"
             inkscape:connector-curvature="0"
             style="fill:#ffffff;fill-opacity:1" />
          <path
             id="path4417"
             d="m 228.69777,0 15.45642,0 0,-27.859721 6.58329,0 c 6.39247,0 11.92625,-2.28984 16.50593,-6.86952 4.57968,-4.579681 6.86952,-10.113461 6.86952,-16.505931 0,-6.39247 -2.28984,-11.92625 -6.86952,-16.505931 -4.57968,-4.57968 -10.11346,-6.86952 -16.50593,-6.86952 l -22.03971,0 0,74.610623 z m 15.45642,-59.249612 6.58329,0 c 4.29345,0 7.91903,3.72099 7.91903,8.01444 0,4.29345 -3.62558,8.01444 -7.91903,8.01444 l -6.58329,0 0,-16.02888 z"
             inkscape:connector-curvature="0"
             style="fill:#ffffff;fill-opacity:1" />
          <path
             id="path4419"
             d="m 333.83961,-74.610623 -15.45643,0 0,47.895822 c 0,3.33935 -1.14492,6.20165 -3.53017,8.5869 -2.38525,2.38525 -5.24755,3.53017 -8.5869,3.53017 -3.33935,0 -6.20165,-1.14492 -8.5869,-3.53017 -2.38525,-2.38525 -3.53017,-5.24755 -3.53017,-8.5869 l 0,-47.895822 -15.45642,0 0,47.895822 c 0,7.53739 2.67148,14.025271 8.01444,19.4636407 5.43837,5.3429602 11.92625,8.01444033 19.55905,8.01444033 7.6328,0 14.12069,-2.67148013 19.46365,-8.01444033 5.43837,-5.4383697 8.10985,-11.9262507 8.10985,-19.4636407 l 0,-47.895822 z"
             inkscape:connector-curvature="0"
             style="fill:#ffffff;fill-opacity:1" />
          <path
             id="path4421"
             d="m 355.30685,-40.644662 0,-18.60495 8.20526,0 c 4.29345,0 7.91903,3.72099 7.91903,8.01444 0,2.57607 -1.24033,4.86591 -3.8164,6.96493 0,0 -4.00722,3.33935 -12.30789,3.62558 z M 370.76327,0 l 16.60134,0 -12.4033,-30.817431 c 2.48066,-1.24033 4.86591,-3.24394 7.06034,-6.20165 3.24394,-4.198041 4.86591,-8.968541 4.86591,-14.216091 0,-6.39247 -2.28984,-11.92625 -6.86952,-16.505931 -4.57968,-4.57968 -10.11346,-6.86952 -16.50593,-6.86952 l -23.66168,0 0,74.610623 15.45642,0 0,-38.259411 L 370.76327,0 Z"
             inkscape:connector-curvature="0"
             style="fill:#ffffff;fill-opacity:1" />
          <path
             id="path4423"
             d="m 437.74107,-28.718411 -19.36823,0 9.63641,-24.711191 9.73182,24.711191 z M 390.51312,0 l 16.60134,0 5.24755,-13.357401 31.38989,0 L 448.71322,0 l 16.79216,0 -29.10005,-74.610623 -16.79216,0 L 390.51312,0 Z"
             inkscape:connector-curvature="0"
             style="fill:#ffffff;fill-opacity:1" />
          <path
             id="path4425"
             d="m 485.06445,-59.249612 c 6.10624,0.28623 11.25838,2.48066 15.55183,6.6787 4.29345,4.10263 6.39247,9.25477 6.39247,15.265601 0,6.01083 -2.09902,11.16297 -6.39247,15.36101 -4.29345,4.10263 -9.44559,6.29706 -15.55183,6.48788 l 0,-43.793191 z m 0,59.249612 c 10.30428,0 19.082,-3.6255801 26.33316,-10.78133 7.34657,-7.251161 10.97215,-16.124291 10.97215,-26.523981 0,-10.399691 -3.62558,-19.272821 -10.87674,-26.428571 -7.15575,-7.251161 -16.02888,-10.876741 -26.42857,-10.876741 l -15.45642,0 0,74.610623 15.45642,0 z"
             inkscape:connector-curvature="0"
             style="fill:#ffffff;fill-opacity:1" />
          <path
             id="path4427"
             d="m 542.40585,-74.610623 -15.45642,0 0,74.610623 15.45642,0 0,-74.610623 z"
             inkscape:connector-curvature="0"
             style="fill:#ffffff;fill-opacity:1" />
          <path
             id="path4429"
             d="m 584.95868,0.76328003 c 10.59051,0 19.55906,-3.72099013 27.00104,-11.06756003 7.44198,-7.441981 11.16297,-16.410521 11.16297,-27.001031 0,-10.590511 -3.72099,-19.559051 -11.16297,-27.001031 -7.44198,-7.441981 -16.41053,-11.162971 -27.00104,-11.162971 -10.59051,0 -19.55905,3.72099 -27.00103,11.162971 -7.34657,7.44198 -11.06756,16.41052 -11.06756,27.001031 0,10.59051 3.72099,19.55905 11.06756,27.001031 7.44198,7.3465699 16.41052,11.06756003 27.00103,11.06756003 z M 562.2511,-37.305311 c 0,-6.201651 2.19443,-11.544611 6.6787,-16.028881 4.48427,-4.48427 9.82723,-6.6787 16.02888,-6.6787 6.20165,0 11.54461,2.19443 16.02889,6.6787 4.48427,4.48427 6.6787,9.82723 6.6787,16.028881 0,6.20165 -2.19443,11.54461 -6.6787,16.02888 -4.48428,4.48427 -9.82724,6.6787 -16.02889,6.6787 -6.20165,0 -11.54461,-2.19443 -16.02888,-6.6787 -4.48427,-4.48427 -6.6787,-9.82723 -6.6787,-16.02888 z"
             inkscape:connector-curvature="0"
             style="fill:#ffffff;fill-opacity:1" />
        </g>
      </g>
    </g>
  </g>
</svg>
